<?xml version="1.0" encoding="UTF-8" standalone="no"?>
<!-- Created with Inkscape (http://www.inkscape.org/) -->

<svg
   width="16"
   height="16"
   viewBox="0 0 16 16"
   version="1.1"
   id="svg5"
   inkscape:version="1.2.2 (b0a8486541, 2022-12-01)"
   sodipodi:docname="file-image-raster.svg"
   xml:space="preserve"
   xmlns:inkscape="http://www.inkscape.org/namespaces/inkscape"
   xmlns:sodipodi="http://sodipodi.sourceforge.net/DTD/sodipodi-0.dtd"
   xmlns:xlink="http://www.w3.org/1999/xlink"
   xmlns="http://www.w3.org/2000/svg"
   xmlns:svg="http://www.w3.org/2000/svg"><sodipodi:namedview
     id="namedview7"
     pagecolor="#ffffff"
     bordercolor="#000000"
     borderopacity="0.25"
     inkscape:showpageshadow="2"
     inkscape:pageopacity="0.0"
     inkscape:pagecheckerboard="false"
     inkscape:deskcolor="#d1d1d1"
     inkscape:document-units="px"
     showgrid="true"
     inkscape:zoom="46.362715"
     inkscape:cx="8.2825176"
     inkscape:cy="5.8020761"
     inkscape:window-width="1192"
     inkscape:window-height="976"
     inkscape:window-x="113"
     inkscape:window-y="76"
     inkscape:window-maximized="0"
     inkscape:current-layer="layer1-6"><inkscape:grid
       type="xygrid"
       id="grid9"
       originx="0"
       originy="0"
       empspacing="4"
       spacingx="0.25"
       spacingy="0.25" /></sodipodi:namedview><defs
     id="defs2"><linearGradient
       inkscape:collect="always"
       id="linearGradient32747"><stop
         style="stop-color:#643131;stop-opacity:1;"
         offset="0"
         id="stop32743" /><stop
         style="stop-color:#643131;stop-opacity:1;"
         offset="0.09457366"
         id="stop33244" /><stop
         style="stop-color:#413122;stop-opacity:1;"
         offset="0.17118216"
         id="stop33173" /><stop
         style="stop-color:#a16441;stop-opacity:1;"
         offset="0.3249591"
         id="stop33169" /><stop
         style="stop-color:#a15241;stop-opacity:1;"
         offset="0.42161378"
         id="stop33167" /><stop
         style="stop-color:#a16441;stop-opacity:1;"
         offset="0.53993762"
         id="stop33246" /><stop
         style="stop-color:#cf7952;stop-opacity:1;"
         offset="0.63874489"
         id="stop33455" /><stop
         style="stop-color:#cf7964;stop-opacity:1;"
         offset="0.801947"
         id="stop34009" /><stop
         style="stop-color:#e7a482;stop-opacity:1;"
         offset="0.87678796"
         id="stop34080" /><stop
         style="stop-color:#feb7a1;stop-opacity:1;"
         offset="0.92522645"
         id="stop34427" /><stop
         style="stop-color:#feb78e;stop-opacity:1;"
         offset="0.99507135"
         id="stop32745" /></linearGradient><linearGradient
       inkscape:collect="always"
       id="linearGradient15970"><stop
         style="stop-color:#553f2b;stop-opacity:1;"
         offset="0"
         id="stop15966" /><stop
         style="stop-color:#794131;stop-opacity:1;"
         offset="0.1923077"
         id="stop16935" /><stop
         style="stop-color:#794122;stop-opacity:1;"
         offset="0.34615386"
         id="stop16937" /><stop
         style="stop-color:#794131;stop-opacity:1;"
         offset="0.5"
         id="stop16939" /><stop
         style="stop-color:#644122;stop-opacity:1;"
         offset="0.65384614"
         id="stop16941" /><stop
         style="stop-color:#523122;stop-opacity:1;"
         offset="0.80769229"
         id="stop17426" /><stop
         style="stop-color:#523122;stop-opacity:1;"
         offset="0.88461536"
         id="stop17499" /><stop
         style="stop-color:#a16441;stop-opacity:1;"
         offset="0.92307693"
         id="stop17428" /><stop
         style="stop-color:#a16441;stop-opacity:1;"
         offset="1"
         id="stop15968" /></linearGradient><linearGradient
       inkscape:collect="always"
       id="linearGradient14442"><stop
         style="stop-color:#55bf55;stop-opacity:1;"
         offset="0"
         id="stop14438" /><stop
         style="stop-color:#ffb78e;stop-opacity:1;"
         offset="0.28125"
         id="stop15212" /><stop
         style="stop-color:#ffb78e;stop-opacity:1;"
         offset="0.51428574"
         id="stop14722" /><stop
         style="stop-color:#fecf8e;stop-opacity:1;"
         offset="0.54285717"
         id="stop14724" /><stop
         style="stop-color:#fecf8e;stop-opacity:1;"
         offset="0.60000002"
         id="stop14726" /><stop
         style="stop-color:#ffb78e;stop-opacity:1;"
         offset="0.65714288"
         id="stop14728" /><stop
         style="stop-color:#ffb78e;stop-opacity:1;"
         offset="0.71428573"
         id="stop14730" /><stop
         style="stop-color:#cfb7a1;stop-opacity:1;"
         offset="0.77142859"
         id="stop14732" /><stop
         style="stop-color:#cfb7a1;stop-opacity:1;"
         offset="0.82857144"
         id="stop14734" /><stop
         style="stop-color:#ffb78e;stop-opacity:1;"
         offset="0.88571429"
         id="stop15835" /><stop
         style="stop-color:#ffb78e;stop-opacity:1;"
         offset="1"
         id="stop14440" /></linearGradient><linearGradient
       inkscape:collect="always"
       id="linearGradient6560"><stop
         style="stop-color:#1026c9;stop-opacity:1;"
         offset="0"
         id="stop6556" /><stop
         style="stop-color:#152bd5;stop-opacity:1;"
         offset="0.0625"
         id="stop8642" /><stop
         style="stop-color:#153fd3;stop-opacity:1;"
         offset="0.15625"
         id="stop8638" /><stop
         style="stop-color:#153fe9;stop-opacity:1;"
         offset="0.1875"
         id="stop8644" /><stop
         style="stop-color:#1555d5;stop-opacity:1;"
         offset="0.25"
         id="stop8636" /><stop
         style="stop-color:#1555e9;stop-opacity:1;"
         offset="0.3125"
         id="stop12866" /><stop
         style="stop-color:#156ae9;stop-opacity:1;"
         offset="0.375"
         id="stop8646" /><stop
         style="stop-color:#156aff;stop-opacity:1;"
         offset="0.4375"
         id="stop8640" /><stop
         style="stop-color:#1580ff;stop-opacity:1;"
         offset="0.5"
         id="stop8648" /><stop
         style="stop-color:#1594ff;stop-opacity:1;"
         offset="0.625"
         id="stop13420" /><stop
         style="stop-color:#15aaff;stop-opacity:1;"
         offset="0.75"
         id="stop13698" /><stop
         style="stop-color:#15bfff;stop-opacity:1;"
         offset="0.875"
         id="stop13838" /><stop
         style="stop-color:#6ae9ff;stop-opacity:1;"
         offset="1"
         id="stop7875" /></linearGradient><linearGradient
       inkscape:collect="always"
       xlink:href="#linearGradient6560"
       id="linearGradient6562"
       x1="-4.500001"
       y1="20.5"
       x2="-4.500001"
       y2="36.5"
       gradientUnits="userSpaceOnUse"
       gradientTransform="translate(25.500001)" /><linearGradient
       inkscape:collect="always"
       xlink:href="#linearGradient14442"
       id="linearGradient14444"
       x1="18.75"
       y1="28.5"
       x2="18.625"
       y2="37.125"
       gradientUnits="userSpaceOnUse"
       gradientTransform="matrix(2.3388206,0,0,1,-20.329223,-0.15624988)" /><linearGradient
       inkscape:collect="always"
       xlink:href="#linearGradient15970"
       id="linearGradient15972"
       x1="28.75"
       y1="30.25"
       x2="28.75"
       y2="36.75"
       gradientUnits="userSpaceOnUse"
       gradientTransform="matrix(2.3388206,0,0,1,-42.255666,-0.15624988)" /><radialGradient
       inkscape:collect="always"
       xlink:href="#linearGradient32747"
       id="radialGradient33165"
       cx="24.950962"
       cy="39.239746"
       fx="24.950962"
       fy="39.239746"
       r="9.5"
       gradientTransform="matrix(-2.3984013,0.52631579,-0.25962394,-0.73837014,101.23253,55.841372)"
       gradientUnits="userSpaceOnUse" /><radialGradient
       inkscape:collect="always"
       xlink:href="#linearGradient32747"
       id="radialGradient33165-7"
       cx="24.950962"
       cy="39.239746"
       fx="24.950962"
       fy="39.239746"
       r="9.5"
       gradientTransform="matrix(-1.894737,0.52631579,-0.20510291,-0.73837014,74.573699,55.841372)"
       gradientUnits="userSpaceOnUse" /></defs><g
     inkscape:label="Layer 1"
     inkscape:groupmode="layer"
     id="layer1"><g
       inkscape:label="Layer 1"
       id="layer1-6"
       transform="matrix(0.36,0,0,0.42105263,-1.6,-2.4210526)"
       style="stroke-width:2.56851"><rect
         style="fill:url(#linearGradient6562);fill-opacity:1;stroke-width:2.56851;stroke-linejoin:bevel"
         id="rect6168"
         width="25"
         height="19"
         x="10"
         y="20" /><path
         id="path32741-3"
         style="fill:url(#radialGradient33165-7);fill-opacity:1;stroke-width:2.56851;stroke-linejoin:bevel"
         d="M 14.341797,34.886719 C 12.891803,34.880818 11.445314,35.109192 10,35.515625 V 39 h 11.5 v -2 c -2.394549,-1.472415 -4.780258,-2.103604 -7.158203,-2.113281 z" /><path
         style="opacity:1;fill:url(#radialGradient33165);fill-opacity:1;stroke-width:2.56851;stroke-linejoin:bevel"
         d="m 10,39 c 7.970842,-3.870655 16.139241,-5.75 25,-2.25 V 39 Z"
         id="path32741"
         sodipodi:nodetypes="cccc" /><path
         style="fill:url(#linearGradient14444);fill-opacity:1;stroke-width:2.56852;stroke-linejoin:bevel"
         d="m 20.015431,36.84375 c 1.046742,-0.04854 1.169411,-1.5 1.754115,-3.5 v -1 -0.5 l 0.292353,-2.875 0.292353,-1.125 2.33882,-0.75 0.584706,2.5 v 1.5 1.75 l -0.584706,2.25 -0.292352,1.875 -2.046468,0.375 z"
         id="path14229"
         sodipodi:nodetypes="cccccccccccccc" /><path
         style="fill:url(#linearGradient15972);fill-opacity:1;stroke-width:2.56852;stroke-linejoin:bevel"
         d="m 24.108368,27.59375 v 2.5 l -0.584706,1.25 v 1.75 l -0.584704,1.75 -0.584706,1.25 v 1 0.25 l 2.33882,-0.25 1.169411,-0.25 c -1.169411,-0.25 -0.432682,-1.488357 -0.584705,-2.25 l 0.584705,-3.25 v -1 -1.75 0.75 -2 z"
         id="path15964"
         sodipodi:nodetypes="ccccccccccccccccc" /><path
         style="fill:#55aa55;fill-opacity:1;stroke-width:2.56851;stroke-linejoin:bevel"
         d="m 24.471668,26.135417 1.908333,-1.128126 1.908333,-0.376041 -0.763332,1.128125 -2.290001,0.752084 -1.145,-0.376042"
         id="path25466"
         sodipodi:nodetypes="cccccc" /><path
         style="fill:#3f5555;fill-opacity:1;stroke-width:2.56851;stroke-linejoin:bevel"
         d="m 26.761667,27.639583 1.145001,-0.376041 0.381666,1.128125 -0.763332,0.376042 z"
         id="path25945" /><path
         style="fill:#2bff2b;fill-opacity:1;stroke-width:2.56851;stroke-linejoin:bevel"
         d="M 22.563334,26.887501 19.510001,29.519792 18.746666,31.4 l 2.290001,-1.880208 1.526667,-2.25625 z"
         id="path26299" /><path
         style="fill:#15ff15;fill-opacity:1;stroke-width:2.56851;stroke-linejoin:bevel"
         d="M 22.945001,26.135417 H 21.418334 L 19.510001,27.263542 18.365,27.639583 16.838333,29.519792 16.456667,30.271876 16.075,31.02396 15.311666,32.152084 16.456667,31.776042 17.22,31.02396 18.365,30.647918 c 0.295039,-1.335746 2.354283,-2.984042 3.435,-3.384376 h 0.381667 0.381667 z"
         id="path18355"
         sodipodi:nodetypes="ccccccccccccccc" /><path
         style="fill:#55aa55;fill-opacity:1;stroke-width:2.56851;stroke-linejoin:bevel"
         d="M 19.510001,26.511459 17.601667,27.639583 17.22,29.14375 l -1.145,3.008334 1.526667,-2.25625 1.526667,-1.880209 3.053333,-1.880208 z"
         id="path18773"
         sodipodi:nodetypes="cccccccc" /><path
         style="fill:#15ff6a;fill-opacity:1;stroke-width:2.56851;stroke-linejoin:bevel"
         d="m 18.746666,31.4 1.526667,-1.504166 1.908334,-2.256251 -2.29,3.008335 L 18.746666,31.4"
         id="path26648" /><path
         style="fill:#55aa6a;fill-opacity:1;stroke-width:2.56851;stroke-linejoin:bevel"
         d="M 22.945001,26.887501 21.036667,28.767709 20.273333,32.904168 22.563334,31.4 23.326667,26.887501"
         id="path19996"
         sodipodi:nodetypes="ccccc" /><path
         style="fill:#55aa6a;fill-opacity:1;stroke-width:2.56851;stroke-linejoin:bevel"
         d="m 22.563334,27.263542 v -1.692188 l 0.381667,-1.692188 h 0.763333 l 0.381667,1.128125 -0.381667,2.256251 z"
         id="path22891" /><path
         style="fill:#15ff6a;fill-opacity:1;stroke-width:2.56851;stroke-linejoin:bevel"
         d="m 21.8,27.639583 0.763334,-1.128124 -3.816668,1.880208 -1.908333,3.760417 C 18.103059,30.885144 19.973225,28.327386 21.8,27.639583 Z"
         id="path18985"
         sodipodi:nodetypes="ccccc" /><path
         style="fill:#2bff55;fill-opacity:1;stroke-width:2.56851;stroke-linejoin:bevel"
         d="m 13.784999,28.391667 0.763334,-2.25625 1.526667,-1.504167 4.58,-1.128125 1.526667,1.128125 0.381667,1.504167 H 22.181667 L 20.655,25.759375 h -1.526666 l -2.290001,0.376042 -1.526667,1.504166 z"
         id="path19450" /><path
         style="fill:#2bff2b;fill-opacity:1;stroke-width:2.56851;stroke-linejoin:bevel"
         d="m 23.326667,26.511459 2.671668,2.25625 1.144999,1.504167 1.145,1.880208 h 1.526667 l -0.763334,-1.880208 -1.526665,-1.880209 -1.908335,-1.128125 -2.29,-0.752083"
         id="path21962"
         sodipodi:nodetypes="ccccccccc" /><path
         style="fill:#3f5555;fill-opacity:1;stroke-width:2.56851;stroke-linejoin:bevel"
         d="M 20.273333,32.904168 21.8,30.647918 23.326667,26.887501 v 2.632291 L 22.563334,31.4 v 0.376042 z"
         id="path20343"
         sodipodi:nodetypes="ccccccc" /><path
         style="fill:#55aa6a;fill-opacity:1;stroke-width:2.56851;stroke-linejoin:bevel"
         d="m 21.8,24.63125 -1.526667,-0.376042 h -1.526667 l -2.289999,0.376042 -1.145001,1.128125 -1.144999,1.504167 0.381666,-1.128125 1.526667,-1.504167 1.908334,-0.752084 2.671666,-0.376041 1.526667,0.376041 0.381667,2.256251 z"
         id="path19655"
         sodipodi:nodetypes="ccccccccccccc" /><path
         style="fill:#3f3f55;fill-opacity:1;stroke-width:2.56851;stroke-linejoin:bevel"
         d="m 24.853334,28.767709 0.381667,1.880209 v 1.504166 l 0.381666,1.504167 1.145,-1.880209 -0.763332,-1.128124 z"
         id="path26120"
         sodipodi:nodetypes="ccccccc" /><path
         style="fill:#3f5555;fill-opacity:1;stroke-width:2.56851;stroke-linejoin:bevel"
         d="M 25.616667,33.656251 26.380001,31.776042 25.998335,30.647918 24.853334,29.14375 V 28.015625 L 26.761667,30.271876 27.143334,31.4 Z"
         id="path26122"
         sodipodi:nodetypes="cccccccc" /><path
         style="fill:#55aa55;fill-opacity:1;stroke-width:2.56851;stroke-linejoin:bevel"
         d="m 23.326667,26.511459 c 0.381667,0.376042 1.908334,2.25625 1.908334,2.25625 0.68373,0.770667 1.526666,1.504167 1.908333,2.632291 l 1.145,0.752084 -0.763332,-1.880208 -2.671668,-2.632293 -1.526667,-1.128124"
         id="path21964"
         sodipodi:nodetypes="ccccccc" /><path
         style="fill:#2bff2b;fill-opacity:1;stroke-width:2.56851;stroke-linejoin:bevel"
         d="m 23.326667,26.887501 0.763334,-2.256251 1.526666,-1.504167 1.908335,-1.504167 h 0.763332 c 0.381667,0 1.017779,1.002779 1.526667,1.504167 l -0.763334,-0.376042 -1.526665,0.376042 -1.145001,1.504167 -1.908333,1.504167"
         id="path22392"
         sodipodi:nodetypes="cccccccccc" /><path
         style="fill:#3f3f55;fill-opacity:1;stroke-width:2.56851;stroke-linejoin:bevel"
         d="m 25.235001,25.759375 0.381666,-0.752084 1.145,0.752084 -0.763332,0.752084 z"
         id="path25639" /><path
         style="fill:#15ff6a;fill-opacity:1;stroke-width:2.56851;stroke-linejoin:bevel"
         d="m 24.471668,26.511459 3.053334,-1.128126 5.343333,0.752084 0.381667,1.128125 v 0.752083 l -2.671668,-0.752083 h -4.198333 -1.526667 z"
         id="path25188" /><path
         style="fill:#2bff2b;fill-opacity:1;stroke-width:2.56851;stroke-linejoin:bevel"
         d="m 24.471668,26.887501 3.435,-0.752084 2.29,0.376042 1.526667,0.752083 0.381666,0.376041 -4.579999,-0.376041 h -2.671668 z"
         id="path25255" /><path
         style="fill:#6a94aa;fill-opacity:1;stroke-width:2.56851;stroke-linejoin:bevel"
         d="m 24.280835,26.017904 -0.381668,0.423047 v 1.269141 h 0.763334 l 0.381666,-1.269141 -0.763332,-0.423047"
         id="path20562-3" /><path
         style="fill:#553f2b;fill-opacity:1;stroke-width:2.56851;stroke-linejoin:bevel"
         d="m 24.471668,26.887501 v 1.128124 l -0.763334,-0.376042 v -1.128124 l 0.381667,-0.376042 z"
         id="path20748-6" /><path
         style="fill:#2bff2b;fill-opacity:1;stroke-width:2.56851;stroke-linejoin:bevel"
         d="m 23.326667,26.511459 0.381667,2.632291 -1.145,1.128126 -0.381667,0.752084 v 2.25625 0.376041 l 1.908334,-1.880209 1.145,-2.25625 -0.381667,-1.880209 z"
         id="path19801"
         sodipodi:nodetypes="cccccccccc" /><path
         style="fill:#55bf55;fill-opacity:1;stroke-width:2.56851;stroke-linejoin:bevel"
         d="m 23.326667,26.511459 v 1.880208 l -1.145,2.632293 v 1.128124 1.504167 l 1.526667,-4.512501 z"
         id="path19931" /><path
         style="fill:#6a94aa;fill-opacity:1;stroke-width:2.56851;stroke-linejoin:bevel"
         d="m 22.754168,27.33405 -0.381667,0.423047 v 1.26914 h 0.763333 L 23.5175,27.757097 22.754168,27.33405"
         id="path20562" /><path
         style="fill:#553f2b;fill-opacity:1;stroke-width:2.56851;stroke-linejoin:bevel"
         d="m 22.945001,28.203646 v 1.128125 L 22.181667,28.95573 v -1.128126 l 0.381667,-0.376041 z"
         id="path20748" /><path
         style="fill:#15ff55;fill-opacity:1;stroke-width:2.56851;stroke-linejoin:bevel"
         d="m 29.815001,32.152084 c 0.04812,0.09481 -0.890556,-1.754861 -1.145,-2.25625 l -1.144999,-1.504167 1.526665,1.128125 0.763334,2.632292"
         id="path22327"
         sodipodi:nodetypes="ccccc" /><path
         style="fill:#15ff6a;fill-opacity:1;stroke-width:2.56851;stroke-linejoin:bevel"
         d="m 29.815001,23.127083 h -1.526667 l -1.145,0.752083 -0.763333,0.752084 -1.145,1.128125 -0.763333,0.376042 0.763333,-0.752084 0.763334,-0.752083 1.144999,-1.128125 0.381668,-0.376042 1.144999,-0.376042 h 0.381666 z"
         id="path22463"
         sodipodi:nodetypes="ccccccccccccc" /><path
         style="fill:#55aa55;fill-opacity:1;stroke-width:2.56851;stroke-linejoin:bevel"
         d="m 23.708334,26.135417 0.381667,-1.504167 1.526666,-1.504167 1.908335,-1.504167 -2.290001,2.25625 -1.145,1.504167 z"
         id="path22561" /><path
         style="fill:#2bff2b;fill-opacity:1;stroke-width:2.56851;stroke-linejoin:bevel"
         d="m 22.563334,24.63125 c 0,-0.376042 0.381667,-1.504167 0.381667,-1.504167 l 0.381666,-0.752083 0.763334,1.504166 v 1.128125 l -0.763334,-0.376041 -0.763333,0.752083 v -1.128125"
         id="path23514" /><path
         style="fill:#55aa6a;fill-opacity:1;stroke-width:2.56851;stroke-linejoin:bevel"
         d="M 22.945001,25.759375 23.326667,22.375 22.945001,23.127083 22.563334,24.63125 v 1.128125 z"
         id="path23723" /><path
         style="fill:#15ff6a;fill-opacity:1;stroke-width:2.56851;stroke-linejoin:bevel"
         d="m 23.326667,22.375 0.381667,1.128125 0.381667,1.504166 V 23.879166 L 23.326667,22.375"
         id="path23932" /><path
         style="fill:#55aa55;fill-opacity:1;stroke-width:2.56851;stroke-linejoin:bevel"
         d="m 25.616667,27.263542 h 2.290001 l 1.144999,0.752083 -2.29,-0.376042 z"
         id="path27553" /><path
         style="fill:#3f3f55;fill-opacity:1;stroke-width:2.56851;stroke-linejoin:bevel"
         d="m 25.616667,27.263542 1.145,0.752083 0.763335,0.376042 -0.763335,-0.752084 z"
         id="path27969" /><path
         style="fill:#3f3f55;fill-opacity:1;stroke-width:2.56851;stroke-linejoin:bevel"
         d="M 22.181667,26.135417 20.655,25.759375 l 0.763334,0.376042 h 0.763333"
         id="path29972" /><path
         style="fill:#3f3f55;fill-opacity:1;stroke-width:2.56851;stroke-linejoin:bevel"
         d="M 22.563334,26.511459 21.8,27.263542 h 0.763334 z"
         id="path29974" /><path
         style="fill:#3f3f55;fill-opacity:1;stroke-width:2.56851;stroke-linejoin:bevel"
         d="m 22.563334,26.135417 c 0,-0.376042 0,-0.752084 0,-0.752084 l 0.381667,0.752084 z"
         id="path29976" /><path
         style="fill:#3f3f55;fill-opacity:1;stroke-width:2.56851;stroke-linejoin:bevel"
         d="m 25.616667,25.383333 h -1.144999 l 0.381666,0.376042 z"
         id="path29978" /><path
         style="fill:#3f3f55;fill-opacity:1;stroke-width:2.56851;stroke-linejoin:bevel"
         d="m 24.090001,25.007291 h -0.381667 v 1.128126 z"
         id="path29980" /><path
         style="opacity:0.136781;fill:#000000;fill-opacity:1;stroke-width:2.56852;stroke-linejoin:bevel"
         d="m 25.862483,29.59375 -0.584705,3 -0.584706,3.5 0.584706,0.75 h 0.584705 c -1.19636,-0.552449 -0.421566,-1.493735 -0.584705,-2.25 l 0.584705,-3.25 z"
         id="path30097"
         sodipodi:nodetypes="cccccccc" /></g></g></svg>
