<?xml version="1.0" encoding="UTF-8" standalone="no"?>
<!-- Created with Inkscape (http://www.inkscape.org/) -->

<svg
   width="16"
   height="16"
   viewBox="0 0 16 16"
   version="1.1"
   id="svg5"
   inkscape:version="1.2.2 (b0a8486541, 2022-12-01)"
   sodipodi:docname="folder-music.svg"
   xml:space="preserve"
   xmlns:inkscape="http://www.inkscape.org/namespaces/inkscape"
   xmlns:sodipodi="http://sodipodi.sourceforge.net/DTD/sodipodi-0.dtd"
   xmlns="http://www.w3.org/2000/svg"
   xmlns:svg="http://www.w3.org/2000/svg"><sodipodi:namedview
     id="namedview7"
     pagecolor="#ffffff"
     bordercolor="#000000"
     borderopacity="0.25"
     inkscape:showpageshadow="2"
     inkscape:pageopacity="0.0"
     inkscape:pagecheckerboard="false"
     inkscape:deskcolor="#d1d1d1"
     inkscape:document-units="px"
     showgrid="true"
     inkscape:zoom="16.391695"
     inkscape:cx="7.7173227"
     inkscape:cy="15.434645"
     inkscape:window-width="1192"
     inkscape:window-height="976"
     inkscape:window-x="229"
     inkscape:window-y="489"
     inkscape:window-maximized="0"
     inkscape:current-layer="layer1"><inkscape:grid
       type="xygrid"
       id="grid9"
       originx="0"
       originy="0"
       empspacing="4"
       spacingx="0.25"
       spacingy="0.25" /></sodipodi:namedview><defs
     id="defs2"><filter
       inkscape:collect="always"
       style="color-interpolation-filters:sRGB"
       id="filter2104"
       x="-0.10694492"
       y="-0.11202317"
       width="1.2138898"
       height="1.2240463"><feGaussianBlur
         inkscape:collect="always"
         stdDeviation="0.13585353"
         id="feGaussianBlur2106" /></filter><filter
       inkscape:collect="always"
       style="color-interpolation-filters:sRGB"
       id="filter2901"
       x="-0.10750115"
       y="-0.10356166"
       width="1.2150023"
       height="1.2071233"><feGaussianBlur
         inkscape:collect="always"
         stdDeviation="0.22026561"
         id="feGaussianBlur2903" /></filter><filter
       inkscape:collect="always"
       style="color-interpolation-filters:sRGB"
       id="filter4495"
       x="-0.082707983"
       y="-0.04200922"
       width="1.165416"
       height="1.0840184"><feGaussianBlur
         inkscape:collect="always"
         stdDeviation="0.11063005"
         id="feGaussianBlur4497" /></filter></defs><g
     inkscape:label="Layer 1"
     inkscape:groupmode="layer"
     id="layer1"><path
       style="opacity:0.2;mix-blend-mode:normal;fill:#000000;fill-opacity:1;stroke:none;stroke-width:0.578663;stroke-dasharray:none;stroke-opacity:1;filter:url(#filter2104)"
       d="m 1.9843751,3.1749999 v 0.9260416 c 0,0 -0.6870214,0.00692 -0.79375,0.2645834 -0.037734,0.091099 0.074637,0.1845913 0.1322916,0.2645833 0.072929,0.1011828 0.1493518,0.2168528 0.2645834,0.2645833 0.2037025,0.084376 0.4468702,0.050657 0.661458,0 C 2.3449247,4.8721369 2.472339,4.8520833 2.5135415,4.7624999 2.5895152,4.5973163 2.495018,4.3751585 2.3812498,4.2333332 2.3195503,4.1564177 2.1166665,4.1010415 2.1166665,4.1010415 H 1.9843751 v -0.79375 c 0,0 0.6817204,0.2708956 0.9260413,0.5291667 0.1355249,0.1432631 0.2384073,0.3337028 0.2645834,0.5291667 0.029845,0.222863 -0.065598,0.4467246 -0.1322917,0.6614583 -0.099613,0.3207212 -0.1360881,0.7144406 -0.396875,0.9260416 -0.1746056,0.141674 -0.4366055,0.1322917 -0.661458,0.1322917 -0.2248526,0 -0.455136,-0.042906 -0.6614584,-0.1322917 C 0.9748395,5.8023266 0.6311065,5.5900511 0.396875,5.2916665 0.2502431,5.1048739 0.1392671,4.8675765 0.1322917,4.6302082 0.1240995,4.3514332 0.2373558,4.0652293 0.396875,3.8364582 0.5583759,3.6048451 0.7991862,3.4194074 1.0583333,3.3072915 1.3445134,3.1834802 1.9843751,3.1749999 1.9843751,3.1749999 Z"
       id="path2102"
       sodipodi:nodetypes="ccaaaaaacccaaaaaaaaaac"
       transform="matrix(1.6427729,0,0,1.8178977,1.7613535,3.9876203)" /><path
       style="opacity:0.2;fill:#000000;fill-opacity:1;stroke:none;stroke-width:0.578663;stroke-dasharray:none;stroke-opacity:1;filter:url(#filter2901)"
       d="m 1.9843751,2.6458332 c 0,0 -0.5387671,-0.070626 -0.79375,0 -0.2477989,0.068636 -0.4650101,0.2309736 -0.6614584,0.396875 -0.310612,0.2623132 -0.6526968,0.5447386 -0.79375,0.9260417 -0.1070956,0.2895068 -0.02546,0.6184128 0,0.9260416 0.022124,0.267319 0.00955,0.555246 0.1322917,0.79375 0.1426805,0.2772553 0.3962131,0.4975277 0.6614583,0.6614583 0.2372425,0.146624 0.5184559,0.2199093 0.79375,0.2645834 0.4352781,0.070636 0.9155113,0.1687527 1.3229164,0 0.3456948,-0.1431915 0.5877687,-0.4813714 0.79375,-0.79375 0.1307255,-0.1982504 0.2196758,-0.4282723 0.2645833,-0.6614583 0.083391,-0.4330155 0.1687528,-0.9155115 0,-1.3229167 C 3.5609749,3.4907634 3.205345,3.2729815 2.9104164,3.0427082 2.7077461,2.884468 2.4743587,2.769566 2.2489581,2.6458332 2.162521,2.5983839 1.9843751,2.5135416 1.9843751,2.5135416 v -0.396875 c 0,0 0.5501068,0.1288605 0.7937497,0.2645833 0.3008769,0.1676053 0.5635526,0.4052794 0.79375,0.6614583 0.2125383,0.2365267 0.4370183,0.4894047 0.5291666,0.79375 0.1405654,0.4642561 0.1405654,0.9909522 0,1.4552083 C 4.0088931,5.5960118 3.7525066,5.8237114 3.5718748,6.0854165 3.3563941,6.3976118 3.240207,6.8240122 2.9104164,7.0114582 2.4487734,7.2738463 1.8420318,7.2554695 1.3229167,7.1437498 0.8790703,7.0482288 0.4744559,6.7806999 0.1322917,6.4822915 -0.2000475,6.1924516 -0.5220106,5.8423012 -0.66145827,5.4239582 c -0.11155812,-0.3346744 0,-0.7055555 0,-1.0583333 0,-0.1322917 -0.0437895,-0.2720408 0,-0.396875 C -0.5679952,3.702307 -0.3123906,3.5247576 -0.1322916,3.3072915 0.1270241,2.9941727 0.3106341,2.5867015 0.6614583,2.3812499 0.8554874,2.2676215 1.1024306,2.2930554 1.3229167,2.2489582 1.5434028,2.204861 1.9843751,2.1166666 1.9843751,2.1166666 Z"
       id="path2899"
       sodipodi:nodetypes="caaaaaaaaaaaaaccaaaaaaaaaaaaaacc"
       transform="matrix(1.6427729,0,0,1.8178977,1.6306533,3.9434339)" /><path
       style="opacity:0.2;mix-blend-mode:normal;fill:#000000;fill-opacity:1;stroke:none;stroke-width:0.578663;stroke-dasharray:none;stroke-opacity:1;filter:url(#filter4495)"
       d="m -0.1322916,1.8520834 c 0,0 -0.7626471,0.2681401 -1.0583333,0.5291666 -0.1191949,0.1052231 -0.1987185,0.2521643 -0.2645833,0.3968749 -0.208283,0.4576152 -0.3527891,0.9543592 -0.396875,1.4552083 -0.042708,0.4851937 -0.011126,0.9897318 0.1322916,1.4552083 0.1336826,0.4338812 0.3536712,0.8568721 0.6614583,1.190625 0.43115078,0.4675238 0.9960843,0.8244594 1.5875,1.0583333 0.2494377,0.09864 0.7108005,0.3873766 0.79375,0.1322917 0.182957,-0.5626264 -1.1075478,-0.44782 -1.5875,-0.79375 -0.3035484,-0.2187853 -0.58191456,-0.4853113 -0.79375,-0.79375 -0.2458771,-0.3580045 -0.4390081,-0.7657789 -0.5291666,-1.190625 -0.1006963,-0.4745025 -0.1533924,-0.995031 0,-1.4552083 0.069724,-0.2091715 0.2809586,-0.3416099 0.396875,-0.5291666 0.1036788,-0.1677558 0.1554979,-0.3648752 0.2645833,-0.5291666 0.22488535,-0.3386954 0.79375,-0.9260416 0.79375,-0.9260416 z"
       id="path4493"
       sodipodi:nodetypes="caaaaaaaaaaaaac"
       transform="matrix(1.6427729,0,0,1.8178977,1.6306533,3.9434339)" /><path
       style="fill:#000000;fill-opacity:1;stroke:none;stroke-width:0.999999;stroke-dasharray:none;stroke-opacity:1"
       d="m 5.0389359,6.8607314 c 0,0 1.4545758,0.5365289 1.9610189,1.1392067 0.3473763,0.4133881 0.5158813,0.9942127 0.6224768,1.560059 0.071509,0.3795802 0.1391925,0.8212039 0,1.1700439 -0.3112403,0.780029 -1.2449522,1.170043 -1.2449522,1.170043 0,0 0.6461677,0.14925 0.9337142,0 0.4066484,-0.211075 0.7652734,-0.660465 0.9337141,-1.170043 0.1588044,-0.480433 0.078478,-1.0494229 0,-1.560059 C 8.1392552,8.4825173 7.9787133,7.8083111 7.6224316,7.2199098 7.1483889,6.4370245 5.6801309,5.239 5.6801309,5.239 h -0.641195 z"
       id="path1312"
       sodipodi:nodetypes="caascaaaaccc" /><path
       style="fill:#000000;fill-opacity:1;stroke:#000000;stroke-width:0.999999;stroke-dasharray:none;stroke-opacity:1"
       d="m 5.4999544,12.882809 4e-7,-6.7657423"
       id="path1310"
       sodipodi:nodetypes="cc" /><path
       style="fill:#000000;fill-opacity:1;stroke:#000000;stroke-width:0.999999;stroke-dasharray:none;stroke-opacity:1"
       d="m 3.8277799,12.705777 c 0.1005505,-0.256229 0.3146343,-0.482192 0.5573903,-0.588325 0.2574841,-0.11257 0.5990136,-0.154655 0.836086,0 0.1767042,0.115268 0.2309707,0.374933 0.2786986,0.588325 0.021317,0.09543 0.035527,0.203573 0,0.294161 -0.1005506,0.256229 -0.3146382,0.482192 -0.5573912,0.588325 -0.1716548,0.07505 -0.3765656,0.04508 -0.5573903,0 -0.2021708,-0.05038 -0.448181,-0.107652 -0.5573908,-0.29416 -0.097678,-0.166821 -0.071104,-0.407147 -2.6e-6,-0.588326 z"
       id="path468"
       sodipodi:nodetypes="aaaaaaaaa" /></g></svg>
