<?xml version="1.0" encoding="UTF-8" standalone="no"?>
<!-- Created with Inkscape (http://www.inkscape.org/) -->

<svg
   width="48"
   height="48"
   viewBox="0 0 48 48"
   version="1.1"
   id="svg5"
   inkscape:version="1.2.2 (b0a8486541, 2022-12-01)"
   sodipodi:docname="file-image-raster.svg"
   xml:space="preserve"
   xmlns:inkscape="http://www.inkscape.org/namespaces/inkscape"
   xmlns:sodipodi="http://sodipodi.sourceforge.net/DTD/sodipodi-0.dtd"
   xmlns:xlink="http://www.w3.org/1999/xlink"
   xmlns="http://www.w3.org/2000/svg"
   xmlns:svg="http://www.w3.org/2000/svg"><sodipodi:namedview
     id="namedview7"
     pagecolor="#ffffff"
     bordercolor="#000000"
     borderopacity="0.58039216"
     inkscape:showpageshadow="0"
     inkscape:pageopacity="0"
     inkscape:pagecheckerboard="0"
     inkscape:deskcolor="#d2d2d2"
     inkscape:document-units="px"
     showgrid="true"
     showborder="true"
     borderlayer="true"
     inkscape:zoom="10.556063"
     inkscape:cx="17.146544"
     inkscape:cy="11.936268"
     inkscape:window-width="1192"
     inkscape:window-height="976"
     inkscape:window-x="534"
     inkscape:window-y="76"
     inkscape:window-maximized="0"
     inkscape:current-layer="layer1"><inkscape:grid
       type="xygrid"
       id="grid1181"
       originx="0"
       originy="0"
       spacingx="0.25"
       spacingy="0.25"
       empspacing="4" /></sodipodi:namedview><defs
     id="defs2"><linearGradient
       inkscape:collect="always"
       id="linearGradient32747"><stop
         style="stop-color:#643131;stop-opacity:1;"
         offset="0"
         id="stop32743" /><stop
         style="stop-color:#643131;stop-opacity:1;"
         offset="0.09457366"
         id="stop33244" /><stop
         style="stop-color:#413122;stop-opacity:1;"
         offset="0.17118216"
         id="stop33173" /><stop
         style="stop-color:#a16441;stop-opacity:1;"
         offset="0.3249591"
         id="stop33169" /><stop
         style="stop-color:#a15241;stop-opacity:1;"
         offset="0.42161378"
         id="stop33167" /><stop
         style="stop-color:#a16441;stop-opacity:1;"
         offset="0.53993762"
         id="stop33246" /><stop
         style="stop-color:#cf7952;stop-opacity:1;"
         offset="0.63874489"
         id="stop33455" /><stop
         style="stop-color:#cf7964;stop-opacity:1;"
         offset="0.801947"
         id="stop34009" /><stop
         style="stop-color:#e7a482;stop-opacity:1;"
         offset="0.87678796"
         id="stop34080" /><stop
         style="stop-color:#feb7a1;stop-opacity:1;"
         offset="0.92522645"
         id="stop34427" /><stop
         style="stop-color:#feb78e;stop-opacity:1;"
         offset="0.99507135"
         id="stop32745" /></linearGradient><linearGradient
       inkscape:collect="always"
       id="linearGradient15970"><stop
         style="stop-color:#553f2b;stop-opacity:1;"
         offset="0"
         id="stop15966" /><stop
         style="stop-color:#794131;stop-opacity:1;"
         offset="0.1923077"
         id="stop16935" /><stop
         style="stop-color:#794122;stop-opacity:1;"
         offset="0.34615386"
         id="stop16937" /><stop
         style="stop-color:#794131;stop-opacity:1;"
         offset="0.5"
         id="stop16939" /><stop
         style="stop-color:#644122;stop-opacity:1;"
         offset="0.65384614"
         id="stop16941" /><stop
         style="stop-color:#523122;stop-opacity:1;"
         offset="0.80769229"
         id="stop17426" /><stop
         style="stop-color:#523122;stop-opacity:1;"
         offset="0.88461536"
         id="stop17499" /><stop
         style="stop-color:#a16441;stop-opacity:1;"
         offset="0.92307693"
         id="stop17428" /><stop
         style="stop-color:#a16441;stop-opacity:1;"
         offset="1"
         id="stop15968" /></linearGradient><linearGradient
       inkscape:collect="always"
       id="linearGradient14442"><stop
         style="stop-color:#55bf55;stop-opacity:1;"
         offset="0"
         id="stop14438" /><stop
         style="stop-color:#ffb78e;stop-opacity:1;"
         offset="0.28125"
         id="stop15212" /><stop
         style="stop-color:#ffb78e;stop-opacity:1;"
         offset="0.51428574"
         id="stop14722" /><stop
         style="stop-color:#fecf8e;stop-opacity:1;"
         offset="0.54285717"
         id="stop14724" /><stop
         style="stop-color:#fecf8e;stop-opacity:1;"
         offset="0.60000002"
         id="stop14726" /><stop
         style="stop-color:#ffb78e;stop-opacity:1;"
         offset="0.65714288"
         id="stop14728" /><stop
         style="stop-color:#ffb78e;stop-opacity:1;"
         offset="0.71428573"
         id="stop14730" /><stop
         style="stop-color:#cfb7a1;stop-opacity:1;"
         offset="0.77142859"
         id="stop14732" /><stop
         style="stop-color:#cfb7a1;stop-opacity:1;"
         offset="0.82857144"
         id="stop14734" /><stop
         style="stop-color:#ffb78e;stop-opacity:1;"
         offset="0.88571429"
         id="stop15835" /><stop
         style="stop-color:#ffb78e;stop-opacity:1;"
         offset="1"
         id="stop14440" /></linearGradient><linearGradient
       inkscape:collect="always"
       id="linearGradient6560"><stop
         style="stop-color:#1026c9;stop-opacity:1;"
         offset="0"
         id="stop6556" /><stop
         style="stop-color:#152bd5;stop-opacity:1;"
         offset="0.0625"
         id="stop8642" /><stop
         style="stop-color:#153fd3;stop-opacity:1;"
         offset="0.15625"
         id="stop8638" /><stop
         style="stop-color:#153fe9;stop-opacity:1;"
         offset="0.1875"
         id="stop8644" /><stop
         style="stop-color:#1555d5;stop-opacity:1;"
         offset="0.25"
         id="stop8636" /><stop
         style="stop-color:#1555e9;stop-opacity:1;"
         offset="0.3125"
         id="stop12866" /><stop
         style="stop-color:#156ae9;stop-opacity:1;"
         offset="0.375"
         id="stop8646" /><stop
         style="stop-color:#156aff;stop-opacity:1;"
         offset="0.4375"
         id="stop8640" /><stop
         style="stop-color:#1580ff;stop-opacity:1;"
         offset="0.5"
         id="stop8648" /><stop
         style="stop-color:#1594ff;stop-opacity:1;"
         offset="0.625"
         id="stop13420" /><stop
         style="stop-color:#15aaff;stop-opacity:1;"
         offset="0.75"
         id="stop13698" /><stop
         style="stop-color:#15bfff;stop-opacity:1;"
         offset="0.875"
         id="stop13838" /><stop
         style="stop-color:#6ae9ff;stop-opacity:1;"
         offset="1"
         id="stop7875" /></linearGradient><linearGradient
       inkscape:collect="always"
       xlink:href="#linearGradient6560"
       id="linearGradient6562"
       x1="-4.500001"
       y1="20.5"
       x2="-4.500001"
       y2="36.5"
       gradientUnits="userSpaceOnUse"
       gradientTransform="translate(25.500001)" /><linearGradient
       inkscape:collect="always"
       xlink:href="#linearGradient14442"
       id="linearGradient14444"
       x1="18.75"
       y1="28.5"
       x2="18.625"
       y2="37.125"
       gradientUnits="userSpaceOnUse"
       gradientTransform="translate(8)" /><linearGradient
       inkscape:collect="always"
       xlink:href="#linearGradient15970"
       id="linearGradient15972"
       x1="28.75"
       y1="30.25"
       x2="28.75"
       y2="36.75"
       gradientUnits="userSpaceOnUse"
       gradientTransform="translate(-1.375)" /><radialGradient
       inkscape:collect="always"
       xlink:href="#linearGradient32747"
       id="radialGradient33165"
       cx="24.950962"
       cy="39.239746"
       fx="24.950962"
       fy="39.239746"
       r="9.5"
       gradientTransform="matrix(-1.894737,0.52631579,-0.20510291,-0.73837014,87.323699,55.841372)"
       gradientUnits="userSpaceOnUse" /><radialGradient
       inkscape:collect="always"
       xlink:href="#linearGradient32747"
       id="radialGradient33165-7"
       cx="24.950962"
       cy="39.239746"
       fx="24.950962"
       fy="39.239746"
       r="9.5"
       gradientTransform="matrix(-1.894737,0.52631579,-0.20510291,-0.73837014,74.573699,55.841372)"
       gradientUnits="userSpaceOnUse" /></defs><g
     inkscape:label="Layer 1"
     inkscape:groupmode="layer"
     id="layer1"><rect
       style="fill:url(#linearGradient6562);fill-opacity:1;stroke-linejoin:bevel"
       id="rect6168"
       width="25"
       height="19"
       x="10"
       y="20" /><path
       id="path32741-3"
       style="fill:url(#radialGradient33165-7);fill-opacity:1;stroke-linejoin:bevel"
       d="M 14.341797 34.886719 C 12.891803 34.880818 11.445314 35.109192 10 35.515625 L 10 39 L 21.5 39 L 21.5 37 C 19.105451 35.527585 16.719742 34.896396 14.341797 34.886719 z " /><path
       style="opacity:1;fill:url(#radialGradient33165);fill-opacity:1;stroke-linejoin:bevel"
       d="M 15.25,39 C 21.546965,35.129345 28,33.25 35,36.75 V 39 Z"
       id="path32741"
       sodipodi:nodetypes="cccc" /><path
       style="fill:url(#linearGradient14444);fill-opacity:1;stroke-linejoin:bevel"
       d="m 25.25,37 c 0.447551,-0.04854 0.5,-1.5 0.75,-3.5 V 32.5 32 L 26.125,29.125 26.25,28 l 1,-0.75 0.25,2.5 v 1.5 1.75 l -0.25,2.25 -0.125,1.875 -0.875,0.375 z"
       id="path14229"
       sodipodi:nodetypes="cccccccccccccc" /><path
       style="fill:url(#linearGradient15972);fill-opacity:1;stroke-linejoin:bevel"
       d="m 27,27.75 v 2.5 l -0.25,1.25 v 1.75 L 26.5,35 26.25,36.25 v 1 0.25 l 1,-0.25 0.5,-0.25 c -0.5,-0.25 -0.185,-1.488357 -0.25,-2.25 l 0.25,-3.25 v -1 -1.75 0.75 -2 z"
       id="path15964"
       sodipodi:nodetypes="ccccccccccccccccc" /><path
       style="fill:#55aa55;fill-opacity:1;stroke-linejoin:bevel"
       d="M 27.5,27 28.75,26.25 30,26 29.5,26.75 28,27.25 27.25,27"
       id="path25466"
       sodipodi:nodetypes="cccccc" /><path
       style="fill:#3f5555;fill-opacity:1;stroke-linejoin:bevel"
       d="M 29,28 29.75,27.75 30,28.5 29.5,28.75 Z"
       id="path25945" /><path
       style="fill:#2bff2b;fill-opacity:1;stroke-linejoin:bevel"
       d="m 26.25,27.5 -2,1.75 -0.5,1.25 1.5,-1.25 1,-1.5 z"
       id="path26299" /><path
       style="fill:#15ff15;fill-opacity:1;stroke-linejoin:bevel"
       d="m 26.5,27 h -1 l -1.25,0.75 -0.75,0.25 -1,1.25 -0.25,0.5 -0.25,0.5 -0.5,0.75 0.75,-0.25 0.5,-0.5 L 23.5,30 c 0.193257,-0.88803 1.542107,-1.98385 2.25,-2.25 H 26 26.25 Z"
       id="path18355"
       sodipodi:nodetypes="ccccccccccccccc" /><path
       style="fill:#55aa55;fill-opacity:1;stroke-linejoin:bevel"
       d="M 24.25,27.25 23,28 22.75,29 22,31 23,29.5 24,28.25 26,27 Z"
       id="path18773"
       sodipodi:nodetypes="cccccccc" /><path
       style="fill:#15ff6a;fill-opacity:1;stroke-linejoin:bevel"
       d="m 23.75,30.5 1,-1 1.25,-1.5 -1.5,2 -0.75,0.5"
       id="path26648" /><path
       style="fill:#55aa6a;fill-opacity:1;stroke-linejoin:bevel"
       d="m 26.5,27.5 -1.25,1.25 -0.5,2.75 1.5,-1 0.5,-3"
       id="path19996"
       sodipodi:nodetypes="ccccc" /><path
       style="fill:#55aa6a;fill-opacity:1;stroke-width:1;stroke-linejoin:bevel"
       d="M 26.25,27.75 V 26.625 L 26.5,25.5 H 27 l 0.25,0.75 -0.25,1.5 z"
       id="path22891" /><path
       style="fill:#15ff6a;fill-opacity:1;stroke-linejoin:bevel"
       d="m 25.75,28 0.5,-0.75 -2.5,1.25 -1.25,2.5 c 0.828423,-0.842287 2.053422,-2.542735 3.25,-3 z"
       id="path18985"
       sodipodi:nodetypes="ccccc" /><path
       style="fill:#2bff55;fill-opacity:1;stroke-linejoin:bevel"
       d="M 20.5,28.5 21,27 l 1,-1 3,-0.75 1,0.75 0.25,1 H 26 l -1,-0.25 h -1 l -1.5,0.25 -1,1 z"
       id="path19450" /><path
       style="fill:#2bff2b;fill-opacity:1;stroke-linejoin:bevel"
       d="m 26.75,27.25 1.75,1.5 0.75,1 L 30,31 h 1 l -0.5,-1.25 -1,-1.25 -1.25,-0.75 -1.5,-0.5"
       id="path21962"
       sodipodi:nodetypes="ccccccccc" /><path
       style="fill:#3f5555;fill-opacity:1;stroke-linejoin:bevel"
       d="m 24.75,31.5 1,-1.5 1,-2.5 v 1.75 l -0.5,1.25 v 0.25 z"
       id="path20343"
       sodipodi:nodetypes="ccccccc" /><path
       style="fill:#55aa6a;fill-opacity:1;stroke-linejoin:bevel"
       d="m 25.75,26 -1,-0.25 h -1 l -1.5,0.25 -0.75,0.75 -0.75,1 L 21,27 22,26 23.25,25.5 25,25.25 26,25.5 26.25,27 Z"
       id="path19655"
       sodipodi:nodetypes="ccccccccccccc" /><path
       style="fill:#3f3f55;fill-opacity:1;stroke-linejoin:bevel"
       d="M 27.75,28.75 28,30 v 1 L 28.25,32 29,30.75 28.5,30 Z"
       id="path26120"
       sodipodi:nodetypes="ccccccc" /><path
       style="fill:#3f5555;fill-opacity:1;stroke-linejoin:bevel"
       d="M 28.25,32 28.75,30.75 28.5,30 27.75,29 v -0.75 l 1.25,1.5 0.25,0.75 z"
       id="path26122"
       sodipodi:nodetypes="cccccccc" /><path
       style="fill:#55aa55;fill-opacity:1;stroke-linejoin:bevel"
       d="m 26.75,27.25 c 0.25,0.25 1.25,1.5 1.25,1.5 0.447858,0.512355 1,1 1.25,1.75 L 30,31 29.5,29.75 27.75,28 l -1,-0.75"
       id="path21964"
       sodipodi:nodetypes="ccccccc" /><path
       style="fill:#2bff2b;fill-opacity:1;stroke-linejoin:bevel"
       d="m 26.75,27.5 0.5,-1.5 1,-1 1.25,-1 H 30 c 0.25,0 0.666667,0.666667 1,1 l -0.5,-0.25 -1,0.25 -0.75,1 -1.25,1"
       id="path22392"
       sodipodi:nodetypes="cccccccccc" /><path
       style="fill:#3f3f55;fill-opacity:1;stroke-linejoin:bevel"
       d="m 28,26.75 0.25,-0.5 0.75,0.5 -0.5,0.5 z"
       id="path25639" /><path
       style="fill:#15ff6a;fill-opacity:1;stroke-linejoin:bevel"
       d="m 27.5,27.25 2,-0.75 3.5,0.5 0.25,0.75 v 0.5 l -1.75,-0.5 h -2.75 -1 z"
       id="path25188" /><path
       style="fill:#2bff2b;fill-opacity:1;stroke-linejoin:bevel"
       d="m 27.5,27.5 2.25,-0.5 1.5,0.25 1,0.5 0.25,0.25 -3,-0.25 h -1.75 z"
       id="path25255" /><path
       style="fill:#6a94aa;fill-opacity:1;stroke-width:1;stroke-linejoin:bevel"
       d="m 27.375,26.921875 -0.25,0.28125 v 0.84375 h 0.5 l 0.25,-0.84375 -0.5,-0.28125"
       id="path20562-3" /><path
       style="fill:#553f2b;fill-opacity:1;stroke-linejoin:bevel"
       d="m 27.5,27.5 v 0.75 L 27,28 V 27.25 L 27.25,27 Z"
       id="path20748-6" /><path
       style="fill:#2bff2b;fill-opacity:1;stroke-linejoin:bevel"
       d="M 26.75,27.25 27,29 26.25,29.75 26,30.25 V 31.75 32 L 27.25,30.75 28,29.25 27.75,28 Z"
       id="path19801"
       sodipodi:nodetypes="cccccccccc" /><path
       style="fill:#55bf55;fill-opacity:1;stroke-linejoin:bevel"
       d="M 26.75,27.25 V 28.5 L 26,30.25 V 31 32 l 1,-3 z"
       id="path19931" /><path
       style="fill:#6a94aa;fill-opacity:1;stroke-width:1;stroke-linejoin:bevel"
       d="m 26.375,27.796875 -0.25,0.28125 v 0.84375 h 0.5 l 0.25,-0.84375 -0.5,-0.28125"
       id="path20562" /><path
       style="fill:#553f2b;fill-opacity:1;stroke-linejoin:bevel"
       d="m 26.5,28.375 v 0.75 L 26,28.875 v -0.75 l 0.25,-0.25 z"
       id="path20748" /><path
       style="fill:#15ff55;fill-opacity:1;stroke-linejoin:bevel"
       d="m 31,31 c 0.03152,0.06303 -0.583333,-1.166667 -0.75,-1.5 l -0.75,-1 1,0.75 L 31,31"
       id="path22327"
       sodipodi:nodetypes="ccccc" /><path
       style="fill:#15ff6a;fill-opacity:1;stroke-linejoin:bevel"
       d="M 31,25 H 30 L 29.25,25.5 28.75,26 28,26.75 27.5,27 28,26.5 28.5,26 29.25,25.25 29.5,25 30.25,24.75 h 0.25 z"
       id="path22463"
       sodipodi:nodetypes="ccccccccccccc" /><path
       style="fill:#55aa55;fill-opacity:1;stroke-linejoin:bevel"
       d="m 27,27 0.25,-1 1,-1 1.25,-1 -1.5,1.5 -0.75,1 z"
       id="path22561" /><path
       style="fill:#2bff2b;fill-opacity:1;stroke-linejoin:bevel"
       d="m 26.25,26 c 0,-0.25 0.25,-1 0.25,-1 l 0.25,-0.5 0.5,1 v 0.75 l -0.5,-0.25 -0.5,0.5 v -0.75"
       id="path23514" /><path
       style="fill:#55aa6a;fill-opacity:1;stroke-linejoin:bevel"
       d="M 26.5,26.75 26.75,24.5 26.5,25 26.25,26 v 0.75 z"
       id="path23723" /><path
       style="fill:#15ff6a;fill-opacity:1;stroke-linejoin:bevel"
       d="m 26.75,24.5 0.25,0.75 0.25,1 V 25.5 l -0.5,-1"
       id="path23932" /><path
       style="fill:#55aa55;fill-opacity:1;stroke-linejoin:bevel"
       d="m 28.25,27.75 h 1.5 L 30.5,28.25 29,28 Z"
       id="path27553" /><path
       style="fill:#3f3f55;fill-opacity:1;stroke-linejoin:bevel"
       d="M 28.25,27.75 29,28.25 29.5,28.5 29,28 Z"
       id="path27969" /><path
       style="fill:#3f3f55;fill-opacity:1;stroke-linejoin:bevel"
       d="M 26,27 25,26.75 25.5,27 H 26"
       id="path29972" /><path
       style="fill:#3f3f55;fill-opacity:1;stroke-linejoin:bevel"
       d="m 26.25,27.25 -0.5,0.5 h 0.5 z"
       id="path29974" /><path
       style="fill:#3f3f55;fill-opacity:1;stroke-linejoin:bevel"
       d="m 26.25,27 c 0,-0.25 0,-0.5 0,-0.5 L 26.5,27 Z"
       id="path29976" /><path
       style="fill:#3f3f55;fill-opacity:1;stroke-linejoin:bevel"
       d="M 28.25,26.5 H 27.5 l 0.25,0.25 z"
       id="path29978" /><path
       style="fill:#3f3f55;fill-opacity:1;stroke-linejoin:bevel"
       d="M 27.25,26.25 H 27 V 27 Z"
       id="path29980" /><path
       style="fill:#000000;fill-opacity:1;stroke-linejoin:bevel;opacity:0.13678106"
       d="m 27.75,29.75 -0.25,3 -0.25,3.5 0.25,0.75 h 0.25 C 27.238477,36.447551 27.569753,35.506265 27.5,34.75 l 0.25,-3.25 z"
       id="path30097"
       sodipodi:nodetypes="cccccccc" /></g></svg>
