<?xml version="1.0" encoding="UTF-8" standalone="no"?>
<!-- Created with Inkscape (http://www.inkscape.org/) -->

<svg
   width="48"
   height="48"
   viewBox="0 0 48 48"
   version="1.1"
   id="svg5"
   inkscape:version="1.2.2 (b0a8486541, 2022-12-01)"
   sodipodi:docname="folder-music.svg"
   xml:space="preserve"
   xmlns:inkscape="http://www.inkscape.org/namespaces/inkscape"
   xmlns:sodipodi="http://sodipodi.sourceforge.net/DTD/sodipodi-0.dtd"
   xmlns="http://www.w3.org/2000/svg"
   xmlns:svg="http://www.w3.org/2000/svg"><sodipodi:namedview
     id="namedview7"
     pagecolor="#ffffff"
     bordercolor="#000000"
     borderopacity="0.25"
     inkscape:showpageshadow="2"
     inkscape:pageopacity="0.0"
     inkscape:pagecheckerboard="false"
     inkscape:deskcolor="#d1d1d1"
     inkscape:document-units="px"
     showgrid="true"
     inkscape:zoom="32.78339"
     inkscape:cx="31.555614"
     inkscape:cy="20.299914"
     inkscape:window-width="1192"
     inkscape:window-height="747"
     inkscape:window-x="661"
     inkscape:window-y="505"
     inkscape:window-maximized="0"
     inkscape:current-layer="svg5"><inkscape:grid
       type="xygrid"
       id="grid9"
       originx="0"
       originy="0"
       empspacing="2"
       spacingx="0.5"
       spacingy="0.5" /></sodipodi:namedview><defs
     id="defs2"><filter
       inkscape:collect="always"
       style="color-interpolation-filters:sRGB"
       id="filter2104"
       x="-0.10694492"
       y="-0.11202317"
       width="1.2138898"
       height="1.2240463"><feGaussianBlur
         inkscape:collect="always"
         stdDeviation="0.13585353"
         id="feGaussianBlur2106" /></filter><filter
       inkscape:collect="always"
       style="color-interpolation-filters:sRGB"
       id="filter2901"
       x="-0.10750115"
       y="-0.10356165"
       width="1.2150023"
       height="1.2071233"><feGaussianBlur
         inkscape:collect="always"
         stdDeviation="0.22026561"
         id="feGaussianBlur2903" /></filter><filter
       inkscape:collect="always"
       style="color-interpolation-filters:sRGB"
       id="filter4495"
       x="-0.073531898"
       y="-0.037673238"
       width="1.1470638"
       height="1.0753465"><feGaussianBlur
         inkscape:collect="always"
         stdDeviation="0.11063005"
         id="feGaussianBlur4497" /></filter></defs><g
     id="layer2"
     inkscape:label="Outline"
     style="display:inline"
     transform="matrix(3.7795276,0,0,3.7795276,3.6529025e-4,1.6610765e-4)"><path
       style="fill:#000000;fill-opacity:1;stroke:#000000;stroke-width:0.264582;stroke-dasharray:none;stroke-opacity:1"
       d="M 5.5043779,9.3240465 C 5.5790936,9.149008 5.7381655,8.9946439 5.9185433,8.9221406 c 0.1913195,-0.076902 0.4450931,-0.1056474 0.6212481,0 0.1312984,0.078744 0.1716203,0.2561312 0.2070828,0.4019059 0.015859,0.065193 0.026415,0.1390673 0,0.200953 -0.074716,0.1750385 -0.2337878,0.3294026 -0.4141656,0.4019059 -0.1275462,0.051268 -0.2798034,0.03078 -0.4141653,0 -0.150222,-0.034413 -0.3330186,-0.073541 -0.4141654,-0.2009528 -0.072581,-0.1139611 -0.052832,-0.2781351 0,-0.4019061 z"
       id="path468"
       sodipodi:nodetypes="aaaaaaaaa" /><path
       style="fill:#000000;fill-opacity:1;stroke:#000000;stroke-width:0.264582;stroke-dasharray:none;stroke-opacity:1"
       d="M 6.7468747,9.5249995 V 4.7624998"
       id="path1310"
       sodipodi:nodetypes="cc" /><path
       style="fill:#000000;fill-opacity:1;stroke:none;stroke-width:0.264582;stroke-dasharray:none;stroke-opacity:1"
       d="m 6.614583,5.6885414 c 0,0 0.6803054,0.1679678 0.9260416,0.396875 0.2205492,0.2054451 0.3432405,0.5122626 0.4141654,0.8038119 0.047577,0.1955773 0.092611,0.4231214 2e-7,0.6028591 -0.2070826,0.4019059 -0.8283308,0.6028588 -0.8283308,0.6028588 0,0 0.4299286,0.076902 0.621248,0 0.2705666,-0.1087554 0.5091757,-0.3403012 0.621248,-0.6028589 0.1056627,-0.2475419 0.052215,-0.5407092 0,-0.803812 C 8.2986595,6.3340625 8.1451485,5.993345 7.95479,5.683511 7.6787081,5.2341501 6.9193769,4.4777931 6.9193769,4.4777931 L 6.614583,4.2333331 Z"
       id="path1312"
       sodipodi:nodetypes="caascaaaaccc" /><path
       style="opacity:0.1;mix-blend-mode:normal;fill:#000000;fill-opacity:1;stroke:none;stroke-width:0.171583;stroke-dasharray:none;stroke-opacity:1;filter:url(#filter2104)"
       d="m 3.8364583,6.6145832 v 0.9260416 c 0,0 -0.6870214,0.00692 -0.79375,0.2645834 -0.037734,0.091099 0.074637,0.1845913 0.1322916,0.2645833 0.072929,0.1011828 0.1493518,0.2168528 0.2645834,0.2645833 0.2037025,0.084376 0.4468702,0.050657 0.661458,0 C 4.1970079,8.3117202 4.3244222,8.2916666 4.3656247,8.2020832 4.4415984,8.0368996 4.3471012,7.8147418 4.233333,7.6729165 4.1716335,7.596001 3.9687497,7.5406248 3.9687497,7.5406248 H 3.8364583 v -0.79375 c 0,0 0.6817204,0.2708956 0.9260413,0.5291667 0.1355249,0.1432631 0.2384073,0.3337028 0.2645834,0.5291667 0.029845,0.222863 -0.065598,0.4467246 -0.1322917,0.6614583 -0.099613,0.3207212 -0.1360881,0.7144406 -0.396875,0.9260416 -0.1746056,0.141674 -0.4366055,0.1322917 -0.661458,0.1322917 -0.2248526,0 -0.455136,-0.042906 -0.6614584,-0.1322917 C 2.8269227,9.2419099 2.4831897,9.0296344 2.2489582,8.7312498 2.1023263,8.5444572 1.9913503,8.3071598 1.9843749,8.0697915 1.9761827,7.7910165 2.089439,7.5048126 2.2489582,7.2760415 2.4104591,7.0444284 2.6512694,6.8589907 2.9104165,6.7468748 3.1965966,6.6230635 3.8364583,6.6145832 3.8364583,6.6145832 Z"
       id="path2102"
       sodipodi:nodetypes="ccaaaaaacccaaaaaaaaaac"
       transform="matrix(1.5653497,0,0,1.5190146,0.74147552,-2.5321787)" /><path
       style="opacity:0.1;fill:#000000;fill-opacity:1;stroke:none;stroke-width:0.171583;stroke-dasharray:none;stroke-opacity:1;filter:url(#filter2901)"
       d="m 3.8364583,6.0854165 c 0,0 -0.5387671,-0.070626 -0.79375,0 -0.2477989,0.068636 -0.4650101,0.2309736 -0.6614584,0.396875 -0.310612,0.2623132 -0.6526968,0.5447386 -0.79375,0.9260417 -0.1070956,0.2895068 -0.02546,0.6184128 0,0.9260416 0.022124,0.267319 0.00955,0.555246 0.1322917,0.79375 0.1426805,0.2772553 0.3962131,0.4975277 0.6614583,0.6614583 0.2372425,0.146624 0.5184559,0.2199089 0.79375,0.2645839 0.4352781,0.07064 0.9155113,0.168752 1.3229164,0 C 4.8436111,9.910975 5.085685,9.5727951 5.2916663,9.2604165 5.4223918,9.0621661 5.5113421,8.8321442 5.5562496,8.5989582 c 0.083391,-0.4330155 0.1687528,-0.9155115 0,-1.3229167 C 5.4130581,6.9303467 5.0574282,6.7125648 4.7624996,6.4822915 4.5598293,6.3240513 4.3264419,6.2091493 4.1010413,6.0854165 4.0146042,6.0379672 3.8364583,5.9531249 3.8364583,5.9531249 v -0.396875 c 0,0 0.5501068,0.1288605 0.7937497,0.2645833 0.3008769,0.1676053 0.5635526,0.4052794 0.79375,0.6614583 0.2125383,0.2365267 0.4370183,0.4894047 0.5291666,0.79375 0.1405654,0.4642561 0.1405654,0.9909522 0,1.4552083 C 5.8609763,9.0355951 5.6045898,9.2632947 5.423958,9.5249998 5.2084773,9.8371951 5.0922902,10.263596 4.7624996,10.451041 4.3008566,10.71343 3.694115,10.695053 3.1749999,10.583333 2.7311535,10.487812 2.3265391,10.220283 1.9843749,9.9218748 1.6520357,9.6320349 1.3300726,9.2818845 1.1906249,8.8635415 c -0.1115581,-0.3346744 0,-0.7055555 0,-1.0583333 0,-0.1322917 -0.043789,-0.2720408 0,-0.396875 C 1.284088,7.1418903 1.5396926,6.9643409 1.7197916,6.7468748 1.9791073,6.433756 2.1627173,6.0262848 2.5135415,5.8208332 2.7075706,5.7072048 2.9545138,5.7326387 3.1749999,5.6885415 3.395486,5.6444443 3.8364583,5.5562499 3.8364583,5.5562499 Z"
       id="path2899"
       sodipodi:nodetypes="caaaaaaaaaaaaaccaaaaaaaaaaaaaacc"
       transform="matrix(1.5653497,0,0,1.5190146,0.74147552,-2.5321787)" /><path
       style="opacity:0.1;mix-blend-mode:normal;fill:#000000;fill-opacity:1;stroke:none;stroke-width:0.169859;stroke-dasharray:none;stroke-opacity:1;filter:url(#filter4495)"
       d="m 6.5341075,2.1829814 c 0,0 -0.9466172,0.1694205 -1.3423813,0.2579181 C 4.7959622,2.5293974 4.3700685,2.867533 4.1010415,3.0427083 3.8124239,3.2306399 3.4598402,3.6752454 3.2620533,4.0743805 3.053226,4.4957951 2.9448631,4.9776874 2.9264579,5.4499435 c -0.020365,0.5225349 0.055883,1.0645837 0.2516965,1.5475084 0.1444137,0.3561602 0.3861601,0.6736263 0.6583037,0.9400477 0.4564678,0.44687 0.9960843,0.8244594 1.5875,1.0583333 0.2494377,0.09864 0.7108005,0.3873766 0.79375,0.1322917 0.182957,-0.5626264 -1.1075478,-0.44782 -1.5875,-0.79375 C 4.3266597,8.1155893 4.0469168,7.8520771 3.8364581,7.5406246 3.6048964,7.1979423 3.4294834,6.8035756 3.3459521,6.3956431 c -0.080403,-0.392655 -0.051969,-0.8059617 0,-1.2036176 C 3.388276,4.8681701 3.4698372,4.5456751 3.5976486,4.2463259 3.7034016,3.9986399 3.8428401,3.7614972 4.0171427,3.5585444 4.3514313,3.1693086 4.7783148,2.7550922 5.1917262,2.5731912 5.6051377,2.3912901 6.5341075,2.1829814 6.5341075,2.1829814 Z"
       id="path4493"
       sodipodi:nodetypes="cssaaaaaaaaaaaasc"
       transform="matrix(1.5767999,0,0,1.5387638,-3.9529803,1.1388237)" /></g></svg>
