<?xml version="1.0" encoding="UTF-8" standalone="no"?>
<!-- Created with Inkscape (http://www.inkscape.org/) -->

<svg
   width="48"
   height="48"
   viewBox="0 0 48 48"
   version="1.1"
   id="svg5"
   inkscape:version="1.2.2 (b0a8486541, 2022-12-01)"
   sodipodi:docname="folder-public.svg"
   xml:space="preserve"
   xmlns:inkscape="http://www.inkscape.org/namespaces/inkscape"
   xmlns:sodipodi="http://sodipodi.sourceforge.net/DTD/sodipodi-0.dtd"
   xmlns:xlink="http://www.w3.org/1999/xlink"
   xmlns="http://www.w3.org/2000/svg"
   xmlns:svg="http://www.w3.org/2000/svg"><sodipodi:namedview
     id="namedview7"
     pagecolor="#ffffff"
     bordercolor="#000000"
     borderopacity="0.25"
     inkscape:showpageshadow="2"
     inkscape:pageopacity="0.0"
     inkscape:pagecheckerboard="false"
     inkscape:deskcolor="#d1d1d1"
     inkscape:document-units="px"
     showgrid="true"
     inkscape:zoom="64"
     inkscape:cx="14.835937"
     inkscape:cy="27.773437"
     inkscape:window-width="1192"
     inkscape:window-height="747"
     inkscape:window-x="429"
     inkscape:window-y="363"
     inkscape:window-maximized="0"
     inkscape:current-layer="svg5"><inkscape:grid
       type="xygrid"
       id="grid9"
       originx="0"
       originy="0"
       empspacing="2"
       spacingx="0.5"
       spacingy="0.5" /></sodipodi:namedview><defs
     id="defs2"><linearGradient
       inkscape:collect="always"
       id="linearGradient12359"><stop
         style="stop-color:#000000;stop-opacity:1;"
         offset="0"
         id="stop12355" /><stop
         style="stop-color:#404040;stop-opacity:1;"
         offset="1"
         id="stop12357" /></linearGradient><linearGradient
       inkscape:collect="always"
       id="linearGradient4342"><stop
         style="stop-color:#000000;stop-opacity:1;"
         offset="0"
         id="stop4338" /><stop
         style="stop-color:#767676;stop-opacity:1;"
         offset="1"
         id="stop4340" /></linearGradient><linearGradient
       inkscape:collect="always"
       id="linearGradient1938"><stop
         style="stop-color:#fff446;stop-opacity:1;"
         offset="0"
         id="stop1934" /><stop
         style="stop-color:#c8ae00;stop-opacity:1"
         offset="1"
         id="stop1936" /></linearGradient><linearGradient
       inkscape:collect="always"
       xlink:href="#linearGradient1938"
       id="linearGradient1940"
       x1="29"
       y1="24.5"
       x2="29"
       y2="46"
       gradientUnits="userSpaceOnUse"
       gradientTransform="translate(-13.5,-1.5)" /><linearGradient
       inkscape:collect="always"
       xlink:href="#linearGradient4342"
       id="linearGradient4344"
       x1="18"
       y1="45.5"
       x2="18"
       y2="21.5"
       gradientUnits="userSpaceOnUse"
       gradientTransform="translate(-1.5)" /><linearGradient
       inkscape:collect="always"
       xlink:href="#linearGradient12359"
       id="linearGradient7831"
       gradientUnits="userSpaceOnUse"
       gradientTransform="translate(-1.5)"
       x1="18"
       y1="45.5"
       x2="18"
       y2="21.5" /><filter
       inkscape:collect="always"
       style="color-interpolation-filters:sRGB"
       id="filter7837"
       x="-0.056766492"
       y="-0.05646918"
       width="1.1129192"
       height="1.112932"><feGaussianBlur
         inkscape:collect="always"
         stdDeviation="0.27"
         id="feGaussianBlur7839" /></filter></defs><path
     style="opacity:0.5;fill:none;fill-opacity:1;stroke:#000000;stroke-width:1;stroke-linejoin:miter;stroke-miterlimit:5;stroke-dasharray:none;stroke-opacity:0.5;filter:url(#filter7837)"
     d="m 16,22 -12.5,12 12,12 12,-12 z"
     id="path7833"
     sodipodi:nodetypes="ccccc" /><path
     style="fill:url(#linearGradient1940);fill-opacity:1;stroke:url(#linearGradient4344);stroke-width:1;stroke-linejoin:miter;stroke-miterlimit:5;stroke-dasharray:none"
     d="m 15.5,21.5 -12,12 12,12 12,-12 z"
     id="path1355" /><path
     style="fill:none;fill-opacity:1;stroke:url(#linearGradient7831);stroke-width:1;stroke-linejoin:miter;stroke-miterlimit:5;stroke-dasharray:none"
     d="m 15.5,21.5 -12,12 12,12 12,-12 z"
     id="path7827" /><path
     style="opacity:1;fill:#000000;fill-opacity:1;stroke:#000000;stroke-width:0.5;stroke-linecap:round;stroke-linejoin:round;stroke-miterlimit:5;stroke-dasharray:none;stroke-opacity:1"
     d="m 13.5,27 c 0,0 -0.559696,0.632134 -0.5,1 0.07551,0.465317 0.528595,1 1,1 0.471405,0 1,-0.528595 1,-1 0,-0.471405 -1,-1 -1,-1"
     id="path13172"
     sodipodi:nodetypes="caaac" /><path
     style="opacity:1;fill:#000000;fill-opacity:1;stroke:#000000;stroke-width:1;stroke-linecap:round;stroke-linejoin:round;stroke-miterlimit:5;stroke-dasharray:none;stroke-opacity:1"
     d="M 14.5,29.5 14,30.5 13.5,32 12,32.5 13.5,32 14,30.5 l 0.5,-1 v 1 l 1,2.5 v 1 l -1,1 L 14,36 13,38.5 12.5,38 13,38.5 14,36 16,34.5 V 35 l 1.5,1.5 1.5,1 -0.5,1 1,-1 -2,-1 -1,-2 V 33 l -1,-3 0.5,-0.5 1.5,1 1,2 -1,-2 -1.5,-1 h -1.5"
     id="path13615"
     sodipodi:nodetypes="cccccccccccccccccccccccccccccccc" /></svg>
