<?xml version="1.0" encoding="UTF-8" standalone="no"?>
<!-- Created with Inkscape (http://www.inkscape.org/) -->

<svg
   width="48"
   height="48"
   viewBox="0 0 48 48"
   version="1.1"
   id="svg5"
   inkscape:version="1.2.2 (b0a8486541, 2022-12-01)"
   sodipodi:docname="image-bmp.svg"
   xml:space="preserve"
   xmlns:inkscape="http://www.inkscape.org/namespaces/inkscape"
   xmlns:sodipodi="http://sodipodi.sourceforge.net/DTD/sodipodi-0.dtd"
   xmlns:xlink="http://www.w3.org/1999/xlink"
   xmlns="http://www.w3.org/2000/svg"
   xmlns:svg="http://www.w3.org/2000/svg"><sodipodi:namedview
     id="namedview7"
     pagecolor="#ffffff"
     bordercolor="#000000"
     borderopacity="0.58039216"
     inkscape:showpageshadow="0"
     inkscape:pageopacity="0"
     inkscape:pagecheckerboard="0"
     inkscape:deskcolor="#d2d2d2"
     inkscape:document-units="px"
     showgrid="true"
     showborder="true"
     borderlayer="true"
     inkscape:zoom="5.2780317"
     inkscape:cx="-2.652504"
     inkscape:cy="-22.925213"
     inkscape:window-width="1192"
     inkscape:window-height="908"
     inkscape:window-x="418"
     inkscape:window-y="82"
     inkscape:window-maximized="0"
     inkscape:current-layer="layer1"><inkscape:grid
       type="xygrid"
       id="grid1181"
       originx="0"
       originy="0"
       spacingx="0.5"
       spacingy="0.5"
       empspacing="2" /></sodipodi:namedview><defs
     id="defs2"><linearGradient
       inkscape:collect="always"
       id="linearGradient1684"><stop
         style="stop-color:#3e3e3e;stop-opacity:1;"
         offset="0"
         id="stop1680" /><stop
         style="stop-color:#000000;stop-opacity:1;"
         offset="1"
         id="stop1682" /></linearGradient><linearGradient
       inkscape:collect="always"
       xlink:href="#linearGradient1684"
       id="linearGradient1686"
       x1="8"
       y1="-2"
       x2="36"
       y2="26"
       gradientUnits="userSpaceOnUse"
       gradientTransform="translate(-5,9.5)" /></defs><g
     inkscape:label="Layer 1"
     inkscape:groupmode="layer"
     id="layer1"><path
       style="fill:url(#linearGradient1686);fill-opacity:1;stroke:none;stroke-linejoin:bevel"
       d="m 5.5,5 h 15 c 7,0 7,9 0,9 h -15 c -7,0 -7,-9 0,-9 z"
       id="path450"
       sodipodi:nodetypes="ccccc" /><path
       style="fill:none;stroke:#ffffff;stroke-linejoin:bevel;stroke-opacity:1"
       d="M 17.5,12 V 7"
       id="path1830" /><path
       style="fill:none;stroke:#ffffff;stroke-linejoin:bevel;stroke-opacity:1"
       d="m 17.5,7.5 h 2 c 0.5,0 1,0.5 1,1 0,0.5 -0.5,1 -1,1 h -2"
       id="path1832"
       sodipodi:nodetypes="ccccc" /><path
       style="fill:none;stroke:#ffffff;stroke-linejoin:bevel;stroke-miterlimit:3.5"
       d="M 11.5,12 V 7 7.5 l 2,2 2,-2 V 7 12"
       id="path6014" /><path
       style="fill:none;stroke:#ffffff;stroke-linejoin:bevel;stroke-miterlimit:3.5"
       d="M 6.5,12 V 7"
       id="path6016" /><path
       style="fill:none;stroke:#ffffff;stroke-linejoin:bevel;stroke-miterlimit:3.5"
       d="m 6.5,7.5 h 2 c 0.5,0 1,0.5 1,1 0,0.5 -0.5,1 -1,1 h -2 2 c 0.5,0 1,0.5 1,1 0,0.5 -0.5,1 -1,1 h -2"
       id="path6018"
       sodipodi:nodetypes="ccccccccc" /></g></svg>
