<?xml version="1.0" encoding="UTF-8" standalone="no"?>
<!-- Created with Inkscape (http://www.inkscape.org/) -->

<svg
   width="32"
   height="32"
   viewBox="0 0 32 32"
   version="1.1"
   id="svg5"
   inkscape:version="1.2.2 (b0a8486541, 2022-12-01)"
   sodipodi:docname="dialog-error.svg"
   xml:space="preserve"
   xmlns:inkscape="http://www.inkscape.org/namespaces/inkscape"
   xmlns:sodipodi="http://sodipodi.sourceforge.net/DTD/sodipodi-0.dtd"
   xmlns:xlink="http://www.w3.org/1999/xlink"
   xmlns="http://www.w3.org/2000/svg"
   xmlns:svg="http://www.w3.org/2000/svg"><sodipodi:namedview
     id="namedview7"
     pagecolor="#ffffff"
     bordercolor="#000000"
     borderopacity="0.25"
     inkscape:showpageshadow="2"
     inkscape:pageopacity="0.0"
     inkscape:pagecheckerboard="false"
     inkscape:deskcolor="#d1d1d1"
     inkscape:document-units="px"
     showgrid="true"
     inkscape:zoom="46.362715"
     inkscape:cx="14.699312"
     inkscape:cy="16.306206"
     inkscape:window-width="1920"
     inkscape:window-height="1034"
     inkscape:window-x="0"
     inkscape:window-y="22"
     inkscape:window-maximized="1"
     inkscape:current-layer="layer1"><inkscape:grid
       type="xygrid"
       id="grid9"
       originx="0"
       originy="0"
       empspacing="2"
       spacingx="0.5"
       spacingy="0.5" /></sodipodi:namedview><defs
     id="defs2"><linearGradient
       inkscape:collect="always"
       id="linearGradient8977"><stop
         style="stop-color:#dd0000;stop-opacity:1;"
         offset="0"
         id="stop8973" /><stop
         style="stop-color:#b20000;stop-opacity:1;"
         offset="1"
         id="stop8975" /></linearGradient><linearGradient
       inkscape:collect="always"
       xlink:href="#linearGradient8977"
       id="linearGradient8979"
       x1="4"
       y1="4"
       x2="28"
       y2="28"
       gradientUnits="userSpaceOnUse" /></defs><g
     inkscape:label="Layer 1"
     inkscape:groupmode="layer"
     id="layer1"><path
       style="fill:url(#linearGradient8979);stroke:#dd0000;stroke-width:1;stroke-linecap:round;stroke-miterlimit:10.2;stroke-dasharray:none;stroke-opacity:1;fill-opacity:1"
       d="m 8.5,0.5 -8,8 v 15 l 8,8 h 15 l 8,-8 v -15 l -8,-8 z"
       id="path1650" /><path
       style="fill:#ffcc99;fill-opacity:1;stroke:none;stroke-width:1;stroke-linecap:round;stroke-miterlimit:10.2;stroke-dasharray:none;stroke-opacity:1"
       d="m 9,9 -1,1 v 11 l 1,2 v 1 l 2,2 2.5,0.5 h 2 l 3,-0.5 2,-2 0.5,-1.5 1,-2 1,-2 1,-2 L 24.5,16 25,15 V 14 H 24 L 20.5,17.5 19,16 V 7 L 18,6 17,7 v 6.5 l -0.5,1 -0.5,-1 V 5 L 15,4 14,5 v 8.5 l -0.5,1 -0.5,-1 V 7 L 12,6 11,7 v 7.5 l -0.5,1 -0.5,-1 V 10 Z"
       id="path2883"
       sodipodi:nodetypes="cccccccccccccccccccccccccccccccccccccccc" /><path
       style="fill:none;stroke:#990066;stroke-width:1;stroke-linecap:round;stroke-miterlimit:10.2;stroke-dasharray:none;stroke-opacity:1"
       d="m 30.5,7.5 v 16 l -7,7 H 9"
       id="path2395" /><path
       style="fill:none;stroke:#ff66cc;stroke-width:1;stroke-linecap:round;stroke-miterlimit:10.2;stroke-dasharray:none;stroke-opacity:1"
       d="M 23,1.5 H 9.5 l -8,8 V 24"
       id="path2129" /><path
       style="fill:none;stroke:#333366;stroke-width:1;stroke-linecap:round;stroke-miterlimit:10.2;stroke-dasharray:none;stroke-opacity:1"
       d="m 8.5,31.5 h 15 l 8,-8 v -15"
       id="path2870" /><path
       style="fill:none;fill-opacity:1;stroke:#cc9966;stroke-width:1;stroke-linecap:round;stroke-miterlimit:10.2;stroke-dasharray:none;stroke-opacity:1"
       d="m 8.5,19 v 2.5 l 1,3 1.5,2 h 7 l 1,-1 1.5,-1.5 1,-3 1.5,-2.5 1,-2 0.5,-0.5 v -1"
       id="path3245" /><path
       style="fill:none;fill-opacity:1;stroke:#cc9966;stroke-width:1;stroke-linecap:round;stroke-miterlimit:10.2;stroke-dasharray:none;stroke-opacity:1"
       d="m 23.5,14.5 -3,3 H 20 c 0,0 0,-1 -0.5,-1 -0.5,0 -1,-0.5 -1,-0.5"
       id="path3318" /><path
       style="fill:none;fill-opacity:1;stroke:#f2e071;stroke-width:1;stroke-linecap:round;stroke-miterlimit:10.2;stroke-dasharray:none;stroke-opacity:0.50483865"
       d="M 0.5,23 V 8.5 l 8,-8 h 15"
       id="path4572" /><path
       style="fill:none;fill-opacity:1;stroke:#fff0bd;stroke-width:1;stroke-linecap:round;stroke-miterlimit:10.2;stroke-dasharray:none;stroke-opacity:1"
       d="M 9,9.5 8.5,10"
       id="path9174" /><path
       style="fill:none;fill-opacity:1;stroke:#cc9966;stroke-width:1;stroke-linecap:round;stroke-miterlimit:10.2;stroke-dasharray:none;stroke-opacity:1"
       d="M 9,9.5 H 9.5 V 16"
       id="path3310" /><path
       style="fill:none;fill-opacity:1;stroke:#fff0bd;stroke-width:1;stroke-linecap:round;stroke-miterlimit:10.2;stroke-dasharray:none;stroke-opacity:1"
       d="M 12,6.5 11.5,7"
       id="path9515" /><path
       style="fill:none;fill-opacity:1;stroke:#cc9966;stroke-width:1;stroke-linecap:round;stroke-miterlimit:10.2;stroke-dasharray:none;stroke-opacity:1"
       d="m 12,6.5 h 0.5 V 15"
       id="path3312" /><path
       style="fill:none;fill-opacity:1;stroke:#fff0bd;stroke-width:1;stroke-linecap:round;stroke-miterlimit:10.2;stroke-dasharray:none;stroke-opacity:1"
       d="M 15,4.5 14.5,5"
       id="path9517" /><path
       style="fill:none;fill-opacity:1;stroke:#cc9966;stroke-width:1;stroke-linecap:round;stroke-miterlimit:10.2;stroke-dasharray:none;stroke-opacity:1"
       d="m 15,4.5 h 0.5 V 15"
       id="path3314" /><path
       style="fill:none;fill-opacity:1;stroke:#fff0bd;stroke-width:1;stroke-linecap:round;stroke-miterlimit:10.2;stroke-dasharray:none;stroke-opacity:1"
       d="M 18,6.5 17.5,7"
       id="path9519" /><path
       style="fill:none;fill-opacity:1;stroke:#cc9966;stroke-width:1;stroke-linecap:round;stroke-miterlimit:10.2;stroke-dasharray:none;stroke-opacity:1"
       d="m 18,6.5 h 0.5 v 10"
       id="path3316" /><path
       style="fill:none;fill-opacity:1;stroke:#fff0bd;stroke-width:1;stroke-linecap:round;stroke-miterlimit:10.2;stroke-dasharray:none;stroke-opacity:1"
       d="m 11,15 v 0.5"
       id="path9601" /><path
       style="fill:none;fill-opacity:1;stroke:#fff0bd;stroke-width:1;stroke-linecap:round;stroke-miterlimit:10.2;stroke-dasharray:none;stroke-opacity:1"
       d="m 14,14 v 0.5"
       id="path9603" /><path
       style="fill:none;fill-opacity:1;stroke:#fff0bd;stroke-width:1;stroke-linecap:round;stroke-miterlimit:10.2;stroke-dasharray:none;stroke-opacity:1"
       d="M 17,14.5 V 14"
       id="path9605" /><path
       style="fill:none;fill-opacity:1;stroke:#fff0bd;stroke-width:1;stroke-linecap:round;stroke-miterlimit:10.2;stroke-dasharray:none;stroke-opacity:1"
       d="M 19.5,17.5 20,18"
       id="path9607" /></g></svg>
