<?xml version="1.0" encoding="UTF-8" standalone="no"?>
<!-- Created with Inkscape (http://www.inkscape.org/) -->

<svg
   width="32"
   height="32"
   viewBox="0 0 32 32"
   version="1.1"
   id="svg5"
   inkscape:version="1.2.2 (b0a8486541, 2022-12-01)"
   sodipodi:docname="dialog-warning.svg"
   xml:space="preserve"
   xmlns:inkscape="http://www.inkscape.org/namespaces/inkscape"
   xmlns:sodipodi="http://sodipodi.sourceforge.net/DTD/sodipodi-0.dtd"
   xmlns="http://www.w3.org/2000/svg"
   xmlns:svg="http://www.w3.org/2000/svg"><sodipodi:namedview
     id="namedview7"
     pagecolor="#ffffff"
     bordercolor="#000000"
     borderopacity="0.25"
     inkscape:showpageshadow="2"
     inkscape:pageopacity="0.0"
     inkscape:pagecheckerboard="false"
     inkscape:deskcolor="#d1d1d1"
     inkscape:document-units="px"
     showgrid="true"
     inkscape:zoom="32"
     inkscape:cx="10.796875"
     inkscape:cy="25"
     inkscape:window-width="1920"
     inkscape:window-height="1034"
     inkscape:window-x="0"
     inkscape:window-y="22"
     inkscape:window-maximized="1"
     inkscape:current-layer="layer1"><inkscape:grid
       type="xygrid"
       id="grid9"
       originx="0"
       originy="0"
       empspacing="2"
       spacingx="0.5"
       spacingy="0.5" /></sodipodi:namedview><defs
     id="defs2" /><g
     inkscape:label="Layer 1"
     inkscape:groupmode="layer"
     id="layer1"><path
       style="fill:#ffff00;stroke:#000000;stroke-miterlimit:10.2;fill-opacity:1;stroke-linejoin:round"
       d="m 0.5,30.5 1,1 h 29 l 1,-1 L 16.5,1 16,0.5 15.5,1 Z"
       id="path4766" /><path
       style="fill:none;stroke:#888888;stroke-miterlimit:10.2;stroke-opacity:1;stroke-linejoin:round"
       d="M 2,29 16,1.5"
       id="path3091" /><path
       style="fill:none;stroke:#cc9966;stroke-miterlimit:10.2;stroke-opacity:1;stroke-linejoin:round"
       d="M 16,2.5 30,30"
       id="path4611" /><path
       style="fill:none;stroke:#888888;stroke-miterlimit:10.2;stroke-opacity:1;stroke-linejoin:round"
       d="m 16,1.25 15,29.5"
       id="path3731" /><path
       style="fill:none;stroke:#ffffff;stroke-miterlimit:10.2;stroke-opacity:1;stroke-linejoin:round"
       d="M 17,3 4,29"
       id="path3225" /><path
       style="fill:none;stroke:#000000;stroke-miterlimit:10.2;stroke-linejoin:round"
       d="m 0.5,30.5 1,1 h 29 l 1,-1 L 16.5,1 C 16.5,1 16.235702,0.5 16,0.5 15.764298,0.5 15.5,1 15.5,1 Z"
       id="path2376"
       sodipodi:nodetypes="cccccacc" /><path
       style="fill:none;stroke:#000000;stroke-miterlimit:10.2;stroke-linejoin:round"
       d="M 1.5,31.5 V 29"
       id="path2378" /><path
       style="fill:none;stroke:#000000;stroke-miterlimit:10.2;stroke-linejoin:round"
       d="m 30.5,31.5 v -3"
       id="path2380" /><path
       style="fill:none;stroke:#555555;stroke-miterlimit:10.2;stroke-opacity:1;stroke-linejoin:round"
       d="m 2,30.5 c 0.5,0 28,0 28,0"
       id="path2382" /><path
       style="fill:none;stroke:#cc9966;stroke-miterlimit:10.2;stroke-opacity:1;stroke-linejoin:round"
       d="M 2,29.5 H 30"
       id="path2654"
       sodipodi:nodetypes="cc" /><path
       style="fill:#000000;fill-opacity:1;stroke:none;stroke-width:1;stroke-miterlimit:10.2;stroke-opacity:1;stroke-linejoin:round"
       d="m 16,10 -1,0.545455 -1,1.090909 0.5,5.454545 L 15,21.454546 16,22 17,21.454546 17.5,17.090909 18,11.636364 17,10.545455 Z"
       id="path4847"
       sodipodi:nodetypes="ccccccccccc" /><circle
       style="fill:#000000;fill-opacity:1;stroke:none;stroke-miterlimit:10.2;stroke-opacity:1;stroke-linejoin:round"
       id="path5611"
       cx="16"
       cy="26"
       r="2" /></g></svg>
