<?xml version="1.0" encoding="UTF-8" standalone="no"?>
<!-- Created with Inkscape (http://www.inkscape.org/) -->

<svg
   width="32"
   height="32"
   viewBox="0 0 32 32"
   version="1.1"
   id="svg5"
   inkscape:version="1.2.2 (b0a8486541, 2022-12-01)"
   sodipodi:docname="firefox.svg"
   xml:space="preserve"
   xmlns:inkscape="http://www.inkscape.org/namespaces/inkscape"
   xmlns:sodipodi="http://sodipodi.sourceforge.net/DTD/sodipodi-0.dtd"
   xmlns:xlink="http://www.w3.org/1999/xlink"
   xmlns="http://www.w3.org/2000/svg"
   xmlns:svg="http://www.w3.org/2000/svg"><sodipodi:namedview
     id="namedview7"
     pagecolor="#ffffff"
     bordercolor="#000000"
     borderopacity="0.25"
     inkscape:showpageshadow="2"
     inkscape:pageopacity="0.0"
     inkscape:pagecheckerboard="false"
     inkscape:deskcolor="#d1d1d1"
     inkscape:document-units="px"
     showgrid="true"
     inkscape:zoom="23.181357"
     inkscape:cx="17.190538"
     inkscape:cy="16.651311"
     inkscape:window-width="1192"
     inkscape:window-height="976"
     inkscape:window-x="0"
     inkscape:window-y="76"
     inkscape:window-maximized="0"
     inkscape:current-layer="layer1"><inkscape:grid
       type="xygrid"
       id="grid9"
       originx="0"
       originy="0"
       empspacing="2"
       spacingx="0.5"
       spacingy="0.5" /></sodipodi:namedview><defs
     id="defs2"><linearGradient
       inkscape:collect="always"
       id="linearGradient16464"><stop
         style="stop-color:#ffc69b;stop-opacity:1;"
         offset="0"
         id="stop16460" /><stop
         style="stop-color:#ffa25a;stop-opacity:0;"
         offset="1"
         id="stop16462" /></linearGradient><radialGradient
       id="g"
       cx="240.61284"
       cy="36.806652"
       r="170.02094"
       gradientTransform="scale(0.99822767,1.0017755)"
       fx="240.61284"
       fy="36.806652"
       gradientUnits="userSpaceOnUse"><stop
         offset=".1"
         stop-color="#ffe226"
         id="stop1053" /><stop
         offset=".79"
         stop-color="#ff7139"
         id="stop1055" /></radialGradient><radialGradient
       id="c"
       cx="226.56297"
       cy="290.17783"
       r="554.14581"
       gradientTransform="scale(1.1087373,0.9019269)"
       fx="226.56297"
       fy="290.17783"
       gradientUnits="userSpaceOnUse"><stop
         offset=".3"
         stop-color="#960e18"
         id="stop1058" /><stop
         offset=".35"
         stop-color="#b11927"
         stop-opacity=".74"
         id="stop1060" /><stop
         offset=".43"
         stop-color="#db293d"
         stop-opacity=".34"
         id="stop1062" /><stop
         offset=".5"
         stop-color="#f5334b"
         stop-opacity=".09"
         id="stop1064" /><stop
         offset=".53"
         stop-color="#ff3750"
         stop-opacity="0"
         id="stop1066" /></radialGradient><radialGradient
       id="d"
       cx="395.44366"
       cy="-17.973478"
       r="210.2099"
       gradientTransform="scale(0.76747288,1.3029776)"
       fx="395.44366"
       fy="-17.973478"
       gradientUnits="userSpaceOnUse"><stop
         offset=".13"
         stop-color="#fff44f"
         id="stop1069" /><stop
         offset=".53"
         stop-color="#ff980e"
         id="stop1071" /></radialGradient><radialGradient
       id="e"
       cx="206.27052"
       cy="373.24011"
       r="223.4966"
       gradientTransform="scale(0.95519576,1.0469058)"
       fx="206.27052"
       fy="373.24011"
       gradientUnits="userSpaceOnUse"><stop
         offset=".35"
         stop-color="#3a8ee6"
         id="stop1074" /><stop
         offset=".67"
         stop-color="#9059ff"
         id="stop1076" /><stop
         offset="1"
         stop-color="#c139e6"
         id="stop1078" /></radialGradient><radialGradient
       id="f"
       cx="271.62091"
       cy="200.9019"
       r="131.86298"
       gradientTransform="scale(0.95519576,1.0469058)"
       fx="271.62091"
       fy="200.9019"
       gradientUnits="userSpaceOnUse"><stop
         offset=".21"
         stop-color="#9059ff"
         stop-opacity="0"
         id="stop1081" /><stop
         offset=".97"
         stop-color="#6e008b"
         stop-opacity=".6"
         id="stop1083" /></radialGradient><radialGradient
       id="b"
       cx="392.80673"
       cy="61.159756"
       r="554.14581"
       gradientTransform="scale(1.1087373,0.9019269)"
       fx="392.80673"
       fy="61.159756"
       gradientUnits="userSpaceOnUse"><stop
         offset=".13"
         stop-color="#ffbd4f"
         id="stop1086" /><stop
         offset=".28"
         stop-color="#ff980e"
         id="stop1088" /><stop
         offset=".47"
         stop-color="#ff3750"
         id="stop1090" /><stop
         offset=".78"
         stop-color="#eb0878"
         id="stop1092" /><stop
         offset=".86"
         stop-color="#e50080"
         id="stop1094" /></radialGradient><radialGradient
       id="h"
       cx="362.07501"
       cy="-81.709213"
       r="742.3869"
       gradientTransform="scale(1.0914501,0.91621229)"
       fx="362.07501"
       fy="-81.709213"
       gradientUnits="userSpaceOnUse"><stop
         offset=".11"
         stop-color="#fff44f"
         id="stop1097" /><stop
         offset=".46"
         stop-color="#ff980e"
         id="stop1099" /><stop
         offset=".72"
         stop-color="#ff3647"
         id="stop1101" /><stop
         offset=".9"
         stop-color="#e31587"
         id="stop1103" /></radialGradient><radialGradient
       id="i"
       cx="475.58807"
       cy="-41.588268"
       r="779.90863"
       gradientTransform="scale(0.68818401,1.4530997)"
       fx="475.58807"
       fy="-41.588268"
       gradientUnits="userSpaceOnUse"><stop
         offset="0"
         stop-color="#fff44f"
         id="stop1106" /><stop
         offset=".3"
         stop-color="#ff980e"
         id="stop1108" /><stop
         offset=".57"
         stop-color="#ff3647"
         id="stop1110" /><stop
         offset=".74"
         stop-color="#e31587"
         id="stop1112" /></radialGradient><radialGradient
       id="j"
       cx="239.79736"
       cy="99.006172"
       r="461.1138"
       gradientTransform="scale(1.008901,0.9911775)"
       fx="239.79736"
       fy="99.006172"
       gradientUnits="userSpaceOnUse"><stop
         offset=".14"
         stop-color="#fff44f"
         id="stop1115" /><stop
         offset=".48"
         stop-color="#ff980e"
         id="stop1117" /><stop
         offset=".66"
         stop-color="#ff3647"
         id="stop1119" /><stop
         offset=".9"
         stop-color="#e31587"
         id="stop1121" /></radialGradient><radialGradient
       id="k"
       cx="343.03802"
       cy="132.0125"
       r="528.89331"
       gradientTransform="scale(1.0572577,0.94584319)"
       fx="343.03802"
       fy="132.0125"
       gradientUnits="userSpaceOnUse"><stop
         offset=".09"
         stop-color="#fff44f"
         id="stop1124" /><stop
         offset=".63"
         stop-color="#ff980e"
         id="stop1126" /></radialGradient><linearGradient
       id="a"
       x1="441.98419"
       y1="75.63131"
       x2="62.126282"
       y2="454.26938"
       gradientTransform="scale(0.98374383,1.0165248)"
       gradientUnits="userSpaceOnUse"><stop
         offset=".05"
         stop-color="#fff44f"
         id="stop1129" /><stop
         offset=".37"
         stop-color="#ff980e"
         id="stop1131" /><stop
         offset=".53"
         stop-color="#ff3647"
         id="stop1133" /><stop
         offset=".7"
         stop-color="#e31587"
         id="stop1135" /></linearGradient><linearGradient
       id="l"
       x1="406.61136"
       y1="68.311989"
       x2="104.09252"
       y2="409.86551"
       gradientTransform="scale(0.98373973,1.016529)"
       gradientUnits="userSpaceOnUse"><stop
         offset=".17"
         stop-color="#fff44f"
         stop-opacity=".8"
         id="stop1138" /><stop
         offset=".6"
         stop-color="#fff44f"
         stop-opacity="0"
         id="stop1140" /></linearGradient><linearGradient
       inkscape:collect="always"
       xlink:href="#linearGradient16464"
       id="linearGradient16466"
       x1="1.190625"
       y1="4.2333331"
       x2="1.7197915"
       y2="7.5406246"
       gradientUnits="userSpaceOnUse"
       gradientTransform="matrix(0.6373747,0,0,0.63651002,0.00573985,0.33490312)" /><filter
       inkscape:collect="always"
       style="color-interpolation-filters:sRGB"
       id="filter16967"
       x="-0.31417232"
       y="-0.33147662"
       width="1.6283446"
       height="1.6629532"><feGaussianBlur
         inkscape:collect="always"
         stdDeviation="0.43821611"
         id="feGaussianBlur16969" /></filter></defs><g
     inkscape:label="Layer 1"
     inkscape:groupmode="layer"
     id="layer1"><g
       id="g306"
       transform="matrix(3.7795275,0,0,3.7795275,0.20786067,-0.33358234)"><path
         style="display:inline;opacity:0.534;fill:#000000;fill-opacity:1;stroke:none;stroke-width:0.278178;stroke-opacity:0.628351;filter:url(#filter16967)"
         d="M 6.1511752,8.0543068 7.453014,7.6837776 V 7.3132484 L 6.0581867,6.6648223 6.3499999,5.1593745 4.1054285,8.3322037 Z"
         id="path16902"
         transform="matrix(0.90677201,0,0,0.90902383,0.44663403,0.65206109)"
         sodipodi:nodetypes="ccccccc" /><ellipse
         style="opacity:1;fill:none;stroke:#000000;stroke-width:0.529167;stroke-miterlimit:7.6;stroke-dasharray:none;stroke-opacity:1"
         id="path1811"
         cx="3.9687493"
         cy="4.4188442"
         rx="1.8550258"
         ry="1.8104067" /><path
         style="opacity:1;fill:none;stroke:#000000;stroke-width:0.264583;stroke-miterlimit:7.6;stroke-dasharray:none;stroke-opacity:1"
         d="m 6.5826495,1.9347975 c 0.3988945,0.621642 0.307198,0.9156397 0.4215966,1.3472794"
         id="path6100"
         sodipodi:nodetypes="cc" /><g
         id="g1236"
         transform="matrix(0.01580976,0,0,0.0156187,-0.07851439,0.5032927)"
         style="stroke-width:16.8374"><path
           d="m 478.711,166.353 c -10.445,-25.124 -31.6,-52.248 -48.212,-60.821 13.52,26.505 21.345,53.093 24.335,72.936 0,0.039 0.015,0.136 0.047,0.4 C 427.706,111.135 381.627,83.823 344,24.355 c -1.9,-3.007 -3.805,-6.022 -5.661,-9.2 a 73.716,73.716 0 0 1 -2.646,-4.972 43.7,43.7 0 0 1 -3.593,-9.506 0.626,0.626 0 0 0 -0.546,-0.644 0.818,0.818 0 0 0 -0.451,0 c -0.034,0.012 -0.084,0.051 -0.12,0.065 -0.053,0.021 -0.12,0.069 -0.176,0.1 0.027,-0.036 0.083,-0.117 0.1,-0.136 -60.37,35.356 -80.85,100.761 -82.732,133.484 a 120.249,120.249 0 0 0 -66.142,25.488 71.355,71.355 0 0 0 -6.225,-4.7 111.338,111.338 0 0 1 -0.674,-58.732 c -24.688,11.241 -43.89,29.01 -57.85,44.7 h -0.111 c -9.527,-12.067 -8.855,-51.873 -8.312,-60.184 -0.114,-0.515 -7.107,3.63 -8.023,4.255 a 175.073,175.073 0 0 0 -23.486,20.12 210.478,210.478 0 0 0 -22.442,26.913 c 0,0.012 -0.007,0.026 -0.011,0.038 0,-0.013 0.007,-0.026 0.011,-0.038 a 202.838,202.838 0 0 0 -32.247,72.805 c -0.115,0.521 -0.212,1.061 -0.324,1.586 -0.452,2.116 -2.08,12.7 -2.365,15 -0.022,0.177 -0.032,0.347 -0.053,0.524 a 229.066,229.066 0 0 0 -3.9,33.157 c 0,0.41 -0.025,0.816 -0.025,1.227 C 16,388.418 123.6,496 256.324,496 c 118.865,0 217.56,-86.288 236.882,-199.63 0.407,-3.076 0.733,-6.168 1.092,-9.271 4.777,-41.21 -0.53,-84.525 -15.587,-120.746 z M 201.716,354.447 c 1.124,0.537 2.18,1.124 3.334,1.639 0.048,0.033 0.114,0.07 0.163,0.1 a 126.191,126.191 0 0 1 -3.497,-1.739 z m 55.053,-144.93 z m 198.131,-30.59 -0.032,-0.233 c 0.012,0.085 0.027,0.174 0.04,0.259 z"
           fill="url(#a)"
           id="path1145"
           style="fill:url(#a);stroke-width:168.374" /><path
           d="m 478.711,166.353 c -10.445,-25.124 -31.6,-52.248 -48.212,-60.821 13.52,26.505 21.345,53.093 24.335,72.936 0,-0.058 0.011,0.048 0.036,0.226 0.012,0.085 0.027,0.174 0.04,0.259 22.675,61.47 10.322,123.978 -7.479,162.175 -27.539,59.1 -94.215,119.67 -198.576,116.716 C 136.1,454.651 36.766,370.988 18.223,261.41 c -3.379,-17.28 0,-26.054 1.7,-40.084 -2.071,10.816 -2.86,13.94 -3.9,33.157 0,0.41 -0.025,0.816 -0.025,1.227 C 16,388.418 123.6,496 256.324,496 c 118.865,0 217.56,-86.288 236.882,-199.63 0.407,-3.076 0.733,-6.168 1.092,-9.271 4.777,-41.21 -0.53,-84.525 -15.587,-120.746 z"
           fill="url(#b)"
           id="path1147"
           style="fill:url(#b);stroke-width:168.374" /><path
           d="m 478.711,166.353 c -10.445,-25.124 -31.6,-52.248 -48.212,-60.821 13.52,26.505 21.345,53.093 24.335,72.936 0,-0.058 0.011,0.048 0.036,0.226 0.012,0.085 0.027,0.174 0.04,0.259 22.675,61.47 10.322,123.978 -7.479,162.175 -27.539,59.1 -94.215,119.67 -198.576,116.716 C 136.1,454.651 36.766,370.988 18.223,261.41 c -3.379,-17.28 0,-26.054 1.7,-40.084 -2.071,10.816 -2.86,13.94 -3.9,33.157 0,0.41 -0.025,0.816 -0.025,1.227 C 16,388.418 123.6,496 256.324,496 c 118.865,0 217.56,-86.288 236.882,-199.63 0.407,-3.076 0.733,-6.168 1.092,-9.271 4.777,-41.21 -0.53,-84.525 -15.587,-120.746 z"
           fill="url(#c)"
           id="path1149"
           style="fill:url(#c);stroke-width:168.374" /><path
           d="m 361.922,194.6 c 0.524,0.368 1,0.734 1.493,1.1 a 130.706,130.706 0 0 0 -22.31,-29.112 C 266.4,91.892 321.516,4.626 330.811,0.194 c 0.027,-0.036 0.083,-0.117 0.1,-0.136 -60.37,35.356 -80.85,100.761 -82.732,133.484 2.8,-0.194 5.592,-0.429 8.442,-0.429 45.051,0 84.289,24.77 105.301,61.487 z"
           fill="url(#d)"
           id="path1151"
           style="fill:url(#d);stroke-width:168.374" /><path
           d="m 256.772,209.514 c -0.393,5.978 -21.514,26.593 -28.9,26.593 -68.339,0 -79.432,41.335 -79.432,41.335 3.027,34.81 27.261,63.475 56.611,78.643 1.339,0.692 2.694,1.317 4.05,1.935 a 132.768,132.768 0 0 0 7.059,2.886 106.743,106.743 0 0 0 31.271,6.031 c 119.78,5.618 142.986,-143.194 56.545,-186.408 22.137,-3.85 45.115,5.053 57.947,14.067 -21.012,-36.714 -60.25,-61.484 -105.3,-61.484 -2.85,0 -5.641,0.235 -8.442,0.429 a 120.249,120.249 0 0 0 -66.142,25.488 c 3.664,3.1 7.8,7.244 16.514,15.828 16.302,16.067 58.13,32.705 58.219,34.657 z"
           fill="url(#e)"
           id="path1153"
           style="fill:url(#e);stroke-width:168.374" /><path
           d="m 256.772,209.514 c -0.393,5.978 -21.514,26.593 -28.9,26.593 -68.339,0 -79.432,41.335 -79.432,41.335 3.027,34.81 27.261,63.475 56.611,78.643 1.339,0.692 2.694,1.317 4.05,1.935 a 132.768,132.768 0 0 0 7.059,2.886 106.743,106.743 0 0 0 31.271,6.031 c 119.78,5.618 142.986,-143.194 56.545,-186.408 22.137,-3.85 45.115,5.053 57.947,14.067 -21.012,-36.714 -60.25,-61.484 -105.3,-61.484 -2.85,0 -5.641,0.235 -8.442,0.429 a 120.249,120.249 0 0 0 -66.142,25.488 c 3.664,3.1 7.8,7.244 16.514,15.828 16.302,16.067 58.13,32.705 58.219,34.657 z"
           fill="url(#f)"
           id="path1155"
           style="fill:url(#f);stroke-width:168.374" /><path
           d="m 170.829,151.036 a 244.042,244.042 0 0 1 4.981,3.3 111.338,111.338 0 0 1 -0.674,-58.732 c -24.688,11.241 -43.89,29.01 -57.85,44.7 1.155,-0.033 36.014,-0.66 53.543,10.732 z"
           fill="url(#g)"
           id="path1157"
           style="fill:url(#g);stroke-width:168.374" /><path
           d="m 18.223,261.41 c 18.543,109.578 117.877,193.241 230.632,196.434 104.361,2.954 171.037,-57.62 198.576,-116.716 17.8,-38.2 30.154,-100.7 7.479,-162.175 l -0.008,-0.026 -0.032,-0.233 c -0.025,-0.178 -0.04,-0.284 -0.036,-0.226 0,0.039 0.015,0.136 0.047,0.4 8.524,55.661 -19.79,109.584 -64.051,146.044 l -0.133,0.313 c -86.245,70.223 -168.774,42.368 -185.484,30.966 a 144.108,144.108 0 0 1 -3.5,-1.743 c -50.282,-24.029 -71.054,-69.838 -66.6,-109.124 -42.457,0 -56.934,-35.809 -56.934,-35.809 0,0 38.119,-27.179 88.358,-3.541 46.53,21.893 90.228,3.543 90.233,3.541 -0.089,-1.952 -41.917,-18.59 -58.223,-34.656 -8.713,-8.584 -12.85,-12.723 -16.514,-15.828 a 71.355,71.355 0 0 0 -6.225,-4.7 282.929,282.929 0 0 0 -4.981,-3.3 c -17.528,-11.392 -52.388,-10.765 -53.543,-10.735 h -0.111 c -9.527,-12.067 -8.855,-51.873 -8.312,-60.184 -0.114,-0.515 -7.107,3.63 -8.023,4.255 a 175.073,175.073 0 0 0 -23.486,20.12 210.478,210.478 0 0 0 -22.442,26.919 c 0,0.012 -0.007,0.026 -0.011,0.038 0,-0.013 0.007,-0.026 0.011,-0.038 a 202.838,202.838 0 0 0 -32.247,72.805 c -0.115,0.521 -8.65,37.842 -4.44,57.199 z"
           fill="url(#h)"
           id="path1159"
           style="fill:url(#h);stroke-width:168.374" /><path
           d="m 341.105,166.587 a 130.706,130.706 0 0 1 22.31,29.112 c 1.323,0.994 2.559,1.985 3.608,2.952 54.482,50.2 25.936,121.2 23.807,126.26 44.261,-36.46 72.575,-90.383 64.051,-146.044 C 427.706,111.135 381.627,83.823 344,24.355 c -1.9,-3.007 -3.805,-6.022 -5.661,-9.2 a 73.716,73.716 0 0 1 -2.646,-4.972 43.7,43.7 0 0 1 -3.593,-9.506 0.626,0.626 0 0 0 -0.546,-0.644 0.818,0.818 0 0 0 -0.451,0 c -0.034,0.012 -0.084,0.051 -0.12,0.065 -0.053,0.021 -0.12,0.069 -0.176,0.1 -9.291,4.428 -64.407,91.694 10.298,166.389 z"
           fill="url(#i)"
           id="path1161"
           style="fill:url(#i);stroke-width:168.374" /><path
           d="m 367.023,198.651 c -1.049,-0.967 -2.285,-1.958 -3.608,-2.952 -0.489,-0.368 -0.969,-0.734 -1.493,-1.1 -12.832,-9.014 -35.81,-17.917 -57.947,-14.067 86.441,43.214 63.235,192.026 -56.545,186.408 a 106.743,106.743 0 0 1 -31.271,-6.031 134.51,134.51 0 0 1 -7.059,-2.886 c -1.356,-0.618 -2.711,-1.243 -4.05,-1.935 0.048,0.033 0.114,0.07 0.163,0.1 16.71,11.4 99.239,39.257 185.484,-30.966 l 0.133,-0.313 c 2.129,-5.054 30.675,-76.057 -23.807,-126.258 z"
           fill="url(#j)"
           id="path1163"
           style="fill:url(#j);stroke-width:168.374" /><path
           d="m 148.439,277.443 c 0,0 11.093,-41.335 79.432,-41.335 7.388,0 28.509,-20.615 28.9,-26.593 0.391,-5.978 -43.7,18.352 -90.233,-3.541 -50.239,-23.638 -88.358,3.541 -88.358,3.541 0,0 14.477,35.809 56.934,35.809 -4.453,39.286 16.319,85.1 66.6,109.124 1.124,0.537 2.18,1.124 3.334,1.639 -29.348,-15.169 -53.582,-43.834 -56.609,-78.644 z"
           fill="url(#k)"
           id="path1165"
           style="fill:url(#k);stroke-width:168.374" /><path
           d="m 478.711,166.353 c -10.445,-25.124 -31.6,-52.248 -48.212,-60.821 13.52,26.505 21.345,53.093 24.335,72.936 0,0.039 0.015,0.136 0.047,0.4 C 427.706,111.135 381.627,83.823 344,24.355 c -1.9,-3.007 -3.805,-6.022 -5.661,-9.2 a 73.716,73.716 0 0 1 -2.646,-4.972 43.7,43.7 0 0 1 -3.593,-9.506 0.626,0.626 0 0 0 -0.546,-0.644 0.818,0.818 0 0 0 -0.451,0 c -0.034,0.012 -0.084,0.051 -0.12,0.065 -0.053,0.021 -0.12,0.069 -0.176,0.1 0.027,-0.036 0.083,-0.117 0.1,-0.136 -60.37,35.356 -80.85,100.761 -82.732,133.484 2.8,-0.194 5.592,-0.429 8.442,-0.429 45.053,0 84.291,24.77 105.3,61.484 -12.832,-9.014 -35.81,-17.917 -57.947,-14.067 86.441,43.214 63.235,192.026 -56.545,186.408 a 106.743,106.743 0 0 1 -31.271,-6.031 134.51,134.51 0 0 1 -7.059,-2.886 c -1.356,-0.618 -2.711,-1.243 -4.05,-1.935 0.048,0.033 0.114,0.07 0.163,0.1 a 144.108,144.108 0 0 1 -3.5,-1.743 c 1.124,0.537 2.18,1.124 3.334,1.639 -29.35,-15.168 -53.584,-43.833 -56.611,-78.643 0,0 11.093,-41.335 79.432,-41.335 7.388,0 28.509,-20.615 28.9,-26.593 -0.089,-1.952 -41.917,-18.59 -58.223,-34.656 -8.713,-8.584 -12.85,-12.723 -16.514,-15.828 a 71.355,71.355 0 0 0 -6.225,-4.7 111.338,111.338 0 0 1 -0.674,-58.732 c -24.688,11.241 -43.89,29.01 -57.85,44.7 h -0.111 c -9.527,-12.067 -8.855,-51.873 -8.312,-60.184 -0.114,-0.515 -7.107,3.63 -8.023,4.255 A 175.073,175.073 0 0 0 77.345,104.49 210.478,210.478 0 0 0 54.91,131.406 c 0,0.012 -0.007,0.026 -0.011,0.038 0,-0.013 0.007,-0.026 0.011,-0.038 a 202.838,202.838 0 0 0 -32.247,72.805 c -0.115,0.521 -0.212,1.061 -0.324,1.586 -0.452,2.116 -2.486,12.853 -2.77,15.156 -0.022,0.177 0.021,-0.176 0,0 a 279.565,279.565 0 0 0 -3.544,33.53 c 0,0.41 -0.025,0.816 -0.025,1.227 C 16,388.418 123.6,496 256.324,496 c 118.865,0 217.56,-86.288 236.882,-199.63 0.407,-3.076 0.733,-6.168 1.092,-9.271 4.777,-41.21 -0.53,-84.525 -15.587,-120.746 z m -23.841,12.341 c 0.012,0.085 0.027,0.174 0.04,0.259 l -0.008,-0.026 z"
           fill="url(#l)"
           id="path1167"
           style="fill:url(#l);stroke-width:168.374" /></g><path
         style="opacity:1;fill:none;stroke:url(#linearGradient16466);stroke-width:0.264583;stroke-linecap:round;stroke-miterlimit:7.6;stroke-dasharray:none;stroke-opacity:0.632969"
         d="M 1.6078077,1.7663876 C 0.51165595,2.6926423 0.09005923,3.7873069 0.2586979,4.8819714"
         id="path16435"
         sodipodi:nodetypes="cc" /><path
         style="opacity:1;fill:none;stroke:#000000;stroke-width:0.264583;stroke-miterlimit:7.6;stroke-dasharray:none;stroke-opacity:1"
         id="path2489"
         sodipodi:type="arc"
         sodipodi:cx="3.9687498"
         sodipodi:cy="4.3767409"
         sodipodi:rx="3.8786905"
         sodipodi:ry="3.9576335"
         sodipodi:start="0"
         sodipodi:end="3.1415927"
         sodipodi:arc-type="arc"
         d="M 7.8474402,4.3767409 A 3.8786905,3.9576335 0 0 1 5.908095,7.8041521 3.8786905,3.9576335 0 0 1 2.0294044,7.804152 3.8786905,3.9576335 0 0 1 0.09005928,4.3767409"
         sodipodi:open="true" /><path
         style="opacity:1;fill:none;stroke:#000000;stroke-width:0.264583;stroke-miterlimit:7.6;stroke-dasharray:none;stroke-opacity:1"
         id="path2540"
         sodipodi:type="arc"
         sodipodi:cx="4.1708479"
         sodipodi:cy="4.5461845"
         sodipodi:rx="4.0807886"
         sodipodi:ry="3.8638682"
         sodipodi:start="3.1402569"
         sodipodi:end="3.5603068"
         sodipodi:arc-type="arc"
         d="M 0.09006292,4.5513457 A 4.0807886,3.8638682 0 0 1 0.44258838,2.9751897"
         sodipodi:open="true" /><path
         style="opacity:1;fill:none;stroke:#000000;stroke-width:0.264583;stroke-miterlimit:7.6;stroke-dasharray:none;stroke-opacity:1"
         id="path2594"
         sodipodi:type="arc"
         sodipodi:cx="4.1708479"
         sodipodi:cy="4.4222813"
         sodipodi:rx="4.0807886"
         sodipodi:ry="3.5550687"
         sodipodi:start="3.5589911"
         sodipodi:end="4.0649714"
         sodipodi:arc-type="arc"
         d="M 0.44040861,2.9811146 A 4.0807886,3.5550687 0 0 1 1.7096077,1.5866021"
         sodipodi:open="true" /><path
         style="opacity:1;fill:none;stroke:#000000;stroke-width:0.264583;stroke-miterlimit:7.6;stroke-dasharray:none;stroke-opacity:1"
         id="path2596"
         sodipodi:type="arc"
         sodipodi:cx="3.9687498"
         sodipodi:cy="4.3684816"
         sodipodi:rx="3.8786905"
         sodipodi:ry="3.1325283"
         sodipodi:start="6.1073391"
         sodipodi:end="0.05253698"
         sodipodi:arc-type="arc"
         d="m 7.7876264,3.8204729 a 3.8786905,3.1325283 0 0 1 0.054462,0.7125066"
         sodipodi:open="true" /><path
         style="opacity:1;fill:none;stroke:#000000;stroke-width:0.264583;stroke-miterlimit:7.6;stroke-dasharray:none;stroke-opacity:1"
         d="M 1.7764463,2.6926422 C 1.7027545,2.381807 1.6589874,1.9697091 1.6921271,1.5979777"
         id="path3578"
         sodipodi:nodetypes="cc" /><path
         style="opacity:1;fill:none;stroke:#000000;stroke-width:0.264583;stroke-miterlimit:7.6;stroke-dasharray:none;stroke-opacity:1"
         d="M 2.7039593,1.9347975 C 2.3399121,2.1586083 2.0301064,2.3831464 1.7764463,2.6084372"
         id="path3629"
         sodipodi:nodetypes="cc" /><path
         style="opacity:1;fill:none;stroke:#000000;stroke-width:0.264583;stroke-miterlimit:7.6;stroke-dasharray:none;stroke-opacity:1"
         d="m 2.7039593,1.9347975 c -0.1120079,0.2242503 -0.1128428,0.4760261 0,0.9262547"
         id="path3631"
         sodipodi:nodetypes="cc" /><path
         style="opacity:1;fill:none;stroke:#cc591d;stroke-width:0.15875;stroke-miterlimit:7.6;stroke-dasharray:none;stroke-opacity:1"
         d="M 1.7764464,2.6926423 C 2.4510012,2.6084373 2.7882787,2.9452571 3.1255561,3.282077 3.4278957,3.4845265 3.7397994,3.6393199 4.0530691,3.7873069"
         id="path6986"
         sodipodi:nodetypes="ccc" /><path
         style="opacity:1;fill:none;stroke:#000000;stroke-width:0.264583;stroke-miterlimit:7.6;stroke-dasharray:none;stroke-opacity:1"
         id="path4361"
         sodipodi:type="arc"
         sodipodi:cx="3.9687498"
         sodipodi:cy="4.4157848"
         sodipodi:rx="3.8786905"
         sodipodi:ry="3.4148555"
         sodipodi:start="5.4626226"
         sodipodi:end="6.1148443"
         sodipodi:arc-type="arc"
         d="M 6.6132785,1.917717 A 3.8786905,3.4148555 0 0 1 7.7926114,3.8436359"
         sodipodi:open="true" /><path
         style="opacity:1;fill:none;stroke:#cc831d;stroke-width:0.0529167;stroke-linecap:round;stroke-miterlimit:7.6;stroke-dasharray:none;stroke-opacity:1"
         d="m 7.0885657,3.1978719 c 0.3493526,1.0907088 0.1686391,1.8525095 0,2.4419442"
         id="path11377"
         sodipodi:nodetypes="cc" /><path
         style="opacity:1;fill:none;stroke:#000000;stroke-width:0.264583;stroke-miterlimit:7.6;stroke-dasharray:none;stroke-opacity:1"
         d="M 3.800111,2.5242323 C 4.0365663,1.3199301 4.5342945,0.73140996 5.1492205,0.41910808 5.3931095,0.88159923 5.7542437,1.3625084 6.161053,1.8505925 6.6218187,2.3938638 6.946855,2.8528136 7.0885657,3.197872"
         id="path6098"
         sodipodi:nodetypes="cccc" /><path
         style="opacity:1;fill:none;stroke:#cc921d;stroke-width:0.0529167;stroke-linecap:round;stroke-miterlimit:7.6;stroke-dasharray:none;stroke-opacity:1"
         d="M 4.7276239,3.3241797 C 5.4864982,3.197872 6.3296917,3.7873069 6.2453723,5.0503814"
         id="path10424"
         sodipodi:nodetypes="cc" /></g></g></svg>
