<?xml version="1.0" encoding="UTF-8" standalone="no"?>
<!-- Created with Inkscape (http://www.inkscape.org/) -->

<svg
   width="32"
   height="32"
   viewBox="0 0 8.4666667 8.4666667"
   version="1.1"
   id="svg5"
   inkscape:version="1.2.2 (b0a8486541, 2022-12-01)"
   sodipodi:docname="lollypop.svg"
   xml:space="preserve"
   xmlns:inkscape="http://www.inkscape.org/namespaces/inkscape"
   xmlns:sodipodi="http://sodipodi.sourceforge.net/DTD/sodipodi-0.dtd"
   xmlns:xlink="http://www.w3.org/1999/xlink"
   xmlns="http://www.w3.org/2000/svg"
   xmlns:svg="http://www.w3.org/2000/svg"><sodipodi:namedview
     id="namedview7"
     pagecolor="#ffffff"
     bordercolor="#000000"
     borderopacity="0.25"
     inkscape:showpageshadow="2"
     inkscape:pageopacity="0.0"
     inkscape:pagecheckerboard="false"
     inkscape:deskcolor="#d1d1d1"
     inkscape:document-units="px"
     showgrid="true"
     inkscape:zoom="28.708333"
     inkscape:cx="6.25254"
     inkscape:cy="23.09434"
     inkscape:window-width="2880"
     inkscape:window-height="1574"
     inkscape:window-x="0"
     inkscape:window-y="22"
     inkscape:window-maximized="1"
     inkscape:current-layer="g1142"><inkscape:grid
       type="xygrid"
       id="grid9"
       originx="0"
       originy="0"
       empspacing="2"
       spacingx="0.13229166"
       spacingy="0.13229166" /></sodipodi:namedview><defs
     id="defs2"><linearGradient
       inkscape:collect="always"
       id="linearGradient10863"><stop
         style="stop-color:#ffffff;stop-opacity:0.75407618;"
         offset="0"
         id="stop10859" /><stop
         style="stop-color:#ffffff;stop-opacity:0;"
         offset="1"
         id="stop10861" /></linearGradient><filter
       inkscape:collect="always"
       style="color-interpolation-filters:sRGB"
       id="filter16967"
       x="-0.31417232"
       y="-0.33147662"
       width="1.6283446"
       height="1.6629532"><feGaussianBlur
         inkscape:collect="always"
         stdDeviation="0.43821611"
         id="feGaussianBlur16969" /></filter><linearGradient
       inkscape:collect="always"
       xlink:href="#linearGradient10863"
       id="linearGradient10865"
       x1="52.500149"
       y1="48.5"
       x2="62.500149"
       y2="68.5"
       gradientUnits="userSpaceOnUse"
       gradientTransform="matrix(0.69958214,0,0,0.70731724,11.926368,9.7316997)" /></defs><g
     style="display:inline;enable-background:new"
     id="g1142"
     transform="matrix(0.26458333,0,0,0.26458333,-10.583373,-10.31875)"><path
       style="display:inline;opacity:0.49015269;fill:#000000;fill-opacity:1;stroke:none;stroke-width:0.247894;stroke-opacity:0.628351;filter:url(#filter16967)"
       d="M 6.1511752,8.0543068 7.453014,7.6837776 V 7.3132484 L 6.0581867,6.6648223 6.3499999,5.1593745 4.1054285,8.3322037 Z"
       id="path16902"
       transform="matrix(3.8468244,0,0,3.8544227,40.337659,37.955296)"
       sodipodi:nodetypes="ccccccc" /><circle
       style="fill:#7b1c1c;fill-opacity:1;stroke:#000000;stroke-width:0.999998;stroke-miterlimit:7.6"
       id="path3169"
       cx="56.000153"
       cy="55.000004"
       r="15.500001" /><g
       id="layer1"
       inkscape:label="Icon"
       style="display:inline;stroke-width:4.0017"
       transform="matrix(0.2497866,0,0,0.24999997,40.013808,-3.9999928)"><g
         inkscape:groupmode="layer"
         id="layer2"
         inkscape:label="baseplate"
         style="display:none;stroke-width:4.0017"
         sodipodi:insensitive="true"><text
           xml:space="preserve"
           style="font-style:normal;font-variant:normal;font-weight:normal;font-stretch:normal;font-size:5.33333px;line-height:125%;font-family:Cantarell;-inkscape-font-specification:'Cantarell, Normal';text-align:start;writing-mode:lr-tb;text-anchor:start;display:inline;fill:#000000;fill-opacity:1;stroke:none;stroke-width:1.33116;enable-background:new"
           x="7.9499588"
           y="148.65199"
           id="context"
           inkscape:label="context"><tspan
             sodipodi:role="line"
             id="tspan2716"
             x="7.9499588"
             y="148.65199"
             style="font-size:5.33333px;stroke-width:1.33116">apps</tspan></text><text
           inkscape:label="icon-name"
           id="text3021"
           y="157.23398"
           x="7.7533054"
           style="font-style:normal;font-variant:normal;font-weight:bold;font-stretch:normal;font-size:5.33333px;line-height:125%;font-family:Cantarell;-inkscape-font-specification:'Cantarell, Bold';text-align:start;writing-mode:lr-tb;text-anchor:start;display:inline;fill:#000000;fill-opacity:1;stroke:none;stroke-width:1.33116;enable-background:new"
           xml:space="preserve"><tspan
             y="157.23398"
             x="7.7533054"
             id="tspan3023"
             sodipodi:role="line"
             style="font-size:5.33333px;stroke-width:1.33116">org.gnome.Lollypop</tspan></text><g
           style="display:inline;fill:#000000;stroke-width:4.0017;enable-background:new"
           transform="matrix(7.9911709,0,0,8.0036407,-167.7909,-4846.0776)"
           id="g12027"
           inkscape:export-xdpi="12"
           inkscape:export-ydpi="12" /><rect
           style="display:inline;overflow:visible;visibility:visible;fill:#f0f0f0;fill-opacity:1;fill-rule:nonzero;stroke:none;stroke-width:2.00085;marker:none;enable-background:accumulate"
           id="rect13805"
           width="128"
           height="128"
           x="9.2651362e-08"
           y="172"
           inkscape:label="512x512" /><g
           id="g883"
           style="fill:none;fill-opacity:0.25098;stroke:#a579b3;stroke-width:4.0017;stroke-opacity:1"
           transform="translate(-24,24)" /><g
           id="g900"
           style="fill:none;fill-opacity:0.25098;stroke:#a579b3;stroke-width:4.0017;stroke-opacity:1"
           transform="translate(-24,24)" /><g
           id="g1168"
           transform="matrix(0.25,0,0,0.25,6.9488522e-8,225)"
           style="stroke-width:4.0017"><circle
             cx="256"
             cy="44"
             r="240"
             id="path1142"
             style="opacity:0.1;fill:#2864b0;fill-opacity:1;stroke:none;stroke-width:4.0017;stroke-linecap:butt;stroke-linejoin:miter;stroke-miterlimit:4;stroke-dasharray:none;stroke-dashoffset:0;stroke-opacity:1;marker:none;marker-start:none;marker-mid:none;marker-end:none;paint-order:normal" /><rect
             ry="32"
             rx="32"
             y="-180"
             x="96"
             height="448"
             width="319.99979"
             id="rect1110"
             style="opacity:0.1;fill:#2864b0;fill-opacity:1;stroke:none;stroke-width:4.0017;stroke-linecap:butt;stroke-linejoin:miter;stroke-miterlimit:4;stroke-dasharray:none;stroke-dashoffset:0;stroke-opacity:1;marker:none;marker-start:none;marker-mid:none;marker-end:none;paint-order:normal" /><rect
             ry="32"
             rx="32"
             y="-164"
             x="48"
             height="416"
             width="416"
             id="rect1110-8"
             style="display:inline;opacity:0.1;fill:#2864b0;fill-opacity:1;stroke:none;stroke-width:4.0017;stroke-linecap:butt;stroke-linejoin:miter;stroke-miterlimit:4;stroke-dasharray:none;stroke-dashoffset:0;stroke-opacity:1;marker:none;marker-start:none;marker-mid:none;marker-end:none;paint-order:normal;enable-background:new" /><rect
             ry="32"
             rx="32"
             y="-116"
             x="32"
             height="320"
             width="448"
             id="rect1110-8-9"
             style="display:inline;opacity:0.1;fill:#2864b0;fill-opacity:1;stroke:none;stroke-width:4.0017;stroke-linecap:butt;stroke-linejoin:miter;stroke-miterlimit:4;stroke-dasharray:none;stroke-dashoffset:0;stroke-opacity:1;marker:none;marker-start:none;marker-mid:none;marker-end:none;paint-order:normal;enable-background:new" /></g></g><g
         inkscape:groupmode="layer"
         id="layer9"
         inkscape:label="hires"
         style="display:inline;stroke-width:4.0017"><circle
           r="60.000008"
           cy="236"
           cx="64"
           id="circle911"
           style="display:inline;opacity:1;fill:#e73434;fill-opacity:1;stroke:none;stroke-width:32.0137;stroke-linejoin:round;stroke-miterlimit:4;stroke-dasharray:4.0017, 2.00085;stroke-dashoffset:0;stroke-opacity:1;enable-background:new" /><path
           inkscape:connector-curvature="0"
           style="display:inline;opacity:1;fill:#f6f5f4;fill-opacity:1;stroke:none;stroke-width:32.2882;stroke-opacity:1;enable-background:new"
           d="m 52.526654,177.1072 c -1.542527,0.28344 -3.073694,0.62813 -4.589334,1.0304 -1.929414,0.53493 -3.831381,1.16837 -5.697686,1.89366 -1.865933,0.72476 -3.696208,1.54253 -5.480471,2.4506 -1.784035,0.90824 -3.517565,1.90357 -5.201993,2.98531 -1.685026,1.08196 -3.316046,2.25287 -4.884526,3.49769 -1.568338,1.24442 -3.075084,2.56535 -4.511364,3.95997 -0.184785,0.19562 -0.364198,0.38842 -0.545818,0.58481 1.288197,8.84144 4.031776,17.00229 11.718406,25.75935 a 34.932435,34.932435 0 0 1 9.379179,-10.93867 c -1.037676,-12.278 3.289991,-21.90532 9.813607,-31.22312 z m 27.057044,0.97468 c -7.005729,5.5382 -12.692259,11.98479 -16.430275,23.01354 A 34.932435,34.932435 0 0 1 64,201.06691 a 34.932435,34.932435 0 0 1 13.333588,2.65666 c 10.09982,-7.02176 20.586921,-8.09004 31.902582,-7.10674 -0.69517,-0.83687 -1.41524,-1.65839 -2.15543,-2.45622 -1.39493,-1.43636 -2.86305,-2.79839 -4.39441,-4.08809 -1.53117,-1.28982 -3.126409,-2.5065 -4.778699,-3.63691 -1.652403,-1.13052 -3.355789,-2.17585 -5.112876,-3.13571 -1.757002,-0.95982 -3.563978,-1.83248 -5.408069,-2.61212 -1.844261,-0.7798 -3.723689,-1.46371 -5.636418,-2.05516 -0.716528,-0.19734 -1.442712,-0.3813 -2.16657,-0.55139 z M 7.2682121,216.50647 c -0.2218565,0.57931 -0.4303304,1.1633 -0.6349347,1.74886 -0.5900017,1.91252 -1.0894471,3.85263 -1.4870781,5.81463 -0.3976878,1.96203 -0.6968607,3.94525 -0.8967027,5.93714 -0.1996139,1.9923 -0.3007583,3.9906 -0.3007583,5.9929 -2.567e-4,1.41726 0.041719,2.83595 0.1503663,4.24958 0.1414407,1.99737 0.3855001,3.98641 0.7240453,5.95945 0.3139071,1.76849 0.7099754,3.51888 1.1807505,5.25212 8.3110956,3.31077 16.7575706,5.01236 28.2043766,2.72353 a 34.932435,34.932435 0 0 1 -4.79541,-13.57865 C 18.260981,235.36942 12.078035,226.81189 7.2681979,216.50645 Z m 96.8272279,0.32304 c -3.32268,-0.0665 -6.70218,0.26349 -10.3093,0.97469 a 34.932435,34.932435 0 0 1 4.800982,13.59533 c 11.152058,5.23661 17.334728,13.78852 22.144668,24.09402 0.22186,-0.57851 0.43033,-1.16337 0.63493,-1.74885 0.59,-1.91264 1.08945,-3.85246 1.48708,-5.81464 0.39771,-1.96182 0.69686,-3.93969 0.8967,-5.9316 0.19962,-1.99235 0.30076,-3.99636 0.30076,-5.99846 2.3e-4,-1.41737 -0.0426,-2.83035 -0.15039,-4.24402 -0.14144,-1.99728 -0.38551,-3.98635 -0.72405,-5.95945 -0.31553,-1.77656 -0.70626,-3.53907 -1.18075,-5.27995 -6.45997,-2.30237 -12.10517,-3.57127 -17.90065,-3.68707 z m -9.429305,35.9015 a 34.932435,34.932435 0 0 1 -9.379182,10.93867 c 1.03765,12.278 -3.290102,21.90537 -9.813607,31.22312 1.542502,-0.28344 3.073754,-0.62726 4.589337,-1.03038 1.929297,-0.53493 3.831409,-1.16842 5.697686,-1.89368 1.866048,-0.7247 3.696265,-1.54258 5.480471,-2.4506 1.784035,-0.90809 3.517537,-1.90349 5.201993,-2.98531 1.684913,-1.08168 3.316015,-2.24722 4.884527,-3.4921 1.56825,-1.24434 3.07508,-2.57094 4.51135,-3.96556 0.1848,-0.19648 0.36981,-0.38842 0.5514,-0.58481 -1.2882,-8.84161 -4.03746,-17.00234 -11.723975,-25.75935 z m -43.99972,15.54471 c -10.099685,7.02187 -20.581423,8.09582 -31.897011,7.11238 0.69517,0.83764 1.409748,1.65275 2.149859,2.4506 1.395044,1.43611 2.863051,2.80401 4.394404,4.09366 1.531294,1.28984 3.126469,2.50082 4.778702,3.63135 1.652375,1.13044 3.361447,2.1759 5.118449,3.13568 1.757058,0.95994 3.558377,1.83251 5.402496,2.61214 1.844176,0.77981 3.72929,1.4691 5.64199,2.06073 0.72229,0.19876 1.447691,0.3805 2.177708,0.55139 7.00285,-5.53957 12.685567,-11.99241 16.419137,-23.02467 A 34.932435,34.932435 0 0 1 64,270.93234 34.932435,34.932435 0 0 1 50.666415,268.27566 Z"
           id="path1047-3" /><circle
           style="display:inline;opacity:1;fill:#f6f5f4;fill-opacity:1;stroke:none;stroke-width:28.8123;stroke-linejoin:round;stroke-miterlimit:4;stroke-dasharray:3.60154, 1.80076;stroke-dashoffset:0;stroke-opacity:1;enable-background:new"
           id="circle913"
           cx="64"
           cy="236"
           r="36" /><path
           style="display:inline;opacity:0.2;fill:#000000;fill-opacity:1;stroke:none;stroke-width:32.0137;stroke-linejoin:round;stroke-miterlimit:4;stroke-dasharray:4.0017, 2.00085;stroke-dashoffset:0;stroke-opacity:1;enable-background:new"
           d="M 123.9375,62.246094 A 60.000008,60.000008 0 0 1 64,121 60.000008,60.000008 0 0 1 4.0625,62.753906 60.000008,60.000008 0 0 0 4,64 a 60.000008,60.000008 0 0 0 60,60 60.000008,60.000008 0 0 0 60,-60 60.000008,60.000008 0 0 0 -0.0625,-1.753906 z"
           transform="translate(0,172)"
           id="circle1110"
           inkscape:connector-curvature="0" /></g><g
         style="display:inline;stroke-width:3.7658"
         id="g1140"
         inkscape:label="media-playback-start"
         transform="matrix(3.1270384,0,0,3.2500001,-85.091938,-1372.75)"><rect
           y="487"
           x="40"
           height="16"
           width="16"
           id="rect1136"
           style="color:#bebebe;display:inline;overflow:visible;visibility:visible;fill:none;stroke:none;stroke-width:3.7658;marker:none" /><path
           sodipodi:nodetypes="ccccccsccccc"
           inkscape:connector-curvature="0"
           id="path1138"
           transform="translate(-39.99995,-119)"
           d="m 84,609 v 10 H 84.90625 85 c 0.174914,10e-4 0.347782,-0.0388 0.5,-0.125 l 7,-4 c 0.310699,-0.17189 0.46875,-0.52345 0.46875,-0.875 0,-0.35155 -0.158051,-0.70311 -0.46875,-0.875 l -7,-4 C 85.347782,609.03875 85.174914,608.99869 85,609 h -0.09375 z"
           style="color:#000000;font-style:normal;font-variant:normal;font-weight:normal;font-stretch:normal;font-size:medium;line-height:normal;font-family:'Bitstream Vera Sans';-inkscape-font-specification:'Bitstream Vera Sans';text-indent:0;text-align:start;text-decoration:none;text-decoration-line:none;letter-spacing:normal;word-spacing:normal;text-transform:none;writing-mode:lr-tb;direction:ltr;text-anchor:start;display:inline;overflow:visible;visibility:visible;fill:#e73434;fill-opacity:1;fill-rule:nonzero;stroke:none;stroke-width:7.53162;marker:none;enable-background:accumulate" /></g></g><ellipse
       style="fill:none;fill-opacity:1;stroke:#a40000;stroke-width:0.999992;stroke-miterlimit:7.6;stroke-opacity:0.262926"
       id="path4122"
       cx="56.000153"
       cy="55.000004"
       rx="8.500001"
       ry="8.5000019" /><ellipse
       style="fill:none;fill-opacity:1;stroke:url(#linearGradient10865);stroke-width:0.999995;stroke-miterlimit:7.6"
       id="circle10787"
       cx="56.000149"
       cy="55.000004"
       rx="14.500001"
       ry="14.500004" /></g></svg>
