<?xml version="1.0" encoding="UTF-8" standalone="no"?>
<!-- Created with Inkscape (http://www.inkscape.org/) -->

<svg
   width="32"
   height="32"
   viewBox="0 0 32 32"
   version="1.1"
   id="svg5"
   inkscape:version="1.2.2 (b0a8486541, 2022-12-01)"
   sodipodi:docname="folder-music.svg"
   xml:space="preserve"
   xmlns:inkscape="http://www.inkscape.org/namespaces/inkscape"
   xmlns:sodipodi="http://sodipodi.sourceforge.net/DTD/sodipodi-0.dtd"
   xmlns="http://www.w3.org/2000/svg"
   xmlns:svg="http://www.w3.org/2000/svg"><sodipodi:namedview
     id="namedview7"
     pagecolor="#ffffff"
     bordercolor="#000000"
     borderopacity="0.25"
     inkscape:showpageshadow="2"
     inkscape:pageopacity="0.0"
     inkscape:pagecheckerboard="false"
     inkscape:deskcolor="#d1d1d1"
     inkscape:document-units="px"
     showgrid="true"
     inkscape:zoom="5.7953393"
     inkscape:cx="-11.129633"
     inkscape:cy="55.561889"
     inkscape:window-width="1192"
     inkscape:window-height="976"
     inkscape:window-x="113"
     inkscape:window-y="76"
     inkscape:window-maximized="0"
     inkscape:current-layer="layer1"><inkscape:grid
       type="xygrid"
       id="grid9"
       originx="0"
       originy="0"
       empspacing="2"
       spacingx="0.5"
       spacingy="0.5" /></sodipodi:namedview><defs
     id="defs2"><filter
       inkscape:collect="always"
       style="color-interpolation-filters:sRGB"
       id="filter2104"
       x="-0.10694491"
       y="-0.11202317"
       width="1.2138898"
       height="1.2240463"><feGaussianBlur
         inkscape:collect="always"
         stdDeviation="0.13585353"
         id="feGaussianBlur2106" /></filter><filter
       inkscape:collect="always"
       style="color-interpolation-filters:sRGB"
       id="filter2901"
       x="-0.10750115"
       y="-0.10356166"
       width="1.2150023"
       height="1.2071233"><feGaussianBlur
         inkscape:collect="always"
         stdDeviation="0.22026561"
         id="feGaussianBlur2903" /></filter><filter
       inkscape:collect="always"
       style="color-interpolation-filters:sRGB"
       id="filter4495"
       x="-0.082707985"
       y="-0.04200922"
       width="1.165416"
       height="1.0840184"><feGaussianBlur
         inkscape:collect="always"
         stdDeviation="0.11063005"
         id="feGaussianBlur4497" /></filter></defs><g
     inkscape:label="Layer 1"
     inkscape:groupmode="layer"
     id="layer1"><path
       style="opacity:0.1;mix-blend-mode:normal;fill:#000000;fill-opacity:1;stroke:none;stroke-width:0.264583;stroke-dasharray:none;stroke-opacity:1;filter:url(#filter2104)"
       d="m 3.571875,4.6302079 v 0.9260416 c 0,0 -0.6870214,0.00692 -0.79375,0.2645834 C 2.740391,5.9119319 2.852762,6.0054242 2.9104166,6.0854162 2.9833456,6.186599 3.0597684,6.302269 3.175,6.3499995 c 0.2037025,0.084376 0.4468702,0.050657 0.661458,0 C 3.9324246,6.3273449 4.0598389,6.3072913 4.1010414,6.2177079 4.1770151,6.0525243 4.0825179,5.8303665 3.9687497,5.6885412 3.9070502,5.6116257 3.7041664,5.5562495 3.7041664,5.5562495 H 3.571875 v -0.79375 c 0,0 0.6817204,0.2708956 0.9260413,0.5291667 C 4.6334412,5.4349293 4.7363236,5.625369 4.7624997,5.8208329 4.7923451,6.0436959 4.6969021,6.2675575 4.630208,6.4822912 4.5305953,6.8030124 4.4941199,7.1967318 4.233333,7.4083328 4.0587274,7.5500068 3.7967275,7.5406245 3.571875,7.5406245 3.3470224,7.5406245 3.116739,7.4977183 2.9104166,7.4083328 2.5623394,7.2575346 2.2186064,7.0452591 1.9843749,6.7468745 1.837743,6.5600819 1.726767,6.3227845 1.7197916,6.0854162 1.7115994,5.8066412 1.8248557,5.5204373 1.9843749,5.2916662 2.1458758,5.0600531 2.3866861,4.8746154 2.6458332,4.7624995 2.9320133,4.6386882 3.571875,4.6302079 3.571875,4.6302079 Z"
       id="path2102"
       sodipodi:nodetypes="ccaaaaaacccaaaaaaaaaac"
       transform="matrix(3.7795276,0,0,3.7795276,5.7885159e-5,5.270046e-7)" /><path
       style="opacity:0.1;fill:#000000;fill-opacity:1;stroke:none;stroke-width:0.264583;stroke-dasharray:none;stroke-opacity:1;filter:url(#filter2901)"
       d="m 3.571875,4.1010412 c 0,0 -0.5387671,-0.070626 -0.79375,0 -0.2477989,0.068636 -0.4650101,0.2309736 -0.6614584,0.396875 -0.310612,0.2623132 -0.6526968,0.5447386 -0.79375,0.9260417 -0.1070956,0.2895068 -0.02546,0.6184128 0,0.9260416 0.022124,0.267319 0.00955,0.555246 0.1322917,0.79375 0.1426805,0.2772553 0.3962131,0.4975277 0.6614583,0.6614583 0.2372425,0.146624 0.5184559,0.2199093 0.79375,0.2645834 0.4352781,0.070636 0.9155113,0.1687527 1.3229164,0 0.3456948,-0.1431915 0.5877687,-0.4813714 0.79375,-0.79375 0.1307255,-0.1982504 0.2196758,-0.4282723 0.2645833,-0.6614583 0.083391,-0.4330155 0.1687528,-0.9155115 0,-1.3229167 C 5.1484748,4.9459714 4.7928449,4.7281895 4.4979163,4.4979162 4.295246,4.339676 4.0618586,4.224774 3.836458,4.1010412 3.7500209,4.0535919 3.571875,3.9687496 3.571875,3.9687496 v -0.396875 c 0,0 0.5501068,0.1288605 0.7937497,0.2645833 0.3008769,0.1676053 0.5635526,0.4052794 0.79375,0.6614583 0.2125383,0.2365267 0.4370183,0.4894047 0.5291666,0.79375 0.1405654,0.4642561 0.1405654,0.9909522 0,1.4552083 C 5.596393,7.0512198 5.3400065,7.2789194 5.1593747,7.5406245 4.943894,7.8528198 4.8277069,8.2792202 4.4979163,8.4666662 4.0362733,8.7290543 3.4295317,8.7106775 2.9104166,8.5989578 2.4665702,8.5034368 2.0619558,8.2359079 1.7197916,7.9374995 1.3874524,7.6476596 1.0654893,7.2975092 0.92604161,6.8791662 c -0.11155812,-0.3346744 0,-0.7055555 0,-1.0583333 0,-0.1322917 -0.0437895,-0.2720408 0,-0.396875 C 1.0195047,5.157515 1.2751093,4.9799656 1.4552083,4.7624995 1.714524,4.4493807 1.898134,4.0419095 2.2489582,3.8364579 2.4429873,3.7228295 2.6899305,3.7482634 2.9104166,3.7041662 3.1309027,3.660069 3.571875,3.5718746 3.571875,3.5718746 Z"
       id="path2899"
       sodipodi:nodetypes="caaaaaaaaaaaaaccaaaaaaaaaaaaaacc"
       transform="matrix(3.7795276,0,0,3.7795276,5.7885159e-5,5.270046e-7)" /><path
       style="opacity:0.1;mix-blend-mode:normal;fill:#000000;fill-opacity:1;stroke:none;stroke-width:0.264583;stroke-dasharray:none;stroke-opacity:1;filter:url(#filter4495)"
       d="m 1.4552083,3.3072914 c 0,0 -0.76264712,0.2681401 -1.05833334,0.5291666 -0.11919491,0.1052231 -0.19871847,0.2521643 -0.26458332,0.3968749 -0.20828297,0.4576152 -0.35278906,0.9543592 -0.39687498,1.4552083 -0.0427079,0.4851937 -0.0111257,0.9897318 0.13229166,1.4552083 0.13368252,0.4338812 0.35367119,0.8568721 0.66145829,1.190625 0.43115075,0.4675238 0.99608429,0.8244594 1.58749999,1.0583333 0.2494377,0.09864 0.7108005,0.3873766 0.79375,0.1322917 0.182957,-0.5626264 -1.1075478,-0.44782 -1.5875,-0.79375 C 1.0193682,8.5124642 0.74100202,8.2459382 0.52916661,7.9374995 0.28328945,7.579495 0.09015847,7.1717206 -1.5800018e-8,6.7468745 -0.1006963,6.272372 -0.15339246,5.7518435 -1.5800018e-8,5.2916662 0.06972381,5.0824947 0.28095856,4.9500563 0.39687496,4.7624996 0.50055375,4.5947438 0.55237286,4.3976244 0.66145828,4.233333 0.88634363,3.8946376 1.4552083,3.3072914 1.4552083,3.3072914 Z"
       id="path4493"
       sodipodi:nodetypes="caaaaaaaaaaaaac"
       transform="matrix(3.7795276,0,0,3.7795276,5.7885159e-5,5.270046e-7)" /><path
       style="fill:#000000;fill-opacity:1;stroke:#000000;stroke-width:0.999999;stroke-dasharray:none;stroke-opacity:1"
       d="m 10.500058,21.999999 c 0.1804,-0.435521 0.564478,-0.819601 1,-1 0.461939,-0.191342 1.074674,-0.262866 1.5,0 0.317019,0.195927 0.414376,0.637292 0.5,1 0.03829,0.16221 0.06378,0.34602 0,0.5 -0.180401,0.435521 -0.56448,0.819601 -1.000001,1 -0.307959,0.127563 -0.675583,0.07659 -0.999999,0 -0.36271,-0.08563 -0.804072,-0.182982 -1,-0.5 -0.175246,-0.283551 -0.127563,-0.69204 0,-1 z"
       id="path468"
       sodipodi:nodetypes="aaaaaaaaa" /><path
       style="fill:#000000;fill-opacity:1;stroke:#000000;stroke-width:0.999999;stroke-dasharray:none;stroke-opacity:1"
       d="M 13.500057,22.499999 13.500058,11"
       id="path1310"
       sodipodi:nodetypes="cc" /><path
       style="fill:#000000;fill-opacity:1;stroke:none;stroke-width:0.999999;stroke-dasharray:none;stroke-opacity:1"
       d="m 13.000058,12.999999 c 0,0 1.472953,0.472954 1.999999,1 0.527046,0.527046 0.828752,1.274583 1,2 0.114875,0.486624 0.223608,1.052787 0,1.5 -0.5,1 -2,1.5 -2,1.5 0,0 1.038061,0.191342 1.5,0 0.653282,-0.270599 1.229402,-0.846718 1.5,-1.5 0.255122,-0.61592 0.126073,-1.345362 0,-2 -0.169729,-0.881333 -0.540381,-1.729087 -1,-2.499999 -0.666599,-1.118074 -2.499999,-3 -2.499999,-3 l -0.5,-0.5 z"
       id="path1312"
       sodipodi:nodetypes="caascaaaaccc" /></g></svg>
