<?xml version="1.0" encoding="UTF-8" standalone="no"?>
<!-- Created with Inkscape (http://www.inkscape.org/) -->

<svg
   width="32"
   height="32"
   viewBox="0 0 32 32"
   version="1.1"
   id="svg5"
   inkscape:version="1.2.2 (b0a8486541, 2022-12-01)"
   sodipodi:docname="folder-cloud.svg"
   xml:space="preserve"
   xmlns:inkscape="http://www.inkscape.org/namespaces/inkscape"
   xmlns:sodipodi="http://sodipodi.sourceforge.net/DTD/sodipodi-0.dtd"
   xmlns:xlink="http://www.w3.org/1999/xlink"
   xmlns="http://www.w3.org/2000/svg"
   xmlns:svg="http://www.w3.org/2000/svg"><sodipodi:namedview
     id="namedview7"
     pagecolor="#ffffff"
     bordercolor="#000000"
     borderopacity="0.25"
     inkscape:showpageshadow="2"
     inkscape:pageopacity="0.0"
     inkscape:pagecheckerboard="false"
     inkscape:deskcolor="#d1d1d1"
     inkscape:document-units="px"
     showgrid="true"
     inkscape:zoom="46.362715"
     inkscape:cx="5.0579437"
     inkscape:cy="24.437741"
     inkscape:window-width="1192"
     inkscape:window-height="976"
     inkscape:window-x="747"
     inkscape:window-y="130"
     inkscape:window-maximized="0"
     inkscape:current-layer="layer1"><inkscape:grid
       type="xygrid"
       id="grid9"
       originx="0"
       originy="0"
       empspacing="2"
       spacingx="0.5"
       spacingy="0.5" /></sodipodi:namedview><defs
     id="defs2"><linearGradient
       inkscape:collect="always"
       id="linearGradient12165"><stop
         style="stop-color:#fefefe;stop-opacity:1;"
         offset="0"
         id="stop12161" /><stop
         style="stop-color:#dedede;stop-opacity:1;"
         offset="1"
         id="stop12163" /></linearGradient><linearGradient
       inkscape:collect="always"
       xlink:href="#linearGradient12165"
       id="linearGradient12167"
       x1="1.4552083"
       y1="5.8208332"
       x2="1.4552083"
       y2="7.5406246"
       gradientUnits="userSpaceOnUse"
       gradientTransform="translate(1.3229166,-0.79374999)" /></defs><g
     inkscape:label="Layer 1"
     inkscape:groupmode="layer"
     id="layer1"><g
       id="g24500"
       transform="scale(3.7795276)" /><g
       id="layer1-6"
       inkscape:label="Layer 1"
       transform="scale(3.7795276)" /><g
       id="g24537"
       transform="scale(3.7795276)"><path
         style="fill:url(#linearGradient12167);fill-opacity:1;stroke:#727372;stroke-width:0.264583;stroke-miterlimit:10.2;stroke-opacity:1"
         d="m 0.66145831,7.2760414 c -0.13229167,-1e-7 -0.26458333,-0.1322918 -0.26458333,-0.2645833 -0.13229166,-0.1322918 -0.13229166,-0.3968751 0,-0.5291667 0,-0.2645834 0.0726282,-0.3785182 0.26458333,-0.5291666 C 1.0583333,4.4979164 1.7197916,4.1010415 3.1750001,4.6302081 3.5718748,4.7624998 3.7041665,4.8947914 3.7041665,5.2916664 v 0 c 0.396875,0 0.7937499,0.396875 0.7937499,0.79375 v 0 c 0.276871,0.013732 0.5179441,-0.00156 0.6614583,0.3968749 0.1322917,0.2645834 0,0.396875 1e-7,0.5291668 -1e-7,0.1322915 -1e-7,0.2645832 -0.2645834,0.2645833 z"
         id="path11308"
         sodipodi:nodetypes="ccccccccccccc" /><path
         style="fill:none;fill-opacity:0.207837;stroke:#727372;stroke-width:0.264583;stroke-miterlimit:10.2;stroke-opacity:0.301924"
         d="M 0.6614583,7.2760413 0.92604163,7.5406246 H 5.027083 L 5.2916663,7.408333 V 7.2760413 L 5.027083,7.1437496"
         id="path13369" /><path
         style="fill:none;fill-opacity:0.207837;stroke:#a1a1a1;stroke-width:0.264583;stroke-miterlimit:10.2;stroke-opacity:1"
         d="M 1.8520832,4.4979164 C 0.99159264,4.8988192 0.79374996,5.9531247 0.6614583,6.3499997"
         id="path18892"
         sodipodi:nodetypes="cc" /><path
         style="fill:none;fill-opacity:0.207837;stroke:#969696;stroke-width:0.264583;stroke-miterlimit:10.2;stroke-opacity:1"
         d="m 2.778125,4.7624997 c 0.3116443,-0.0062 0.5588427,0.2376381 0.79375,0.5291666 0.3017459,0.198923 0.7937498,0.5291667 0.9260413,1.0583334 0.3336048,0.00966 0.3811905,0.5351633 0.5291668,0.7937499 -0.1463079,0.095977 -0.2645833,0 -0.5291667,0.1322917 H 4.3656247"
         id="path20086"
         sodipodi:nodetypes="cccccc" /><path
         style="fill:none;fill-opacity:0.207837;stroke:#8b8b8b;stroke-width:0.264583;stroke-miterlimit:10.2;stroke-opacity:1"
         d="m 3.0427083,4.7624997 c 0.3011841,0.00277 0.5275656,0.1664713 0.6614581,0.5291666 0.3986574,0.2107726 0.703912,0.4897528 0.7937499,0.9260417 0.2417604,0.1129967 0.4856574,0.210769 0.6614584,0.79375"
         id="path20021"
         sodipodi:nodetypes="cccc" /><path
         style="fill:none;fill-opacity:0.207837;stroke:#969696;stroke-width:0.264583;stroke-miterlimit:10.2;stroke-opacity:1"
         d="M 4.1010414,7.2760413 3.836458,7.1987693 3.7041664,7.2760413"
         id="path20592" /><path
         style="fill:none;fill-opacity:0.207837;stroke:#969696;stroke-width:0.264583;stroke-miterlimit:10.2;stroke-opacity:1"
         d="M 2.9104165,7.331061 2.7781249,7.1987693 2.5135416,7.331061"
         id="path20594"
         sodipodi:nodetypes="ccc" /><path
         style="fill:none;fill-opacity:0.207837;stroke:#d2d2d2;stroke-width:0.264583;stroke-miterlimit:10.2;stroke-opacity:1"
         d="M 1.8520832,4.6302081 C 1.4937887,4.9226919 1.0583333,5.4239581 0.92604163,6.3499997"
         id="path18417"
         sodipodi:nodetypes="cc" /><path
         style="fill:none;fill-opacity:1;stroke:#727372;stroke-width:0.264583;stroke-miterlimit:10.2;stroke-opacity:1"
         d="m 0.66145831,7.2760414 c -0.13229167,-1e-7 -0.26458333,-0.1322918 -0.26458333,-0.2645833 -0.13229166,-0.1322918 -0.13229166,-0.3968751 0,-0.5291667 0,-0.2645834 0.0726282,-0.3785182 0.26458333,-0.5291666 C 1.0583333,4.4979164 1.9843749,4.1010415 3.1750001,4.6302081 3.5718748,4.7624998 3.7041665,4.8947914 3.7041665,5.2916664 v 0 c 0.396875,0 0.7937499,0.396875 0.7937499,0.79375 v 0 c 0.276871,0.013732 0.5179441,-0.00156 0.6614583,0.3968749 0.1322917,0.2645834 0,0.396875 1e-7,0.5291668 -1e-7,0.1322915 -1e-7,0.2645832 -0.2645834,0.2645833 z"
         id="path15450"
         sodipodi:nodetypes="ccccccccccccc" /><path
         style="fill:none;fill-opacity:0.207837;stroke:#ffffff;stroke-width:0.264583;stroke-miterlimit:10.2;stroke-opacity:0.442339"
         d="m 1.9843749,5.5562497 c 1.0583334,-0.1322917 1.3229167,0 1.3229167,0"
         id="path15580" /><path
         style="fill:none;fill-opacity:0.207837;stroke:#f9f9f9;stroke-width:0.264583;stroke-miterlimit:10.2;stroke-opacity:1"
         d="M 2.3812499,4.6302081 C 2.0805211,4.8892369 1.3229166,5.0270831 1.0583333,6.217708"
         id="path20740"
         sodipodi:nodetypes="cc" /></g></g></svg>
