<?xml version="1.0" encoding="UTF-8" standalone="no"?>
<!-- Created with Inkscape (http://www.inkscape.org/) -->

<svg
   width="48"
   height="48"
   viewBox="0 0 48 48"
   version="1.1"
   id="svg5"
   inkscape:version="1.2.2 (b0a8486541, 2022-12-01)"
   sodipodi:docname="cloud.svg"
   xml:space="preserve"
   xmlns:inkscape="http://www.inkscape.org/namespaces/inkscape"
   xmlns:sodipodi="http://sodipodi.sourceforge.net/DTD/sodipodi-0.dtd"
   xmlns:xlink="http://www.w3.org/1999/xlink"
   xmlns="http://www.w3.org/2000/svg"
   xmlns:svg="http://www.w3.org/2000/svg"><sodipodi:namedview
     id="namedview7"
     pagecolor="#ffffff"
     bordercolor="#000000"
     borderopacity="0.25"
     inkscape:showpageshadow="2"
     inkscape:pageopacity="0.0"
     inkscape:pagecheckerboard="false"
     inkscape:deskcolor="#d1d1d1"
     inkscape:document-units="px"
     showgrid="true"
     inkscape:zoom="16.391695"
     inkscape:cx="13.634954"
     inkscape:cy="24.738137"
     inkscape:window-width="1192"
     inkscape:window-height="747"
     inkscape:window-x="0"
     inkscape:window-y="22"
     inkscape:window-maximized="0"
     inkscape:current-layer="svg5"><inkscape:grid
       type="xygrid"
       id="grid9"
       originx="0"
       originy="0"
       empspacing="2"
       spacingx="0.5"
       spacingy="0.5" /></sodipodi:namedview><defs
     id="defs2"><linearGradient
       inkscape:collect="always"
       xlink:href="#linearGradient12165"
       id="linearGradient12167"
       x1="1.4552083"
       y1="5.8208332"
       x2="1.4552083"
       y2="7.5406246"
       gradientUnits="userSpaceOnUse"
       gradientTransform="translate(2.5014242,-2.1316678)" /><linearGradient
       inkscape:collect="always"
       id="linearGradient12165"><stop
         style="stop-color:#f6f7f9;stop-opacity:1;"
         offset="0.21957149"
         id="stop12161" /><stop
         style="stop-color:#dbe0e1;stop-opacity:1;"
         offset="1"
         id="stop12163" /></linearGradient></defs><g
     id="g33894"
     transform="matrix(11.630484,0,0,11.868619,-16.444056,-28.98291)"
     style="stroke-width:0.32169"><path
       style="fill:url(#linearGradient12167);fill-opacity:1;stroke:#727372;stroke-width:0.0851137;stroke-miterlimit:10.2;stroke-opacity:1"
       d="M 1.5828676,5.9385938 C 1.0733853,3.3662225 3.9318419,2.9250817 4.1302794,4.1818525 v 0 c 0.396875,0 0.7005382,0.3560142 0.7005382,0.7528892 v 0 C 5.4582401,4.7505995 5.4322964,5.9027308 5.0811118,5.9381236 Z"
       id="path11308"
       sodipodi:nodetypes="ccccccc" /><path
       style="fill:none;fill-opacity:0.207837;stroke:#3f403f;stroke-width:0.0851137;stroke-miterlimit:10.2;stroke-opacity:0.34"
       d="m 1.5858374,5.938594 0.1719618,0.084256 h 3.3532569 l 0.1289714,-0.042128 0.042991,-0.1263837 0.04299,-0.1685116"
       id="path13369"
       sodipodi:nodetypes="cccccc" /><path
       style="fill:none;fill-opacity:0.207837;stroke:#a1a1a1;stroke-width:0.102137;stroke-miterlimit:10.2;stroke-dasharray:none;stroke-opacity:1"
       d="M 2.7928882,3.5544448 C 1.9323976,3.9553476 1.370885,4.4641175 1.5858374,5.8964661"
       id="path18892"
       sodipodi:nodetypes="cc" /><path
       style="fill:none;fill-opacity:0.207837;stroke:#969696;stroke-width:0.127671;stroke-miterlimit:10.2;stroke-dasharray:none;stroke-opacity:1"
       d="M 2.9202588,3.5544449 C 3.4774181,3.4530479 4.0696797,3.7774409 4.0792847,4.1692222 4.4730084,4.2307298 4.8230763,4.4208436 4.8101228,4.9347416 5.4046806,4.855255 5.4549799,5.517315 5.197037,5.8543382 5.0507291,5.9503152 5.0218735,5.875853 4.7671323,5.938594 H 4.0665941"
       id="path20086"
       sodipodi:nodetypes="cccccc" /><path
       style="fill:none;fill-opacity:0.207837;stroke:#8b8b8b;stroke-width:0.102137;stroke-miterlimit:10.2;stroke-dasharray:none;stroke-opacity:1"
       d="m 2.9839441,3.5544448 c 0.5094823,0 1.0093597,0.067115 1.1463353,0.6274076 0.4667749,0.08628 0.6708425,0.2066832 0.7005382,0.7528892"
       id="path20021"
       sodipodi:nodetypes="ccc" /><path
       style="fill:none;fill-opacity:0.207837;stroke:#969696;stroke-width:0.0851137;stroke-miterlimit:10.2;stroke-opacity:1"
       d="M 4.5519449,5.9381235 3.5030833,5.8908545 2.8025451,5.9535953"
       id="path20592"
       sodipodi:nodetypes="ccc" /><path
       style="fill:none;fill-opacity:0.207837;stroke:#969696;stroke-width:0.0851137;stroke-miterlimit:10.2;stroke-opacity:1"
       d="M 3.5030833,5.9535953 2.7292029,5.8758533 H 1.5828677"
       id="path20594"
       sodipodi:nodetypes="ccc" /><path
       style="fill:none;fill-opacity:0.207837;stroke:#d2d2d2;stroke-width:0.110648;stroke-miterlimit:10.2;stroke-dasharray:none;stroke-opacity:1"
       d="M 3.0905039,3.5373037 C 2.5746182,3.6215595 1.3278945,3.9585827 1.6288278,5.8964661"
       id="path18417"
       sodipodi:nodetypes="cc" /><path
       style="fill:none;fill-opacity:0.207837;stroke:#ffffff;stroke-width:0.0851137;stroke-miterlimit:10.2;stroke-opacity:0.442339"
       d="M 2.4744618,4.1818524 C 2.8565735,3.7426671 3.5571117,3.9936302 3.5571117,3.9936302"
       id="path15580"
       sodipodi:nodetypes="cc" /><path
       style="fill:none;fill-opacity:0.207837;stroke:#f9f9f9;stroke-width:0.102137;stroke-miterlimit:10.2;stroke-dasharray:none;stroke-opacity:1"
       d="m 2.7465801,3.9164548 c -0.6878475,0 -1.0979172,0.7712764 -1.0317713,1.8957555"
       id="path20740"
       sodipodi:nodetypes="cc" /><path
       style="fill:none;fill-opacity:1;stroke:#727372;stroke-width:0.0851137;stroke-miterlimit:10.2;stroke-opacity:1"
       d="M 1.5828676,5.9385938 C 1.0733853,3.3662225 3.9318419,2.9250817 4.1302795,4.1818525 v 0 c 0.5094822,-10e-8 0.7005381,0.250963 0.7005382,0.7528892 v 0 C 5.5313558,4.7465193 5.4600256,5.9036608 5.0811119,5.9381236 Z"
       id="path15450"
       sodipodi:nodetypes="ccccccc" /></g></svg>
