<?xml version="1.0" encoding="UTF-8" standalone="no"?>
<!-- Created with Inkscape (http://www.inkscape.org/) -->

<svg
   width="48"
   height="48"
   viewBox="0 0 48 48"
   version="1.1"
   id="svg5"
   inkscape:version="1.2.2 (b0a8486541, 2022-12-01)"
   sodipodi:docname="firefox.svg"
   xml:space="preserve"
   xmlns:inkscape="http://www.inkscape.org/namespaces/inkscape"
   xmlns:sodipodi="http://sodipodi.sourceforge.net/DTD/sodipodi-0.dtd"
   xmlns:xlink="http://www.w3.org/1999/xlink"
   xmlns="http://www.w3.org/2000/svg"
   xmlns:svg="http://www.w3.org/2000/svg"><sodipodi:namedview
     id="namedview7"
     pagecolor="#ffffff"
     bordercolor="#000000"
     borderopacity="0.25"
     inkscape:showpageshadow="2"
     inkscape:pageopacity="0.0"
     inkscape:pagecheckerboard="false"
     inkscape:deskcolor="#d1d1d1"
     inkscape:document-units="px"
     showgrid="true"
     inkscape:zoom="16.391695"
     inkscape:cx="7.7173227"
     inkscape:cy="15.434645"
     inkscape:window-width="1192"
     inkscape:window-height="976"
     inkscape:window-x="182"
     inkscape:window-y="593"
     inkscape:window-maximized="0"
     inkscape:current-layer="layer1"><inkscape:grid
       type="xygrid"
       id="grid9"
       originx="0"
       originy="0"
       empspacing="4"
       spacingx="0.25"
       spacingy="0.25" /></sodipodi:namedview><defs
     id="defs2"><linearGradient
       inkscape:collect="always"
       id="linearGradient16464"><stop
         style="stop-color:#ffc69b;stop-opacity:1;"
         offset="0"
         id="stop16460" /><stop
         style="stop-color:#ffa25a;stop-opacity:0;"
         offset="1"
         id="stop16462" /></linearGradient><radialGradient
       id="g"
       cx="240.61284"
       cy="36.806652"
       r="170.02094"
       gradientTransform="scale(0.99822767,1.0017755)"
       fx="240.61284"
       fy="36.806652"
       gradientUnits="userSpaceOnUse"><stop
         offset=".1"
         stop-color="#ffe226"
         id="stop1053" /><stop
         offset=".79"
         stop-color="#ff7139"
         id="stop1055" /></radialGradient><radialGradient
       id="c"
       cx="226.56297"
       cy="290.17783"
       r="554.14581"
       gradientTransform="scale(1.1087373,0.9019269)"
       fx="226.56297"
       fy="290.17783"
       gradientUnits="userSpaceOnUse"><stop
         offset=".3"
         stop-color="#960e18"
         id="stop1058" /><stop
         offset=".35"
         stop-color="#b11927"
         stop-opacity=".74"
         id="stop1060" /><stop
         offset=".43"
         stop-color="#db293d"
         stop-opacity=".34"
         id="stop1062" /><stop
         offset=".5"
         stop-color="#f5334b"
         stop-opacity=".09"
         id="stop1064" /><stop
         offset=".53"
         stop-color="#ff3750"
         stop-opacity="0"
         id="stop1066" /></radialGradient><radialGradient
       id="d"
       cx="395.44366"
       cy="-17.973478"
       r="210.2099"
       gradientTransform="scale(0.76747288,1.3029776)"
       fx="395.44366"
       fy="-17.973478"
       gradientUnits="userSpaceOnUse"><stop
         offset=".13"
         stop-color="#fff44f"
         id="stop1069" /><stop
         offset=".53"
         stop-color="#ff980e"
         id="stop1071" /></radialGradient><radialGradient
       id="e"
       cx="206.27052"
       cy="373.24011"
       r="223.4966"
       gradientTransform="scale(0.95519576,1.0469058)"
       fx="206.27052"
       fy="373.24011"
       gradientUnits="userSpaceOnUse"><stop
         offset=".35"
         stop-color="#3a8ee6"
         id="stop1074" /><stop
         offset=".67"
         stop-color="#9059ff"
         id="stop1076" /><stop
         offset="1"
         stop-color="#c139e6"
         id="stop1078" /></radialGradient><radialGradient
       id="f"
       cx="271.62091"
       cy="200.9019"
       r="131.86298"
       gradientTransform="scale(0.95519576,1.0469058)"
       fx="271.62091"
       fy="200.9019"
       gradientUnits="userSpaceOnUse"><stop
         offset=".21"
         stop-color="#9059ff"
         stop-opacity="0"
         id="stop1081" /><stop
         offset=".97"
         stop-color="#6e008b"
         stop-opacity=".6"
         id="stop1083" /></radialGradient><radialGradient
       id="b"
       cx="392.80673"
       cy="61.159756"
       r="554.14581"
       gradientTransform="scale(1.1087373,0.9019269)"
       fx="392.80673"
       fy="61.159756"
       gradientUnits="userSpaceOnUse"><stop
         offset=".13"
         stop-color="#ffbd4f"
         id="stop1086" /><stop
         offset=".28"
         stop-color="#ff980e"
         id="stop1088" /><stop
         offset=".47"
         stop-color="#ff3750"
         id="stop1090" /><stop
         offset=".78"
         stop-color="#eb0878"
         id="stop1092" /><stop
         offset=".86"
         stop-color="#e50080"
         id="stop1094" /></radialGradient><radialGradient
       id="h"
       cx="362.07501"
       cy="-81.709213"
       r="742.3869"
       gradientTransform="scale(1.0914501,0.91621229)"
       fx="362.07501"
       fy="-81.709213"
       gradientUnits="userSpaceOnUse"><stop
         offset=".11"
         stop-color="#fff44f"
         id="stop1097" /><stop
         offset=".46"
         stop-color="#ff980e"
         id="stop1099" /><stop
         offset=".72"
         stop-color="#ff3647"
         id="stop1101" /><stop
         offset=".9"
         stop-color="#e31587"
         id="stop1103" /></radialGradient><radialGradient
       id="i"
       cx="475.58807"
       cy="-41.588268"
       r="779.90863"
       gradientTransform="scale(0.68818401,1.4530997)"
       fx="475.58807"
       fy="-41.588268"
       gradientUnits="userSpaceOnUse"><stop
         offset="0"
         stop-color="#fff44f"
         id="stop1106" /><stop
         offset=".3"
         stop-color="#ff980e"
         id="stop1108" /><stop
         offset=".57"
         stop-color="#ff3647"
         id="stop1110" /><stop
         offset=".74"
         stop-color="#e31587"
         id="stop1112" /></radialGradient><radialGradient
       id="j"
       cx="239.79736"
       cy="99.006172"
       r="461.1138"
       gradientTransform="scale(1.008901,0.9911775)"
       fx="239.79736"
       fy="99.006172"
       gradientUnits="userSpaceOnUse"><stop
         offset=".14"
         stop-color="#fff44f"
         id="stop1115" /><stop
         offset=".48"
         stop-color="#ff980e"
         id="stop1117" /><stop
         offset=".66"
         stop-color="#ff3647"
         id="stop1119" /><stop
         offset=".9"
         stop-color="#e31587"
         id="stop1121" /></radialGradient><radialGradient
       id="k"
       cx="343.03802"
       cy="132.0125"
       r="528.89331"
       gradientTransform="scale(1.0572577,0.94584319)"
       fx="343.03802"
       fy="132.0125"
       gradientUnits="userSpaceOnUse"><stop
         offset=".09"
         stop-color="#fff44f"
         id="stop1124" /><stop
         offset=".63"
         stop-color="#ff980e"
         id="stop1126" /></radialGradient><linearGradient
       id="a"
       x1="441.98419"
       y1="75.63131"
       x2="62.126282"
       y2="454.26938"
       gradientTransform="scale(0.98374383,1.0165248)"
       gradientUnits="userSpaceOnUse"><stop
         offset=".05"
         stop-color="#fff44f"
         id="stop1129" /><stop
         offset=".37"
         stop-color="#ff980e"
         id="stop1131" /><stop
         offset=".53"
         stop-color="#ff3647"
         id="stop1133" /><stop
         offset=".7"
         stop-color="#e31587"
         id="stop1135" /></linearGradient><linearGradient
       id="l"
       x1="406.61136"
       y1="68.311989"
       x2="104.09252"
       y2="409.86551"
       gradientTransform="scale(0.98373973,1.016529)"
       gradientUnits="userSpaceOnUse"><stop
         offset=".17"
         stop-color="#fff44f"
         stop-opacity=".8"
         id="stop1138" /><stop
         offset=".6"
         stop-color="#fff44f"
         stop-opacity="0"
         id="stop1140" /></linearGradient><linearGradient
       inkscape:collect="always"
       xlink:href="#linearGradient16464"
       id="linearGradient16466"
       x1="1.190625"
       y1="4.2333331"
       x2="1.7197915"
       y2="7.5406246"
       gradientUnits="userSpaceOnUse" /><filter
       inkscape:collect="always"
       style="color-interpolation-filters:sRGB"
       id="filter16967"
       x="-0.31417232"
       y="-0.33147662"
       width="1.6283446"
       height="1.6629532"><feGaussianBlur
         inkscape:collect="always"
         stdDeviation="0.43821611"
         id="feGaussianBlur16969" /></filter></defs><g
     inkscape:label="Layer 1"
     inkscape:groupmode="layer"
     id="layer1"><g
       id="g638"
       transform="matrix(3.7795276,0,0,3.7795276,6.758322e-7,1.2352164e-4)"><path
         style="display:inline;opacity:0.534;fill:#000000;fill-opacity:1;stroke:none;stroke-width:0.177183;stroke-opacity:0.628351;filter:url(#filter16967)"
         d="M 6.1511752,8.0543068 7.453014,7.6837776 V 7.3132484 L 6.0581867,6.6648223 6.3499999,5.1593745 4.1054285,8.3322037 Z"
         id="path16902"
         transform="matrix(1.4226671,0,0,1.4281375,0.9062166,0.66817515)"
         sodipodi:nodetypes="ccccccc" /><ellipse
         style="opacity:1;fill:none;stroke:#000000;stroke-width:0.529167;stroke-miterlimit:7.6;stroke-dasharray:none;stroke-opacity:1"
         id="path1811"
         cx="6.2177076"
         cy="6.4161453"
         rx="2.9104164"
         ry="2.8442705" /><path
         style="opacity:1;fill:none;stroke:#000000;stroke-width:0.264583;stroke-miterlimit:7.6;stroke-dasharray:none;stroke-opacity:1"
         d="m 10.318749,2.5135415 c 0.62584,0.9766414 0.481974,1.4385314 0.661458,2.1166665"
         id="path6100"
         sodipodi:nodetypes="cc" /><g
         id="g1236"
         transform="matrix(0.0248045,0,0,0.02453803,-0.13218948,0.26455134)"
         style="stroke-width:10.7245"><path
           d="m 478.711,166.353 c -10.445,-25.124 -31.6,-52.248 -48.212,-60.821 13.52,26.505 21.345,53.093 24.335,72.936 0,0.039 0.015,0.136 0.047,0.4 C 427.706,111.135 381.627,83.823 344,24.355 c -1.9,-3.007 -3.805,-6.022 -5.661,-9.2 a 73.716,73.716 0 0 1 -2.646,-4.972 43.7,43.7 0 0 1 -3.593,-9.506 0.626,0.626 0 0 0 -0.546,-0.644 0.818,0.818 0 0 0 -0.451,0 c -0.034,0.012 -0.084,0.051 -0.12,0.065 -0.053,0.021 -0.12,0.069 -0.176,0.1 0.027,-0.036 0.083,-0.117 0.1,-0.136 -60.37,35.356 -80.85,100.761 -82.732,133.484 a 120.249,120.249 0 0 0 -66.142,25.488 71.355,71.355 0 0 0 -6.225,-4.7 111.338,111.338 0 0 1 -0.674,-58.732 c -24.688,11.241 -43.89,29.01 -57.85,44.7 h -0.111 c -9.527,-12.067 -8.855,-51.873 -8.312,-60.184 -0.114,-0.515 -7.107,3.63 -8.023,4.255 a 175.073,175.073 0 0 0 -23.486,20.12 210.478,210.478 0 0 0 -22.442,26.913 c 0,0.012 -0.007,0.026 -0.011,0.038 0,-0.013 0.007,-0.026 0.011,-0.038 a 202.838,202.838 0 0 0 -32.247,72.805 c -0.115,0.521 -0.212,1.061 -0.324,1.586 -0.452,2.116 -2.08,12.7 -2.365,15 -0.022,0.177 -0.032,0.347 -0.053,0.524 a 229.066,229.066 0 0 0 -3.9,33.157 c 0,0.41 -0.025,0.816 -0.025,1.227 C 16,388.418 123.6,496 256.324,496 c 118.865,0 217.56,-86.288 236.882,-199.63 0.407,-3.076 0.733,-6.168 1.092,-9.271 4.777,-41.21 -0.53,-84.525 -15.587,-120.746 z M 201.716,354.447 c 1.124,0.537 2.18,1.124 3.334,1.639 0.048,0.033 0.114,0.07 0.163,0.1 a 126.191,126.191 0 0 1 -3.497,-1.739 z m 55.053,-144.93 z m 198.131,-30.59 -0.032,-0.233 c 0.012,0.085 0.027,0.174 0.04,0.259 z"
           fill="url(#a)"
           id="path1145"
           style="fill:url(#a);stroke-width:107.245" /><path
           d="m 478.711,166.353 c -10.445,-25.124 -31.6,-52.248 -48.212,-60.821 13.52,26.505 21.345,53.093 24.335,72.936 0,-0.058 0.011,0.048 0.036,0.226 0.012,0.085 0.027,0.174 0.04,0.259 22.675,61.47 10.322,123.978 -7.479,162.175 -27.539,59.1 -94.215,119.67 -198.576,116.716 C 136.1,454.651 36.766,370.988 18.223,261.41 c -3.379,-17.28 0,-26.054 1.7,-40.084 -2.071,10.816 -2.86,13.94 -3.9,33.157 0,0.41 -0.025,0.816 -0.025,1.227 C 16,388.418 123.6,496 256.324,496 c 118.865,0 217.56,-86.288 236.882,-199.63 0.407,-3.076 0.733,-6.168 1.092,-9.271 4.777,-41.21 -0.53,-84.525 -15.587,-120.746 z"
           fill="url(#b)"
           id="path1147"
           style="fill:url(#b);stroke-width:107.245" /><path
           d="m 478.711,166.353 c -10.445,-25.124 -31.6,-52.248 -48.212,-60.821 13.52,26.505 21.345,53.093 24.335,72.936 0,-0.058 0.011,0.048 0.036,0.226 0.012,0.085 0.027,0.174 0.04,0.259 22.675,61.47 10.322,123.978 -7.479,162.175 -27.539,59.1 -94.215,119.67 -198.576,116.716 C 136.1,454.651 36.766,370.988 18.223,261.41 c -3.379,-17.28 0,-26.054 1.7,-40.084 -2.071,10.816 -2.86,13.94 -3.9,33.157 0,0.41 -0.025,0.816 -0.025,1.227 C 16,388.418 123.6,496 256.324,496 c 118.865,0 217.56,-86.288 236.882,-199.63 0.407,-3.076 0.733,-6.168 1.092,-9.271 4.777,-41.21 -0.53,-84.525 -15.587,-120.746 z"
           fill="url(#c)"
           id="path1149"
           style="fill:url(#c);stroke-width:107.245" /><path
           d="m 361.922,194.6 c 0.524,0.368 1,0.734 1.493,1.1 a 130.706,130.706 0 0 0 -22.31,-29.112 C 266.4,91.892 321.516,4.626 330.811,0.194 c 0.027,-0.036 0.083,-0.117 0.1,-0.136 -60.37,35.356 -80.85,100.761 -82.732,133.484 2.8,-0.194 5.592,-0.429 8.442,-0.429 45.051,0 84.289,24.77 105.301,61.487 z"
           fill="url(#d)"
           id="path1151"
           style="fill:url(#d);stroke-width:107.245" /><path
           d="m 256.772,209.514 c -0.393,5.978 -21.514,26.593 -28.9,26.593 -68.339,0 -79.432,41.335 -79.432,41.335 3.027,34.81 27.261,63.475 56.611,78.643 1.339,0.692 2.694,1.317 4.05,1.935 a 132.768,132.768 0 0 0 7.059,2.886 106.743,106.743 0 0 0 31.271,6.031 c 119.78,5.618 142.986,-143.194 56.545,-186.408 22.137,-3.85 45.115,5.053 57.947,14.067 -21.012,-36.714 -60.25,-61.484 -105.3,-61.484 -2.85,0 -5.641,0.235 -8.442,0.429 a 120.249,120.249 0 0 0 -66.142,25.488 c 3.664,3.1 7.8,7.244 16.514,15.828 16.302,16.067 58.13,32.705 58.219,34.657 z"
           fill="url(#e)"
           id="path1153"
           style="fill:url(#e);stroke-width:107.245" /><path
           d="m 256.772,209.514 c -0.393,5.978 -21.514,26.593 -28.9,26.593 -68.339,0 -79.432,41.335 -79.432,41.335 3.027,34.81 27.261,63.475 56.611,78.643 1.339,0.692 2.694,1.317 4.05,1.935 a 132.768,132.768 0 0 0 7.059,2.886 106.743,106.743 0 0 0 31.271,6.031 c 119.78,5.618 142.986,-143.194 56.545,-186.408 22.137,-3.85 45.115,5.053 57.947,14.067 -21.012,-36.714 -60.25,-61.484 -105.3,-61.484 -2.85,0 -5.641,0.235 -8.442,0.429 a 120.249,120.249 0 0 0 -66.142,25.488 c 3.664,3.1 7.8,7.244 16.514,15.828 16.302,16.067 58.13,32.705 58.219,34.657 z"
           fill="url(#f)"
           id="path1155"
           style="fill:url(#f);stroke-width:107.245" /><path
           d="m 170.829,151.036 a 244.042,244.042 0 0 1 4.981,3.3 111.338,111.338 0 0 1 -0.674,-58.732 c -24.688,11.241 -43.89,29.01 -57.85,44.7 1.155,-0.033 36.014,-0.66 53.543,10.732 z"
           fill="url(#g)"
           id="path1157"
           style="fill:url(#g);stroke-width:107.245" /><path
           d="m 18.223,261.41 c 18.543,109.578 117.877,193.241 230.632,196.434 104.361,2.954 171.037,-57.62 198.576,-116.716 17.8,-38.2 30.154,-100.7 7.479,-162.175 l -0.008,-0.026 -0.032,-0.233 c -0.025,-0.178 -0.04,-0.284 -0.036,-0.226 0,0.039 0.015,0.136 0.047,0.4 8.524,55.661 -19.79,109.584 -64.051,146.044 l -0.133,0.313 c -86.245,70.223 -168.774,42.368 -185.484,30.966 a 144.108,144.108 0 0 1 -3.5,-1.743 c -50.282,-24.029 -71.054,-69.838 -66.6,-109.124 -42.457,0 -56.934,-35.809 -56.934,-35.809 0,0 38.119,-27.179 88.358,-3.541 46.53,21.893 90.228,3.543 90.233,3.541 -0.089,-1.952 -41.917,-18.59 -58.223,-34.656 -8.713,-8.584 -12.85,-12.723 -16.514,-15.828 a 71.355,71.355 0 0 0 -6.225,-4.7 282.929,282.929 0 0 0 -4.981,-3.3 c -17.528,-11.392 -52.388,-10.765 -53.543,-10.735 h -0.111 c -9.527,-12.067 -8.855,-51.873 -8.312,-60.184 -0.114,-0.515 -7.107,3.63 -8.023,4.255 a 175.073,175.073 0 0 0 -23.486,20.12 210.478,210.478 0 0 0 -22.442,26.919 c 0,0.012 -0.007,0.026 -0.011,0.038 0,-0.013 0.007,-0.026 0.011,-0.038 a 202.838,202.838 0 0 0 -32.247,72.805 c -0.115,0.521 -8.65,37.842 -4.44,57.199 z"
           fill="url(#h)"
           id="path1159"
           style="fill:url(#h);stroke-width:107.245" /><path
           d="m 341.105,166.587 a 130.706,130.706 0 0 1 22.31,29.112 c 1.323,0.994 2.559,1.985 3.608,2.952 54.482,50.2 25.936,121.2 23.807,126.26 44.261,-36.46 72.575,-90.383 64.051,-146.044 C 427.706,111.135 381.627,83.823 344,24.355 c -1.9,-3.007 -3.805,-6.022 -5.661,-9.2 a 73.716,73.716 0 0 1 -2.646,-4.972 43.7,43.7 0 0 1 -3.593,-9.506 0.626,0.626 0 0 0 -0.546,-0.644 0.818,0.818 0 0 0 -0.451,0 c -0.034,0.012 -0.084,0.051 -0.12,0.065 -0.053,0.021 -0.12,0.069 -0.176,0.1 -9.291,4.428 -64.407,91.694 10.298,166.389 z"
           fill="url(#i)"
           id="path1161"
           style="fill:url(#i);stroke-width:107.245" /><path
           d="m 367.023,198.651 c -1.049,-0.967 -2.285,-1.958 -3.608,-2.952 -0.489,-0.368 -0.969,-0.734 -1.493,-1.1 -12.832,-9.014 -35.81,-17.917 -57.947,-14.067 86.441,43.214 63.235,192.026 -56.545,186.408 a 106.743,106.743 0 0 1 -31.271,-6.031 134.51,134.51 0 0 1 -7.059,-2.886 c -1.356,-0.618 -2.711,-1.243 -4.05,-1.935 0.048,0.033 0.114,0.07 0.163,0.1 16.71,11.4 99.239,39.257 185.484,-30.966 l 0.133,-0.313 c 2.129,-5.054 30.675,-76.057 -23.807,-126.258 z"
           fill="url(#j)"
           id="path1163"
           style="fill:url(#j);stroke-width:107.245" /><path
           d="m 148.439,277.443 c 0,0 11.093,-41.335 79.432,-41.335 7.388,0 28.509,-20.615 28.9,-26.593 0.391,-5.978 -43.7,18.352 -90.233,-3.541 -50.239,-23.638 -88.358,3.541 -88.358,3.541 0,0 14.477,35.809 56.934,35.809 -4.453,39.286 16.319,85.1 66.6,109.124 1.124,0.537 2.18,1.124 3.334,1.639 -29.348,-15.169 -53.582,-43.834 -56.609,-78.644 z"
           fill="url(#k)"
           id="path1165"
           style="fill:url(#k);stroke-width:107.245" /><path
           d="m 478.711,166.353 c -10.445,-25.124 -31.6,-52.248 -48.212,-60.821 13.52,26.505 21.345,53.093 24.335,72.936 0,0.039 0.015,0.136 0.047,0.4 C 427.706,111.135 381.627,83.823 344,24.355 c -1.9,-3.007 -3.805,-6.022 -5.661,-9.2 a 73.716,73.716 0 0 1 -2.646,-4.972 43.7,43.7 0 0 1 -3.593,-9.506 0.626,0.626 0 0 0 -0.546,-0.644 0.818,0.818 0 0 0 -0.451,0 c -0.034,0.012 -0.084,0.051 -0.12,0.065 -0.053,0.021 -0.12,0.069 -0.176,0.1 0.027,-0.036 0.083,-0.117 0.1,-0.136 -60.37,35.356 -80.85,100.761 -82.732,133.484 2.8,-0.194 5.592,-0.429 8.442,-0.429 45.053,0 84.291,24.77 105.3,61.484 -12.832,-9.014 -35.81,-17.917 -57.947,-14.067 86.441,43.214 63.235,192.026 -56.545,186.408 a 106.743,106.743 0 0 1 -31.271,-6.031 134.51,134.51 0 0 1 -7.059,-2.886 c -1.356,-0.618 -2.711,-1.243 -4.05,-1.935 0.048,0.033 0.114,0.07 0.163,0.1 a 144.108,144.108 0 0 1 -3.5,-1.743 c 1.124,0.537 2.18,1.124 3.334,1.639 -29.35,-15.168 -53.584,-43.833 -56.611,-78.643 0,0 11.093,-41.335 79.432,-41.335 7.388,0 28.509,-20.615 28.9,-26.593 -0.089,-1.952 -41.917,-18.59 -58.223,-34.656 -8.713,-8.584 -12.85,-12.723 -16.514,-15.828 a 71.355,71.355 0 0 0 -6.225,-4.7 111.338,111.338 0 0 1 -0.674,-58.732 c -24.688,11.241 -43.89,29.01 -57.85,44.7 h -0.111 c -9.527,-12.067 -8.855,-51.873 -8.312,-60.184 -0.114,-0.515 -7.107,3.63 -8.023,4.255 A 175.073,175.073 0 0 0 77.345,104.49 210.478,210.478 0 0 0 54.91,131.406 c 0,0.012 -0.007,0.026 -0.011,0.038 0,-0.013 0.007,-0.026 0.011,-0.038 a 202.838,202.838 0 0 0 -32.247,72.805 c -0.115,0.521 -0.212,1.061 -0.324,1.586 -0.452,2.116 -2.486,12.853 -2.77,15.156 -0.022,0.177 0.021,-0.176 0,0 a 279.565,279.565 0 0 0 -3.544,33.53 c 0,0.41 -0.025,0.816 -0.025,1.227 C 16,388.418 123.6,496 256.324,496 c 118.865,0 217.56,-86.288 236.882,-199.63 0.407,-3.076 0.733,-6.168 1.092,-9.271 4.777,-41.21 -0.53,-84.525 -15.587,-120.746 z m -23.841,12.341 c 0.012,0.085 0.027,0.174 0.04,0.259 l -0.008,-0.026 z"
           fill="url(#l)"
           id="path1167"
           style="fill:url(#l);stroke-width:107.245" /></g><path
         style="opacity:1;fill:none;stroke:url(#linearGradient16466);stroke-width:0.264583;stroke-linecap:round;stroke-miterlimit:7.6;stroke-dasharray:none;stroke-opacity:0.632969"
         d="M 2.5135415,2.2489582 C 0.79374996,3.7041665 0.13229166,5.4239581 0.39687498,7.1437496"
         id="path16435"
         sodipodi:nodetypes="cc" /><path
         style="opacity:1;fill:none;stroke:#000000;stroke-width:0.264583;stroke-miterlimit:7.6;stroke-dasharray:none;stroke-opacity:1"
         id="path2489"
         sodipodi:type="arc"
         sodipodi:cx="6.2177081"
         sodipodi:cy="6.349999"
         sodipodi:rx="6.0854168"
         sodipodi:ry="6.2177081"
         sodipodi:start="0"
         sodipodi:end="3.1415927"
         sodipodi:arc-type="arc"
         d="m 12.303125,6.349999 a 6.0854168,6.2177081 0 0 1 -3.0427086,5.384693 6.0854168,6.2177081 0 0 1 -6.0854168,0 6.0854168,6.2177081 0 0 1 -3.04270828,-5.384693"
         sodipodi:open="true" /><path
         style="opacity:1;fill:none;stroke:#000000;stroke-width:0.264583;stroke-miterlimit:7.6;stroke-dasharray:none;stroke-opacity:1"
         id="path2540"
         sodipodi:type="arc"
         sodipodi:cx="6.5347872"
         sodipodi:cy="6.6162057"
         sodipodi:rx="6.4024954"
         sodipodi:ry="6.0703969"
         sodipodi:start="3.1402569"
         sodipodi:end="3.5603068"
         sodipodi:arc-type="arc"
         d="M 0.13229751,6.6243142 A 6.4024954,6.0703969 0 0 1 0.68538733,4.1480672"
         sodipodi:open="true" /><path
         style="opacity:1;fill:none;stroke:#000000;stroke-width:0.264583;stroke-miterlimit:7.6;stroke-dasharray:none;stroke-opacity:1"
         id="path2594"
         sodipodi:type="arc"
         sodipodi:cx="6.5347872"
         sodipodi:cy="6.421545"
         sodipodi:rx="6.4024954"
         sodipodi:ry="5.5852518"
         sodipodi:start="3.5589911"
         sodipodi:end="4.0649714"
         sodipodi:arc-type="arc"
         d="M 0.68196741,4.1573754 A 6.4024954,5.5852518 0 0 1 2.6732593,1.9665025"
         sodipodi:open="true" /><path
         style="opacity:1;fill:none;stroke:#000000;stroke-width:0.264583;stroke-miterlimit:7.6;stroke-dasharray:none;stroke-opacity:1"
         id="path2596"
         sodipodi:type="arc"
         sodipodi:cx="6.2177081"
         sodipodi:cy="6.3370228"
         sodipodi:rx="6.0854168"
         sodipodi:ry="4.9214125"
         sodipodi:start="6.1073391"
         sodipodi:end="0.05253698"
         sodipodi:arc-type="arc"
         d="M 12.209281,5.4760642 A 6.0854168,4.9214125 0 0 1 12.294729,6.59546"
         sodipodi:open="true" /><path
         style="opacity:1;fill:none;stroke:#000000;stroke-width:0.264583;stroke-miterlimit:7.6;stroke-dasharray:none;stroke-opacity:1"
         d="M 2.7781247,3.7041664 C 2.6625069,3.2158235 2.5938393,2.56839 2.6458332,1.9843749"
         id="path3578"
         sodipodi:nodetypes="cc" /><path
         style="opacity:1;fill:none;stroke:#000000;stroke-width:0.264583;stroke-miterlimit:7.6;stroke-dasharray:none;stroke-opacity:1"
         d="M 4.233333,2.5135415 C 3.6621664,2.8651634 3.1761012,3.2179278 2.7781247,3.5718747"
         id="path3629"
         sodipodi:nodetypes="cc" /><path
         style="opacity:1;fill:none;stroke:#000000;stroke-width:0.264583;stroke-miterlimit:7.6;stroke-dasharray:none;stroke-opacity:1"
         d="m 4.233333,2.5135415 c -0.1757332,0.3523123 -0.1770431,0.747869 1e-7,1.4552083"
         id="path3631"
         sodipodi:nodetypes="cc" /><path
         style="fill:none;stroke:#000000;stroke-width:0.132292;stroke-linecap:butt;stroke-miterlimit:7.6;stroke-dasharray:none;stroke-opacity:0.507525"
         d="M 6.2832068,5.4903414 C 6.0186235,5.8872163 5.6627936,6.1438146 5.5562497,6.1515625"
         id="path7924"
         sodipodi:nodetypes="cc" /><path
         style="fill:none;stroke:#946700;stroke-width:0.079375;stroke-linecap:butt;stroke-miterlimit:7.6;stroke-dasharray:none;stroke-opacity:1"
         d="M 6.2838542,5.4239581 C 6.0192709,5.820833 5.5966481,6.0776684 5.4901042,6.0854163"
         id="path2539"
         sodipodi:nodetypes="cc" /><path
         style="fill:none;stroke:#000000;stroke-width:0.132292;stroke-linecap:butt;stroke-miterlimit:7.6;stroke-dasharray:none;stroke-opacity:0.507525"
         d="M 3.5712273,7.2101329 C 3.8020279,6.5652047 4.3568193,6.140066 5.5556023,6.1517996"
         id="path7926"
         sodipodi:nodetypes="cc" /><path
         style="opacity:1;fill:none;stroke:#cc591d;stroke-width:0.15875;stroke-miterlimit:7.6;stroke-dasharray:none;stroke-opacity:1"
         d="m 2.7781248,3.7041665 c 1.0583333,-0.1322917 1.5875,0.396875 2.1166666,0.9260416 0.4743514,0.3180617 0.9637083,0.5612526 1.4552084,0.79375"
         id="path6986"
         sodipodi:nodetypes="ccc" /><path
         style="opacity:1;fill:none;stroke:#000000;stroke-width:0.264583;stroke-miterlimit:7.6;stroke-dasharray:none;stroke-opacity:1"
         id="path4361"
         sodipodi:type="arc"
         sodipodi:cx="6.2177081"
         sodipodi:cy="6.4113393"
         sodipodi:rx="6.0854168"
         sodipodi:ry="5.3649673"
         sodipodi:start="5.4626226"
         sodipodi:end="6.1148443"
         sodipodi:arc-type="arc"
         d="m 10.366804,2.4867068 a 6.0854168,5.3649673 0 0 1 1.850298,3.0257481"
         sodipodi:open="true" /><path
         style="opacity:1;fill:none;stroke:#cc831d;stroke-width:0.0529167;stroke-linecap:round;stroke-miterlimit:7.6;stroke-dasharray:none;stroke-opacity:1"
         d="m 11.112499,4.4979163 c 0.548112,1.7135766 0.264584,2.9104167 0,3.8364583"
         id="path11377"
         sodipodi:nodetypes="cc" /><path
         style="opacity:1;fill:none;stroke:#000000;stroke-width:0.264583;stroke-miterlimit:7.6;stroke-dasharray:none;stroke-opacity:1"
         d="M 5.9531247,3.4395832 C 6.324108,1.5475436 7.1050116,0.62293888 8.069791,0.13229166 8.4524371,0.85889626 9.0190336,1.6144368 9.6572912,2.3812499 10.380203,3.2347655 10.890164,3.9558065 11.112499,4.4979164"
         id="path6098"
         sodipodi:nodetypes="cccc" /><path
         style="opacity:1;fill:none;stroke:#000000;stroke-width:0.132292;stroke-linecap:butt;stroke-miterlimit:7.6;stroke-dasharray:none;stroke-opacity:0.68752"
         d="M 5.953125,3.4792708 C 7.5406249,3.4131248 8.3608329,4.2333331 8.9296875,5.027083"
         id="path15861"
         sodipodi:nodetypes="cc" /><path
         style="opacity:1;fill:none;stroke:#cc921d;stroke-width:0.0529167;stroke-linecap:round;stroke-miterlimit:7.6;stroke-dasharray:none;stroke-opacity:1"
         d="M 7.408333,4.6963542 C 8.5989579,4.4979164 9.9218745,5.4239582 9.7895828,7.4083331"
         id="path10424"
         sodipodi:nodetypes="cc" /><path
         style="fill:none;stroke:#946300;stroke-width:0.079375;stroke-linecap:butt;stroke-miterlimit:7.6;stroke-dasharray:none;stroke-opacity:1"
         d="M 3.5718747,7.1437496 C 3.8026753,6.4988214 4.3574667,6.0736827 5.5562497,6.0854163"
         id="path6263"
         sodipodi:nodetypes="cc" /><path
         style="opacity:0.572953;fill:none;stroke:#000000;stroke-width:0.079375;stroke-linecap:butt;stroke-miterlimit:7.6;stroke-dasharray:none;stroke-opacity:0.68752"
         d="M 8.6651042,6.8130208 C 8.5989579,5.7546876 8.0697913,5.0270831 7.408333,4.7624998"
         id="path8811"
         sodipodi:nodetypes="cc" /><path
         style="opacity:1;fill:none;stroke:#a57809;stroke-width:0.0529167;stroke-linecap:butt;stroke-miterlimit:7.6;stroke-dasharray:none;stroke-opacity:1"
         d="M 8.6651042,6.614583 C 8.5989579,5.5562498 8.0697913,4.9742385 7.408333,4.7096552"
         id="path9634"
         sodipodi:nodetypes="cc" /></g></g></svg>
