<?xml version="1.0" encoding="UTF-8" standalone="no"?>
<!-- Created with Inkscape (http://www.inkscape.org/) -->

<svg
   width="16"
   height="16"
   viewBox="0 0 16 16"
   version="1.1"
   id="svg5"
   inkscape:version="1.2.2 (b0a8486541, 2022-12-01)"
   sodipodi:docname="media-optical.svg"
   xml:space="preserve"
   xmlns:inkscape="http://www.inkscape.org/namespaces/inkscape"
   xmlns:sodipodi="http://sodipodi.sourceforge.net/DTD/sodipodi-0.dtd"
   xmlns:xlink="http://www.w3.org/1999/xlink"
   xmlns="http://www.w3.org/2000/svg"
   xmlns:svg="http://www.w3.org/2000/svg"><sodipodi:namedview
     id="namedview7"
     pagecolor="#ffffff"
     bordercolor="#000000"
     borderopacity="0.25"
     inkscape:showpageshadow="2"
     inkscape:pageopacity="0.0"
     inkscape:pagecheckerboard="false"
     inkscape:deskcolor="#d1d1d1"
     inkscape:document-units="px"
     showgrid="true"
     inkscape:zoom="32.78339"
     inkscape:cx="7.9155938"
     inkscape:cy="31.662375"
     inkscape:window-width="1192"
     inkscape:window-height="976"
     inkscape:window-x="295"
     inkscape:window-y="229"
     inkscape:window-maximized="0"
     inkscape:current-layer="layer1"><inkscape:grid
       type="xygrid"
       id="grid9"
       originx="0"
       originy="0"
       empspacing="4"
       spacingx="0.25"
       spacingy="0.25" /></sodipodi:namedview><defs
     id="defs2"><linearGradient
       id="linearGradient50593"
       inkscape:swatch="solid"><stop
         style="stop-color:#808080;stop-opacity:1;"
         offset="0"
         id="stop50591" /></linearGradient><linearGradient
       inkscape:collect="always"
       id="linearGradient13020"><stop
         style="stop-color:#434343;stop-opacity:1;"
         offset="0.44331309"
         id="stop13016" /><stop
         style="stop-color:#888888;stop-opacity:1;"
         offset="0.54970771"
         id="stop13018" /></linearGradient><linearGradient
       inkscape:collect="always"
       xlink:href="#linearGradient13020"
       id="linearGradient13022"
       x1="3.5718749"
       y1="3.8364582"
       x2="4.630208"
       y2="4.8947916"
       gradientUnits="userSpaceOnUse"
       gradientTransform="matrix(2.560721,0,0,2.5232258,-3.0115127,-2.3810938)" /><filter
       inkscape:collect="always"
       style="color-interpolation-filters:sRGB"
       id="filter22360"
       x="-0.01205"
       y="-0.011950413"
       width="1.0241"
       height="1.0239008"><feGaussianBlur
         inkscape:collect="always"
         stdDeviation="0.039852863"
         id="feGaussianBlur22362" /></filter><filter
       inkscape:collect="always"
       style="color-interpolation-filters:sRGB"
       id="filter48870"
       x="-0.11172876"
       y="-0.11172875"
       width="1.2234575"
       height="1.2234575"><feGaussianBlur
         inkscape:collect="always"
         stdDeviation="0.1499516"
         id="feGaussianBlur48872" /></filter><filter
       inkscape:collect="always"
       style="color-interpolation-filters:sRGB"
       id="filter16967"
       x="-0.25295454"
       y="-0.33758269"
       width="1.5059091"
       height="1.6751654"><feGaussianBlur
         inkscape:collect="always"
         stdDeviation="0.43821611"
         id="feGaussianBlur16969" /></filter><filter
       inkscape:collect="always"
       style="color-interpolation-filters:sRGB"
       id="filter79386"
       x="-85.915563"
       y="-11.962191"
       width="172.83113"
       height="25.779411"><feGaussianBlur
         inkscape:collect="always"
         stdDeviation="0.11616904"
         id="feGaussianBlur79388" /></filter><filter
       inkscape:collect="always"
       style="color-interpolation-filters:sRGB"
       id="filter80533"
       x="-0.33012923"
       y="-0.33012923"
       width="1.6602585"
       height="1.6602585"><feGaussianBlur
         inkscape:collect="always"
         stdDeviation="0.087278485"
         id="feGaussianBlur80535" /></filter><filter
       inkscape:collect="always"
       style="color-interpolation-filters:sRGB"
       id="filter82409"
       x="-0.58352318"
       y="-0.58352318"
       width="2.1670464"
       height="2.1670464"><feGaussianBlur
         inkscape:collect="always"
         stdDeviation="0.08479064"
         id="feGaussianBlur82411" /></filter></defs><g
     inkscape:label="Layer 1"
     inkscape:groupmode="layer"
     id="layer1"><path
       style="display:inline;opacity:0.534;fill:#000000;fill-opacity:1;stroke:none;stroke-width:0.568457;stroke-opacity:0.628351;filter:url(#filter16967)"
       d="M 5.4663801,8.2748147 8.2382054,7.7204496 7.6838403,7.3046758 6.436519,6.7503108 6.3499999,5.1593745 4.0804674,8.205519 Z"
       id="path16902"
       transform="matrix(1.6931219,0,0,1.6653658,0.34673013,2.0087304)"
       sodipodi:nodetypes="ccccccc" /><ellipse
       style="fill:#dddddf;fill-opacity:1;stroke:#000000;stroke-width:0.999999;stroke-linejoin:bevel;stroke-dasharray:none;stroke-opacity:1"
       id="path7069"
       cx="7.4901104"
       cy="8.6343641"
       rx="7.039557"
       ry="6.9241543" /><ellipse
       id="path20318"
       style="fill:#eeeeee;stroke:#000000;stroke-width:0.999999"
       cx="7.7001886"
       cy="11.121582"
       rx="1.5765834e-05"
       ry="1.5507378e-05" /><ellipse
       id="path20320"
       style="fill:#eeeeee;stroke:#000000;stroke-width:0.999999"
       cx="8.3632011"
       cy="15.520193"
       rx="1.5765834e-05"
       ry="1.5507378e-05" /><g
       id="g22358"
       style="display:inline;mix-blend-mode:normal;stroke-width:2.1485;filter:url(#filter22360)"
       transform="matrix(1.7737468,0,0,1.7446689,0.21590182,1.0177942)"><path
         style="display:inline;fill:#acfefa;fill-opacity:1;stroke-width:0.568457;stroke-linejoin:bevel"
         d="M 0.92604162,1.8520832 0.26458332,3.3072915 2.778125,4.233333 V 3.571875 L 1.1906249,2.2489582 Z"
         id="path5183"
         sodipodi:nodetypes="cccccc" /><path
         style="fill:#fdfdcb;fill-opacity:1;stroke:none;stroke-width:0.568457;stroke-linejoin:bevel;stroke-dasharray:none;stroke-opacity:1"
         d="M 0.92604145,2.0505208 2.7781248,3.6380206 3.5718748,2.9765625 2.3812497,0.72760412 1.7197914,1.1244791 Z"
         id="path9486" /><path
         style="fill:#ffffff;fill-opacity:1;stroke:none;stroke-width:0.568457;stroke-linejoin:bevel;stroke-dasharray:none;stroke-opacity:1"
         d="M 2.3812499,0.79374996 3.571875,3.0427083 H 4.1010414 L 3.4395833,0.52916663 Z"
         id="path10114" /><path
         style="fill:#ddddde;fill-opacity:1;stroke:none;stroke-width:0.568457;stroke-linejoin:bevel;stroke-dasharray:none;stroke-opacity:1"
         d="M 3.3734376,0.52916657 3.902604,3.0427083 H 4.1671873 L 4.299479,0.39687491 Z"
         id="path11003" /><path
         style="fill:#c4c5c5;fill-opacity:1;stroke:none;stroke-width:0.568457;stroke-linejoin:bevel;stroke-dasharray:none;stroke-opacity:1"
         d="M 4.233333,0.39687497 4.1010414,3.0427083 H 4.630208 L 5.820833,0.79374996 4.8947913,0.52916663 Z"
         id="path11683" /><path
         style="fill:#e2e2e2;fill-opacity:1;stroke:none;stroke-width:0.568457;stroke-linejoin:bevel;stroke-dasharray:none;stroke-opacity:1"
         d="M 5.7546872,0.72760409 4.5640622,2.9765624 4.6963539,3.2411457 h 0.1322916 l 1.5875,-2.1166667 z"
         id="path11886" /><path
         style="fill:#fffefe;fill-opacity:1;stroke:none;stroke-width:0.568457;stroke-linejoin:bevel;stroke-dasharray:none;stroke-opacity:1"
         d="M 6.4822913,1.0583333 4.7624998,3.1749998 5.027083,3.571875 7.2760413,2.1166666 Z"
         id="path15266"
         sodipodi:nodetypes="ccccc" /><path
         style="fill:#dcdcdf;fill-opacity:1;stroke:none;stroke-width:0.568457;stroke-linejoin:bevel;stroke-dasharray:none;stroke-opacity:1"
         d="m 5.4239581,3.9687498 c 0,0 -0.1322918,-0.5291665 -0.2645834,-0.5291665 -0.1322917,0 2.1166666,-1.3229167 2.1166666,-1.3229167 l 0.396875,0.5291666 z"
         id="path15814"
         sodipodi:nodetypes="csccc" /><path
         style="fill:#d1e8f5;fill-opacity:1;stroke:none;stroke-width:0.568457;stroke-linejoin:bevel;stroke-dasharray:none;stroke-opacity:1"
         d="m 5.423958,4.630208 v 0.1322917 l 2.38125,0.79375 L 8.0697913,5.2916663 5.423958,4.630208"
         id="path16703" /><path
         style="fill:#ccccff;fill-opacity:1;stroke:none;stroke-width:0.568457;stroke-linejoin:bevel;stroke-dasharray:none;stroke-opacity:1"
         d="M 5.423958,4.630208 7.9374996,5.423958 8.0697913,4.233333 7.805208,2.9104166 7.6729163,2.6458332 5.4239581,3.9687498 Z"
         id="path16362"
         sodipodi:nodetypes="ccccccc" /><path
         style="fill:#baffff;fill-opacity:1;stroke:none;stroke-width:0.568457;stroke-linejoin:bevel;stroke-dasharray:none;stroke-opacity:1"
         d="M 5.423958,4.7624997 5.2916663,5.027083 7.2760413,6.614583 7.6729163,6.217708 7.805208,5.5562497 5.423958,4.7624997"
         id="path17044" /><path
         style="fill:#fdfdcb;fill-opacity:1;stroke:none;stroke-width:0.568457;stroke-linejoin:bevel;stroke-dasharray:none;stroke-opacity:1"
         d="M 5.2916663,5.027083 4.8947913,5.5562497 6.3499997,7.5406246 7.2760413,6.614583 Z"
         id="path17618" /><path
         style="fill:#ffffff;fill-opacity:1;stroke:none;stroke-width:0.568457;stroke-linejoin:bevel;stroke-dasharray:none;stroke-opacity:1"
         d="m 4.4979163,5.6885413 0.396875,-0.1322916 1.4552084,1.9843749 -0.79375,0.5291667 -1.0583334,-2.38125"
         id="path17620" /><path
         style="fill:#dddede;fill-opacity:1;stroke:none;stroke-width:0.568457;stroke-linejoin:bevel;stroke-dasharray:none;stroke-opacity:1"
         d="m 2.778125,4.630208 0.2645833,0.396875 -2.11666667,1.7197917 -0.396875,-0.79375 z"
         id="path19135" /><path
         style="fill:#ffffff;fill-opacity:1;stroke:none;stroke-width:0.568457;stroke-linejoin:bevel;stroke-dasharray:none;stroke-opacity:1"
         d="M 3.0427083,5.027083 0.92604163,6.7468747 1.3229166,7.1437496 3.0427083,5.1593747 V 5.027083"
         id="path19614" /><path
         style="fill:#cecbfa;fill-opacity:1;stroke-width:0.568457;stroke-linejoin:bevel"
         d="M 0.6614583,3.3072916 2.778125,4.1010414 2.9104165,4.6302081 2.7781249,4.7624998 0.52916663,6.0854163 0.26458332,5.2916663 0.13229166,3.7041664 0.26458332,3.1749998 Z"
         id="path4174"
         sodipodi:nodetypes="ccccccccc" /><path
         style="fill:#f5f5f6;fill-opacity:1;stroke:none;stroke-width:0.568457;stroke-linejoin:bevel;stroke-dasharray:none;stroke-opacity:1"
         d="M 3.0427083,5.1593747 1.1906249,7.2760413 1.4552083,7.408333 3.175,5.423958 3.0427083,5.1593747"
         id="path19754" /><path
         style="fill:#ffffff;fill-opacity:1;stroke:none;stroke-width:0.568457;stroke-linejoin:bevel;stroke-dasharray:none;stroke-opacity:1"
         d="M 1.4552083,7.408333 1.7197916,7.5406246 3.3072915,5.4239581 3.175,5.423958 1.4552083,7.2760413 Z"
         id="path20026"
         sodipodi:nodetypes="cccccc" /><path
         style="fill:#eeeeee;fill-opacity:1;stroke:none;stroke-width:0.568457;stroke-linejoin:bevel;stroke-dasharray:none;stroke-opacity:1"
         d="M 4.233333,5.6885413 5.027083,8.202083 5.5562497,8.0697913 4.4979163,5.6885413 Z"
         id="path20190" /><path
         style="fill:#dddddd;fill-opacity:1;stroke:none;stroke-width:0.568457;stroke-linejoin:bevel;stroke-dasharray:none;stroke-opacity:1"
         d="M 4.1010414,5.6885413 4.4979163,8.3343746 5.027083,8.202083 4.233333,5.6885413 Z"
         id="path20324" /><path
         style="fill:#bcbdbe;fill-opacity:1;stroke:none;stroke-width:0.568457;stroke-linejoin:bevel;stroke-dasharray:none;stroke-opacity:1"
         d="M 3.7041665,5.820833 3.0427082,8.2020829 3.9687497,8.4005204 4.4979164,8.3343746 4.1010415,5.6885414 H 3.8364581"
         id="path20701"
         sodipodi:nodetypes="cccccc" /><path
         style="fill:#ebebeb;fill-opacity:1;stroke:none;stroke-width:0.568457;stroke-linejoin:bevel;stroke-dasharray:none;stroke-opacity:1"
         d="m 2.315104,8.0036455 -0.6614583,-0.396875 1.5875,-2.1166666 0.2645834,0.2645833 z"
         id="path21148" /><path
         style="fill:#e2e2e2;fill-opacity:1;stroke:none;stroke-width:0.568457;stroke-linejoin:bevel;stroke-dasharray:none;stroke-opacity:1"
         d="M 3.4395833,5.6885413 2.2489582,7.805208 3.175,8.202083 3.836458,5.820833 3.4395833,5.6885413"
         id="path21423" /></g><path
       style="fill:#d7d7d7;fill-opacity:1;stroke:none;stroke-width:0.264583;stroke-linejoin:bevel;stroke-dasharray:none;stroke-opacity:1;filter:url(#filter79386)"
       d="M 1.7293577,2.8796976 1.1085078,3.8567727 1.4810178,4.0399743 1.8535275,2.8796976 Z"
       id="path41012"
       transform="matrix(3.7795276,0,0,3.7795276,0.01534822,0.05851851)" /><path
       style="fill:none;fill-opacity:1;stroke:#c8c8fa;stroke-width:0.264583;stroke-linejoin:bevel;stroke-dasharray:none;stroke-opacity:1;filter:url(#filter79386)"
       d="M 1.3568479,2.2690256 0.23931809,1.7804882"
       id="path23970"
       transform="matrix(3.7795276,0,0,3.7795276,0.01534822,0.05851851)" /><path
       style="fill:none;fill-opacity:1;stroke:#c0baed;stroke-width:0.264583;stroke-linejoin:bevel;stroke-dasharray:none;stroke-opacity:1;filter:url(#filter79386)"
       d="M 1.2947628,2.2079584 0.17723306,2.1468912"
       id="path24587"
       transform="matrix(3.7795276,0,0,3.7795276,0.01534822,0.05851851)" /><path
       style="fill:none;fill-opacity:1;stroke:#cfbef4;stroke-width:0.264583;stroke-linejoin:bevel;stroke-dasharray:none;stroke-opacity:1;filter:url(#filter79386)"
       d="M 1.3568479,2.2079584 0.17723306,2.39116"
       id="path23284"
       transform="matrix(3.7795276,0,0,3.7795276,0.01534822,0.05851851)" /><path
       style="fill:none;fill-opacity:1;stroke:#c4fdff;stroke-width:0.264583;stroke-linejoin:bevel;stroke-dasharray:none;stroke-opacity:1;filter:url(#filter79386)"
       d="M 1.3568479,2.0858241 0.36348802,1.3530178"
       id="path24907"
       transform="matrix(3.7795276,0,0,3.7795276,0.01534822,0.05851851)" /><path
       style="fill:none;fill-opacity:1;stroke:#9afefe;stroke-width:0.264583;stroke-linejoin:bevel;stroke-dasharray:none;stroke-opacity:1;filter:url(#filter79386)"
       d="M 1.4189328,2.0247569 0.48765796,1.2308834"
       id="path25725"
       transform="matrix(3.7795276,0,0,3.7795276,0.01534822,0.05851851)" /><path
       style="fill:none;fill-opacity:1;stroke:#e6e7ce;stroke-width:0.264583;stroke-linejoin:bevel;stroke-dasharray:none;stroke-opacity:1;filter:url(#filter79386)"
       d="M 0.67391292,0.98661458 1.4810178,1.7804882"
       id="path26273"
       transform="matrix(3.7795276,0,0,3.7795276,0.01534822,0.05851851)" /><path
       style="fill:none;fill-opacity:1;stroke:#fcfcca;stroke-width:0.264583;stroke-linejoin:bevel;stroke-dasharray:none;stroke-opacity:1;filter:url(#filter79386)"
       d="M 0.54974298,1.108749 1.4810178,1.9026226"
       id="path27091"
       transform="matrix(3.7795276,0,0,3.7795276,0.01534822,0.05851851)" /><path
       style="fill:none;fill-opacity:1;stroke:#cfe8fb;stroke-width:0.264583;stroke-linejoin:bevel;stroke-dasharray:none;stroke-opacity:1;filter:url(#filter79386)"
       d="M 0.301403,1.5972866 1.3568479,2.2079584"
       id="path27415"
       transform="matrix(3.7795276,0,0,3.7795276,0.01534822,0.05851851)" /><path
       style="fill:none;fill-opacity:1;stroke:#cdcaf5;stroke-width:0.264583;stroke-linejoin:bevel;stroke-dasharray:none;stroke-opacity:1;filter:url(#filter79386)"
       d="M 0.23931809,2.8796976 1.3568479,2.4522272"
       id="path28493"
       transform="matrix(3.7795276,0,0,3.7795276,0.01534822,0.05851851)" /><path
       style="fill:none;fill-opacity:1;stroke:#dddede;stroke-width:0.264583;stroke-linejoin:bevel;stroke-dasharray:none;stroke-opacity:1;filter:url(#filter79386)"
       d="M 0.36348802,3.1239664 1.3568479,2.5743616"
       id="path29888"
       transform="matrix(3.7795276,0,0,3.7795276,0.01534822,0.05851851)" /><path
       style="fill:none;fill-opacity:1;stroke:#cecff6;stroke-width:0.264583;stroke-linejoin:bevel;stroke-dasharray:none;stroke-opacity:1;filter:url(#filter79386)"
       d="M 1.4189328,2.5132944 0.301403,3.001832"
       id="path28903"
       transform="matrix(3.7795276,0,0,3.7795276,0.01534822,0.05851851)" /><path
       style="fill:none;fill-opacity:1;stroke:#ebbcf6;stroke-width:0.264583;stroke-linejoin:bevel;stroke-dasharray:none;stroke-opacity:1;filter:url(#filter79386)"
       d="M 1.2947628,2.3300928 0.14936125,2.618555"
       id="path22805"
       sodipodi:nodetypes="cc"
       transform="matrix(3.7795276,0,0,3.7795276,0.01534822,0.05851851)" /><path
       style="fill:none;fill-opacity:1;stroke:#d3afed;stroke-width:0.264583;stroke-linejoin:bevel;stroke-dasharray:none;stroke-opacity:1;filter:url(#filter79386)"
       d="M 0.20827552,2.7270297 1.3878903,2.2995593"
       id="path22470"
       transform="matrix(3.7795276,0,0,3.7795276,0.01534822,0.05851851)" /><path
       style="fill:none;fill-opacity:1;stroke:#ecebec;stroke-width:0.264583;stroke-linejoin:bevel;stroke-dasharray:none;stroke-opacity:1;filter:url(#filter79386)"
       d="M 0.42557305,3.2461008 1.3568479,2.5743616"
       id="path29271"
       transform="matrix(3.7795276,0,0,3.7795276,0.01534822,0.05851851)" /><path
       style="fill:none;fill-opacity:1;stroke:#dadadb;stroke-width:0.264583;stroke-linejoin:bevel;stroke-dasharray:none;stroke-opacity:1;filter:url(#filter79386)"
       d="M 1.4189328,2.5743616 0.48765796,3.3682352"
       id="path30223"
       transform="matrix(3.7795276,0,0,3.7795276,0.01534822,0.05851851)" /><path
       style="fill:none;fill-opacity:1;stroke:#fefefc;stroke-width:0.264583;stroke-linejoin:bevel;stroke-dasharray:none;stroke-opacity:1;filter:url(#filter79386)"
       d="M 1.4810178,2.5743616 0.54974298,3.4293023"
       id="path30558"
       transform="matrix(3.7795276,0,0,3.7795276,0.01534822,0.05851851)" /><path
       style="fill:none;fill-opacity:1;stroke:#f7f7ca;stroke-width:0.264583;stroke-linejoin:bevel;stroke-dasharray:none;stroke-opacity:1;filter:url(#filter79386)"
       d="M 1.6051878,1.7194211 0.86016787,0.80341303"
       id="path31967"
       transform="matrix(3.7795276,0,0,3.7795276,0.01534822,0.05851851)" /><path
       style="fill:none;fill-opacity:1;stroke:#ffffcc;stroke-width:0.264583;stroke-linejoin:bevel;stroke-dasharray:none;stroke-opacity:1;filter:url(#filter79386)"
       d="M 0.7670404,0.89501384 1.5741452,1.8110218"
       id="path32584"
       transform="matrix(3.7795276,0,0,3.7795276,0.01534822,0.05851851)" /><path
       style="fill:none;fill-opacity:1;stroke:#fcfcee;stroke-width:0.264583;stroke-linejoin:bevel;stroke-dasharray:none;stroke-opacity:1;filter:url(#filter79386)"
       d="M 1.7293577,1.7194211 0.98433779,0.74234594"
       id="path33132"
       transform="matrix(3.7795276,0,0,3.7795276,0.01534822,0.05851851)" /><path
       style="fill:none;fill-opacity:1;stroke:#fdfde6;stroke-width:0.264583;stroke-linejoin:bevel;stroke-dasharray:none;stroke-opacity:1;filter:url(#filter79386)"
       d="M 1.1085078,0.68127874 1.7914426,1.7194211"
       id="path33956"
       transform="matrix(3.7795276,0,0,3.7795276,0.01534822,0.05851851)" /><path
       style="fill:none;fill-opacity:1;stroke:#fffffc;stroke-width:0.264583;stroke-linejoin:bevel;stroke-dasharray:none;stroke-opacity:1;filter:url(#filter79386)"
       d="M 1.2947628,0.62021154 1.8535275,1.6583538"
       id="path34159"
       transform="matrix(3.7795276,0,0,3.7795276,0.01534822,0.05851851)" /><path
       style="fill:none;fill-opacity:1;stroke:#f2f2f2;stroke-width:0.264583;stroke-linejoin:bevel;stroke-dasharray:none;stroke-opacity:1;filter:url(#filter79386)"
       d="M 1.4189328,0.55914435 1.9156125,1.5972866"
       id="path34500"
       transform="matrix(3.7795276,0,0,3.7795276,0.01534822,0.05851851)" /><path
       style="fill:none;fill-opacity:1;stroke:#dadadb;stroke-width:0.264583;stroke-linejoin:bevel;stroke-dasharray:none;stroke-opacity:1;filter:url(#filter79386)"
       d="M 1.4810178,2.696496 0.61182789,3.4903696"
       id="path40052"
       transform="matrix(3.7795276,0,0,3.7795276,0.01534822,0.05851851)" /><path
       style="fill:none;fill-opacity:1;stroke:#feffff;stroke-width:0.264583;stroke-linejoin:bevel;stroke-dasharray:none;stroke-opacity:1;filter:url(#filter79386)"
       d="M 1.5431027,2.696496 0.67391292,3.5514367"
       id="path39849"
       transform="matrix(3.7795276,0,0,3.7795276,0.01534822,0.05851851)" /><path
       style="fill:none;fill-opacity:1;stroke:#dadadb;stroke-width:0.264583;stroke-linejoin:bevel;stroke-dasharray:none;stroke-opacity:1;filter:url(#filter79386)"
       d="m 1.6051878,2.7575632 c 0.00634,-0.031702 0.00634,-0.031702 0,0"
       id="path40399"
       transform="matrix(3.7795276,0,0,3.7795276,0.01534822,0.05851851)" /><path
       style="fill:none;fill-opacity:1;stroke:#fbfbfb;stroke-width:0.264583;stroke-linejoin:bevel;stroke-dasharray:none;stroke-opacity:1;filter:url(#filter79386)"
       d="M 0.73599794,3.6735712 1.6051878,2.7575632"
       id="path40401"
       transform="matrix(3.7795276,0,0,3.7795276,0.01534822,0.05851851)" /><path
       style="fill:none;fill-opacity:1;stroke:#fbfbfb;stroke-width:0.264583;stroke-linejoin:bevel;stroke-dasharray:none;stroke-opacity:1;filter:url(#filter79386)"
       d="M 1.5431027,2.7575632 0.86016787,3.7346383"
       id="path40673"
       transform="matrix(3.7795276,0,0,3.7795276,0.01534822,0.05851851)" /><path
       style="fill:none;fill-opacity:1;stroke:#ddddde;stroke-width:0.264583;stroke-linejoin:bevel;stroke-dasharray:none;stroke-opacity:1;filter:url(#filter79386)"
       d="M 1.6672728,2.8186304 0.98433779,3.7957055"
       id="path40675"
       transform="matrix(3.7795276,0,0,3.7795276,0.01534822,0.05851851)" /><path
       style="fill:none;fill-opacity:1;stroke:#ebebeb;stroke-width:0.264583;stroke-linejoin:bevel;stroke-dasharray:none;stroke-opacity:1;filter:url(#filter79386)"
       d="M 1.7604002,2.8186304 1.0774653,3.7957056"
       id="path40878"
       transform="matrix(3.7795276,0,0,3.7795276,0.01534822,0.05851851)" /><path
       style="fill:none;fill-opacity:1;stroke:#c4c4c5;stroke-width:0.264583;stroke-linejoin:bevel;stroke-dasharray:none;stroke-opacity:1;filter:url(#filter79386)"
       d="M 1.9156125,2.8796976 1.5431027,4.0399743"
       id="path41914"
       transform="matrix(3.7795276,0,0,3.7795276,0.01534822,0.05851851)" /><path
       style="fill:none;fill-opacity:1;stroke:#bcbdbd;stroke-width:0.264583;stroke-linejoin:bevel;stroke-dasharray:none;stroke-opacity:1;filter:url(#filter79386)"
       d="M 1.9776976,4.1010415 1.8535276,2.8796976"
       id="path42182"
       transform="matrix(3.7795276,0,0,3.7795276,0.01534822,0.05851851)" /><path
       style="fill:none;fill-opacity:1;stroke:#c4c4c5;stroke-width:0.264583;stroke-linejoin:bevel;stroke-dasharray:none;stroke-opacity:1;filter:url(#filter79386)"
       d="M 1.6672728,4.0399743 1.9776976,2.8796976"
       id="path42180"
       transform="matrix(3.7795276,0,0,3.7795276,0.01534822,0.05851851)" /><path
       style="fill:none;fill-opacity:1;stroke:#bcbdbd;stroke-width:0.264583;stroke-linejoin:bevel;stroke-dasharray:none;stroke-opacity:1;filter:url(#filter79386)"
       d="M 1.7914426,4.1010415 1.9776976,3.307168"
       id="path42592"
       transform="matrix(3.7795276,0,0,3.7795276,0.01534822,0.05851851)" /><path
       style="fill:none;fill-opacity:1;stroke:#ddddde;stroke-width:0.264583;stroke-linejoin:bevel;stroke-dasharray:none;stroke-opacity:1;filter:url(#filter79386)"
       d="M 2.070825,2.8796976 2.3812499,4.1010415"
       id="path43847"
       transform="matrix(3.7795276,0,0,3.7795276,0.01534822,0.05851851)" /><path
       style="fill:none;fill-opacity:1;stroke:#c5c6c6;stroke-width:0.264583;stroke-linejoin:bevel;stroke-dasharray:none;stroke-opacity:1;filter:url(#filter79386)"
       d="M 2.2260374,4.1010415 1.9776976,2.8796976"
       id="path42594"
       transform="matrix(3.7795276,0,0,3.7795276,0.01534822,0.05851851)" /><path
       style="fill:none;fill-opacity:1;stroke:#eeeeee;stroke-width:0.264583;stroke-linejoin:bevel;stroke-dasharray:none;stroke-opacity:1;filter:url(#filter79386)"
       d="M 2.4743774,4.0399743 2.1018675,2.8796976"
       id="path43661"
       sodipodi:nodetypes="cc"
       transform="matrix(3.7795276,0,0,3.7795276,0.01534822,0.05851851)" /><path
       style="fill:none;fill-opacity:1;stroke:#ffffff;stroke-width:0.264583;stroke-linejoin:bevel;stroke-dasharray:none;stroke-opacity:1;filter:url(#filter79386)"
       d="m 2.1639524,2.8796976 0.49668,1.0992095"
       id="path45550"
       transform="matrix(3.7795276,0,0,3.7795276,0.01534822,0.05851851)" /><path
       style="fill:none;fill-opacity:1;stroke:#e7afef;stroke-width:0.264583;stroke-linejoin:bevel;stroke-dasharray:none;stroke-opacity:1;filter:url(#filter79386)"
       d="M 3.778162,1.8415554 2.5985474,2.3300928"
       id="path45699"
       transform="matrix(3.7795276,0,0,3.7795276,0.01534822,0.05851851)" /><path
       style="fill:none;fill-opacity:1;stroke:#eabef7;stroke-width:0.264583;stroke-linejoin:bevel;stroke-dasharray:none;stroke-opacity:1;filter:url(#filter79386)"
       d="M 2.5985474,2.3300928 3.778162,1.9636897"
       id="path46040"
       transform="matrix(3.7795276,0,0,3.7795276,0.01534822,0.05851851)" /><path
       style="fill:none;fill-opacity:1;stroke:#f8cafb;stroke-width:0.264583;stroke-linejoin:bevel;stroke-dasharray:none;stroke-opacity:1;filter:url(#filter79386)"
       d="M 2.6606324,2.2079584 3.778162,1.7194211"
       id="path46174"
       transform="matrix(3.7795276,0,0,3.7795276,0.01534822,0.05851851)" /><path
       style="fill:none;fill-opacity:1;stroke:#ddcefb;stroke-width:0.264583;stroke-linejoin:bevel;stroke-dasharray:none;stroke-opacity:1;filter:url(#filter79386)"
       d="M 2.5985474,2.1468912 3.7160771,1.6583538"
       id="path46308"
       transform="matrix(3.7795276,0,0,3.7795276,0.01534822,0.05851851)" /><path
       style="fill:none;fill-opacity:1;stroke:#cecffb;stroke-width:0.264583;stroke-linejoin:bevel;stroke-dasharray:none;stroke-opacity:1;filter:url(#filter79386)"
       d="M 3.6539921,1.5362195 2.5985474,2.0858241"
       id="path46511"
       transform="matrix(3.7795276,0,0,3.7795276,0.01534822,0.05851851)" /><path
       style="fill:none;fill-opacity:1;stroke:#cdc5f8;stroke-width:0.264583;stroke-linejoin:bevel;stroke-dasharray:none;stroke-opacity:1;filter:url(#filter79386)"
       d="M 3.840247,2.0858241 2.5985474,2.3300928"
       id="path46866"
       transform="matrix(3.7795276,0,0,3.7795276,0.01534822,0.05851851)" /><path
       style="fill:none;fill-opacity:1;stroke:#c4c3f5;stroke-width:0.264583;stroke-linejoin:bevel;stroke-dasharray:none;stroke-opacity:1;filter:url(#filter79386)"
       d="m 3.840247,2.2079584 c -0.062085,0 -1.2416996,0.1832016 -1.2416996,0.1832016"
       id="path47414"
       transform="matrix(3.7795276,0,0,3.7795276,0.01534822,0.05851851)" /><path
       style="fill:none;fill-opacity:1;stroke:#bdbdef;stroke-width:0.264583;stroke-linejoin:bevel;stroke-dasharray:none;stroke-opacity:1;filter:url(#filter79386)"
       d="M 3.840247,2.3300928 2.5985474,2.39116"
       id="path47617"
       transform="matrix(3.7795276,0,0,3.7795276,0.01534822,0.05851851)" /><path
       style="fill:none;fill-opacity:1;stroke:#cbfefc;stroke-width:0.264583;stroke-linejoin:bevel;stroke-dasharray:none;stroke-opacity:1;filter:url(#filter79386)"
       d="M 3.6539921,3.0628992 2.5985474,2.39116"
       id="path48386"
       transform="matrix(3.7795276,0,0,3.7795276,0.01534822,0.05851851)" /><path
       style="fill:none;fill-opacity:1;stroke:#c8c7fb;stroke-width:0.264583;stroke-linejoin:bevel;stroke-dasharray:none;stroke-opacity:1;filter:url(#filter79386)"
       d="M 3.840247,2.6048953 2.5985474,2.2995593"
       id="path48019"
       transform="matrix(3.7795276,0,0,3.7795276,0.01534822,0.05851851)" /><path
       style="fill:none;fill-opacity:1;stroke:#ccccff;stroke-width:0.264583;stroke-linejoin:bevel;stroke-dasharray:none;stroke-opacity:1;filter:url(#filter79386)"
       d="M 3.840247,2.4522272 2.6606324,2.39116"
       id="path47751"
       transform="matrix(3.7795276,0,0,3.7795276,0.01534822,0.05851851)" /><path
       style="fill:none;fill-opacity:1;stroke:#ccd4fe;stroke-width:0.264583;stroke-linejoin:bevel;stroke-dasharray:none;stroke-opacity:1;filter:url(#filter79386)"
       d="M 3.778162,2.7575632 2.6606324,2.39116"
       id="path47816"
       transform="matrix(3.7795276,0,0,3.7795276,0.01534822,0.05851851)" /><path
       style="fill:none;fill-opacity:1;stroke:#cbf6fa;stroke-width:0.264583;stroke-linejoin:bevel;stroke-dasharray:none;stroke-opacity:1;filter:url(#filter79386)"
       d="M 3.716077,2.8796976 2.5985474,2.4522272"
       id="path48658"
       transform="matrix(3.7795276,0,0,3.7795276,0.01534822,0.05851851)" /><path
       style="fill:none;fill-opacity:1;stroke:#e0e1d6;stroke-width:0.264583;stroke-linejoin:bevel;stroke-dasharray:none;stroke-opacity:1;filter:url(#filter79386)"
       d="M 3.4056521,3.307168 2.5364623,2.5132944"
       id="path50589"
       transform="matrix(3.7795276,0,0,3.7795276,0.01534822,0.05851851)" /><path
       style="fill:none;fill-opacity:1;stroke:#c7f7f7;stroke-width:0.264583;stroke-linejoin:bevel;stroke-dasharray:none;stroke-opacity:1;filter:url(#filter79386)"
       d="M 3.5298221,3.2461008 2.5985474,2.5132944"
       id="path50999"
       transform="matrix(3.7795276,0,0,3.7795276,0.01534822,0.05851851)" /><path
       style="fill:none;fill-opacity:1;stroke:#fefecb;stroke-width:0.264583;stroke-linejoin:bevel;stroke-dasharray:none;stroke-opacity:1;filter:url(#filter79386)"
       d="M 3.2814822,3.5514367 2.4122924,2.696496"
       id="path54023"
       transform="matrix(3.7795276,0,0,3.7795276,0.01534822,0.05851851)" /><path
       style="fill:none;fill-opacity:1;stroke:#acffff;stroke-width:0.264583;stroke-linejoin:bevel;stroke-dasharray:none;stroke-opacity:1;filter:url(#filter79386)"
       d="M 2.5985474,2.5132944 3.5919071,3.1850336"
       id="path51616"
       transform="matrix(3.7795276,0,0,3.7795276,0.01534822,0.05851851)" /><path
       style="fill:none;fill-opacity:1;stroke:#ededcf;stroke-width:0.264583;stroke-linejoin:bevel;stroke-dasharray:none;stroke-opacity:1;filter:url(#filter79386)"
       d="M 2.4743774,2.6354288 3.3435672,3.4903696"
       id="path52992"
       transform="matrix(3.7795276,0,0,3.7795276,0.01534822,0.05851851)" /><path
       style="fill:none;fill-opacity:1;stroke:#ededc4;stroke-width:0.264583;stroke-linejoin:bevel;stroke-dasharray:none;stroke-opacity:1;filter:url(#filter79386)"
       d="M 3.2193973,3.6125039 2.3502074,2.696496"
       id="path54717"
       transform="matrix(3.7795276,0,0,3.7795276,0.01534822,0.05851851)" /><path
       style="fill:none;fill-opacity:1;stroke:#f7f7c7;stroke-width:0.264583;stroke-linejoin:bevel;stroke-dasharray:none;stroke-opacity:1;filter:url(#filter79386)"
       d="m 2.2881225,2.7575632 0.8691897,0.916008"
       id="path54989"
       transform="matrix(3.7795276,0,0,3.7795276,0.01534822,0.05851851)" /><path
       style="fill:none;fill-opacity:1;stroke:#fcfcda;stroke-width:0.264583;stroke-linejoin:bevel;stroke-dasharray:none;stroke-opacity:1;filter:url(#filter79386)"
       d="M 2.3502074,2.8186304 3.0331423,3.7346383"
       id="path55393"
       sodipodi:nodetypes="cc"
       transform="matrix(3.7795276,0,0,3.7795276,0.01534822,0.05851851)" /><path
       style="fill:none;fill-opacity:1;stroke:#fafafa;stroke-width:0.264583;stroke-linejoin:bevel;stroke-dasharray:none;stroke-opacity:1;filter:url(#filter79386)"
       d="M 2.2260374,2.8796976 2.7848023,3.8567727"
       id="path55527"
       transform="matrix(3.7795276,0,0,3.7795276,0.01534822,0.05851851)" /><path
       style="fill:none;fill-opacity:1;stroke:#ffffff;stroke-width:0.264583;stroke-linejoin:bevel;stroke-dasharray:none;stroke-opacity:1;filter:url(#filter79386)"
       d="M 2.9710573,3.8567727 2.2260374,2.8186304"
       id="path55799"
       transform="matrix(3.7795276,0,0,3.7795276,0.01534822,0.05851851)" /><path
       style="fill:none;fill-opacity:1;stroke:#d2cef4;stroke-width:0.264583;stroke-linejoin:bevel;stroke-dasharray:none;stroke-opacity:1;filter:url(#filter79386)"
       d="M 3.6539921,1.4751522 2.5454704,2.0219692"
       id="path65029"
       sodipodi:nodetypes="cc"
       transform="matrix(3.7795276,0,0,3.7795276,0.01534822,0.05851851)" /><path
       style="fill:none;fill-opacity:1;stroke:#d8d7e7;stroke-width:0.264583;stroke-linejoin:bevel;stroke-dasharray:none;stroke-opacity:1;filter:url(#filter79386)"
       d="M 3.610233,1.3871094 2.5315782,1.9763632"
       id="path65163"
       transform="matrix(3.7795276,0,0,3.7795276,0.01534822,0.05851851)" /><path
       style="fill:none;fill-opacity:1;stroke:#e3e3e2;stroke-width:0.264583;stroke-linejoin:bevel;stroke-dasharray:none;stroke-opacity:1;filter:url(#filter79386)"
       d="M 3.5258954,1.2658157 2.5366828,1.9807619"
       id="path66470"
       transform="matrix(3.7795276,0,0,3.7795276,0.01534822,0.05851851)" /><path
       style="fill:none;fill-opacity:1;stroke:#e8e7e7;stroke-width:0.264583;stroke-linejoin:bevel;stroke-dasharray:none;stroke-opacity:1;filter:url(#filter79386)"
       d="M 1.5249184,0.49807715 1.9776976,1.6583538"
       id="path57351"
       transform="matrix(3.7795276,0,0,3.7795276,0.01534822,0.05851851)" /><path
       style="fill:none;fill-opacity:1;stroke:#d6d6d5;stroke-width:0.264583;stroke-linejoin:bevel;stroke-dasharray:none;stroke-opacity:1;filter:url(#filter79386)"
       d="M 1.7393776,0.476194 2.00874,1.6583538"
       id="path57761"
       transform="matrix(3.7795276,0,0,3.7795276,0.01534822,0.05851851)" /><path
       style="fill:none;fill-opacity:1;stroke:#dddddd;stroke-width:0.264583;stroke-linejoin:bevel;stroke-dasharray:none;stroke-opacity:1;filter:url(#filter79386)"
       d="M 1.9194688,0.45827774 2.0356593,1.6025499"
       id="path59275"
       transform="matrix(3.7795276,0,0,3.7795276,0.01534822,0.05851851)" /><path
       style="fill:none;fill-opacity:1;stroke:#c6c4c4;stroke-width:0.264583;stroke-linejoin:bevel;stroke-dasharray:none;stroke-opacity:1;filter:url(#filter79386)"
       d="M 2.194995,0.46754349 2.1018672,1.6583538"
       id="path60708"
       transform="matrix(3.7795276,0,0,3.7795276,0.01534822,0.05851851)" /><path
       style="fill:none;fill-opacity:1;stroke:#cdcece;stroke-width:0.264583;stroke-linejoin:bevel;stroke-dasharray:none;stroke-opacity:1;filter:url(#filter79386)"
       d="M 2.0708252,0.43700995 2.1018674,1.6583538"
       id="path59547"
       transform="matrix(3.7795276,0,0,3.7795276,0.01534822,0.05851851)" /><path
       style="fill:none;fill-opacity:1;stroke:#cececf;stroke-width:0.264583;stroke-linejoin:bevel;stroke-dasharray:none;stroke-opacity:1;filter:url(#filter79386)"
       d="M 2.2442726,0.49807715 2.1018675,1.6583538"
       id="path59888"
       transform="matrix(3.7795276,0,0,3.7795276,0.01534822,0.05851851)" /><path
       style="fill:none;fill-opacity:1;stroke:#c6c4c4;stroke-width:0.264583;stroke-linejoin:bevel;stroke-dasharray:none;stroke-opacity:1;filter:url(#filter79386)"
       d="M 2.3502074,0.49807715 2.1469475,1.65988"
       id="path60436"
       transform="matrix(3.7795276,0,0,3.7795276,0.01534822,0.05851851)" /><path
       style="fill:none;fill-opacity:1;stroke:#bec1c0;stroke-width:0.264583;stroke-linejoin:bevel;stroke-dasharray:none;stroke-opacity:1;filter:url(#filter79386)"
       d="M 2.5675049,0.55914435 2.194995,1.6278202"
       id="path60710"
       transform="matrix(3.7795276,0,0,3.7795276,0.01534822,0.05851851)" /><path
       style="fill:none;fill-opacity:1;stroke:#bec1c0;stroke-width:0.264583;stroke-linejoin:bevel;stroke-dasharray:none;stroke-opacity:1;filter:url(#filter79386)"
       d="M 2.4717421,0.51023975 2.1362661,1.7026642"
       id="path61327"
       transform="matrix(3.7795276,0,0,3.7795276,0.01534822,0.05851851)" /><path
       style="fill:none;fill-opacity:1;stroke:#cececd;stroke-width:0.264583;stroke-linejoin:bevel;stroke-dasharray:none;stroke-opacity:1;filter:url(#filter79386)"
       d="M 2.676591,0.57087585 2.2260374,1.6888874"
       id="path61329"
       transform="matrix(3.7795276,0,0,3.7795276,0.01534822,0.05851851)" /><path
       style="fill:none;fill-opacity:1;stroke:#dddede;stroke-width:0.264583;stroke-linejoin:bevel;stroke-dasharray:none;stroke-opacity:1;filter:url(#filter79386)"
       d="M 2.7848023,0.62021154 2.2881225,1.7194209"
       id="path61532"
       transform="matrix(3.7795276,0,0,3.7795276,0.01534822,0.05851851)" /><path
       style="fill:none;fill-opacity:1;stroke:#e5e5e5;stroke-width:0.264583;stroke-linejoin:bevel;stroke-dasharray:none;stroke-opacity:1;filter:url(#filter79386)"
       d="M 2.9089722,0.68127863 2.3191649,1.7499546"
       id="path61810"
       transform="matrix(3.7795276,0,0,3.7795276,0.01534822,0.05851851)" /><path
       style="fill:none;fill-opacity:1;stroke:#e9e8e9;stroke-width:0.264583;stroke-linejoin:bevel;stroke-dasharray:none;stroke-opacity:1;filter:url(#filter79386)"
       d="M 3.0641848,0.77287948 2.370135,1.7499546"
       id="path62496"
       transform="matrix(3.7795276,0,0,3.7795276,0.01534822,0.05851851)" /><path
       style="fill:none;fill-opacity:1;stroke:#faf9fa;stroke-width:0.264583;stroke-linejoin:bevel;stroke-dasharray:none;stroke-opacity:1;filter:url(#filter79386)"
       d="M 3.1421376,0.83918196 2.411393,1.8110218"
       id="path62837"
       transform="matrix(3.7795276,0,0,3.7795276,0.01534822,0.05851851)" /><path
       style="fill:none;fill-opacity:1;stroke:#f0f2f0;stroke-width:0.264583;stroke-linejoin:bevel;stroke-dasharray:none;stroke-opacity:1;filter:url(#filter79386)"
       d="M 3.2814822,0.9866147 2.4743774,1.8415554"
       id="path63523"
       transform="matrix(3.7795276,0,0,3.7795276,0.01534822,0.05851851)" /><path
       style="fill:none;fill-opacity:1;stroke:#f0f2f0;stroke-width:0.264583;stroke-linejoin:bevel;stroke-dasharray:none;stroke-opacity:1;filter:url(#filter79386)"
       d="M 3.3584529,1.0789785 2.5138191,1.8473342"
       id="path63726"
       transform="matrix(3.7795276,0,0,3.7795276,0.01534822,0.05851851)" /><path
       style="fill:none;fill-opacity:1;stroke:#faf9fa;stroke-width:0.264583;stroke-linejoin:bevel;stroke-dasharray:none;stroke-opacity:1;filter:url(#filter79386)"
       d="M 3.4515922,1.1489554 2.4936277,1.9293315"
       id="path63728"
       transform="matrix(3.7795276,0,0,3.7795276,0.01534822,0.05851851)" /><path
       style="fill:none;fill-opacity:1;stroke:#d7d7d6;stroke-width:0.264583;stroke-linejoin:bevel;stroke-dasharray:none;stroke-opacity:1;filter:url(#filter79386)"
       d="M 3.2193973,0.89583805 2.411393,1.8510166"
       id="path64006"
       transform="matrix(3.7795276,0,0,3.7795276,0.01534822,0.05851851)" /><circle
       style="fill:none;fill-opacity:1;stroke:#dad9da;stroke-width:1.13691;stroke-linejoin:bevel;stroke-dasharray:none;stroke-opacity:1;filter:url(#filter82409)"
       id="path81315"
       cx="4.1010413"
       cy="4.3656249"
       r="0.66145831"
       transform="matrix(1.7737468,0,0,1.7446689,0.21590182,1.0177942)" /><ellipse
       style="display:inline;fill:#e2e2e2;fill-opacity:1;stroke:#888988;stroke-width:0.999999;stroke-linejoin:bevel;stroke-dasharray:none;stroke-opacity:1"
       id="path12300"
       cx="7.4901104"
       cy="8.6343641"
       rx="2.3465192"
       ry="2.3080513" /><path
       style="fill:none;fill-opacity:1;stroke:#fffeff;stroke-width:1.13691;stroke-linejoin:bevel;stroke-dasharray:none;stroke-opacity:1;filter:url(#filter80533)"
       d="M 5.027083,3.4395833 3.175,5.2916663"
       id="path80531"
       transform="matrix(1.7737468,0,0,1.7446689,0.21590182,1.0177942)" /><path
       style="fill:none;fill-opacity:1;stroke:#fffeff;stroke-width:0.999999;stroke-linejoin:bevel;stroke-dasharray:none;stroke-opacity:1"
       d="M 9.1326739,7.018728 5.8475475,10.25"
       id="path80324" /><ellipse
       style="fill:#ffffff;fill-opacity:1;stroke:url(#linearGradient13022);stroke-width:0.999999;stroke-linejoin:bevel;stroke-dasharray:none;stroke-opacity:1"
       id="path12991"
       cx="7.4901104"
       cy="8.6343641"
       rx="1.3550482"
       ry="1.3352069" /><ellipse
       style="display:inline;mix-blend-mode:normal;fill:none;fill-opacity:1;stroke:#808080;stroke-width:0.994803;stroke-linejoin:bevel;stroke-dasharray:none;stroke-opacity:0.5;filter:url(#filter48870)"
       id="circle48867"
       cx="4.1010413"
       cy="4.3656249"
       rx="3.836458"
       ry="3.8364582"
       transform="matrix(1.7737468,0,0,1.7446689,0.21590182,1.0177942)" /><ellipse
       style="fill:none;fill-opacity:1;stroke:#000000;stroke-width:0.999999;stroke-linejoin:bevel;stroke-dasharray:none;stroke-opacity:1"
       id="circle9297"
       cx="7.4901104"
       cy="8.6343641"
       rx="7.039557"
       ry="6.9241543" /><ellipse
       style="display:inline;fill:none;fill-opacity:1;stroke:#888988;stroke-width:0.999999;stroke-linejoin:bevel;stroke-dasharray:none;stroke-opacity:1"
       id="circle80259"
       cx="7.4901104"
       cy="8.6343641"
       rx="2.3465192"
       ry="2.3080513" /></g></svg>
